<svg width="183" height="55" viewBox="0 0 183 55" fill="none" xmlns="http://www.w3.org/2000/svg">
<g clip-path="url(#clip0_713_245)">
<path d="M78.8621 0.251953H69.6947L38.7404 24.5416C32.5169 28.9794 27.0418 33.2747 23.0258 34.3048C17.563 35.7062 10.4631 36.5007 0 36.2819C3.14848 36.9978 5.89214 37.331 7.68603 37.5588C16.2662 38.6483 22.4242 41.577 27.6257 45.4066C31.0522 47.929 33.1552 50.1104 35.5886 51.5724C38.2589 53.1759 41.9779 54.2508 45.1564 54.2508C48.3349 54.2508 51.5145 53.8458 54.0769 53.1613C51.2988 53.2858 47.6876 53.0682 45.0641 52.5071C42.4405 51.9472 36.8654 49.9521 36.237 46.715C35.6353 43.6169 43.328 41.2426 46.3608 40.7982C54.2315 39.6459 60.9299 39.9578 63.3678 40.1441C60.127 38.8671 59.2317 37.3097 59.2317 35.9711C59.2317 34.6324 60.1581 33.3555 60.7131 32.3894L78.8621 0.251953Z" fill="#CB1D24"/>
<path d="M56.7927 11.9126C59.2617 9.54728 66.3071 3.53295 67.4671 2.61621C66.7464 3.15705 63.6424 5.32266 60.6674 7.33455L47.7788 17.449C47.7254 17.5062 47.6731 17.5623 47.6198 17.6206L47.8844 17.9696C51.5289 16.0587 54.1714 14.4238 56.7938 11.9115L56.7927 11.9126ZM71.6143 10.0926C71.6721 10.0713 71.7188 10.0545 71.75 10.0421C71.7177 10.0533 71.6721 10.0702 71.6143 10.0926ZM48.2915 18.6013L48.4427 19.0131C52.4809 18.258 55.4815 17.4725 58.7156 15.841C61.7607 14.306 70.2397 10.6267 71.6143 10.0915C70.2274 10.5919 61.4248 13.3915 58.1251 14.2342C54.6207 15.1296 51.8392 16.512 48.2915 18.6002V18.6013ZM42.5562 24.3116C40.3263 27.7911 38.8305 30.5313 37.7828 34.022C36.7964 37.3097 33.6212 46.053 33.0618 47.4286C33.6546 46.0676 37.685 37.6912 39.3454 34.6919C41.1081 31.5075 42.0234 28.5183 42.9565 24.4833L42.5562 24.3116ZM33.0629 47.4286C33.0384 47.4859 33.0184 47.5319 33.0062 47.5633C33.0206 47.533 33.0395 47.4859 33.0629 47.4286ZM45.1319 24.6673L44.6993 24.7178C44.4668 28.8549 44.5102 31.9832 45.3109 35.5391C45.5823 36.7465 45.9549 38.7123 46.3297 40.8028C46.3397 40.8016 46.3508 40.7994 46.3608 40.7983C46.6433 40.7568 46.9235 40.7175 47.2038 40.6805C47.0926 38.5676 47.0081 36.577 46.9992 35.3427C46.9703 31.6949 46.3007 28.6406 45.133 24.6684L45.1319 24.6673ZM21.3098 38.2433C21.2597 38.2803 21.2208 38.3106 21.1941 38.3319C21.2208 38.3117 21.2608 38.2815 21.3098 38.2433ZM41.1571 23.2389L40.8924 22.8899C40.8435 22.9157 40.7956 22.9404 40.7478 22.9662L38.7393 24.5427C35.6575 26.7398 32.7604 28.902 30.1313 30.6502C27.0284 33.433 22.2473 37.5027 21.3098 38.2433C22.492 37.3569 30.1024 32.0876 33.014 30.3091C36.1068 28.4206 38.3678 26.2797 41.1571 23.2389ZM67.4671 2.61733C67.5171 2.5803 67.556 2.55001 67.5827 2.52869C67.556 2.54888 67.516 2.57918 67.4671 2.61733ZM43.6016 24.6561C42.3282 28.5946 41.5764 31.6298 41.4496 35.2754C41.3951 36.8407 41.1882 39.619 40.9602 42.3187C41.2082 42.2188 41.4574 42.1235 41.7076 42.0326C42.2214 39.5012 42.763 36.963 43.1289 35.5189C44.0253 31.9855 44.1532 28.8594 44.032 24.7178L43.6005 24.6549L43.6016 24.6561ZM48.3782 21.9507L48.2003 22.3513C51.6068 24.6662 54.2937 26.2259 57.7336 27.3479C58.8691 27.7182 60.6641 28.3724 62.5748 29.0916L63.0207 28.3017C61.1857 27.33 59.4719 26.3998 58.4265 25.7849C55.3036 23.9469 52.3586 22.9673 48.3771 21.9507H48.3782ZM59.2139 18.0784C55.5983 18.0403 52.5588 18.6574 48.6007 19.7616L48.6429 20.1992C52.7378 20.5111 55.8385 20.5257 59.3784 19.784C61.377 19.3655 65.4563 18.7068 68.7205 18.2108L68.9562 17.7923C65.6165 17.9449 61.3114 18.1009 59.2139 18.0784ZM47.86 22.9303L47.5864 23.2725C50.2922 26.3897 52.4943 28.5912 55.536 30.5638C56.5803 31.2404 58.2352 32.3984 59.9734 33.6417C60.1225 33.3724 60.2793 33.1143 60.4272 32.8697C58.8913 31.4491 57.4611 30.0993 56.6025 29.2308C54.0491 26.6478 51.4511 24.9411 47.86 22.9303ZM48.6307 20.8713L48.5606 21.3055C52.4409 22.6644 55.4337 23.479 59.0437 23.6754C60.4595 23.7528 62.8773 23.9772 65.3218 24.2285L65.7143 23.534C63.2254 22.9707 60.7353 22.3805 59.3173 21.9855C55.8318 21.0149 52.7367 20.8275 48.6307 20.8724V20.8713ZM47.1115 23.7438L46.7601 24.0041C48.5851 27.716 50.1566 30.4123 52.5966 33.1042C53.8967 34.5382 56.3256 37.4713 58.3508 39.9635C58.5399 39.9635 58.7256 39.9646 58.9069 39.9668C57.1197 37.2155 54.9644 33.8302 53.9645 32.091C52.1506 28.9345 50.072 26.6141 47.1104 23.7438H47.1115ZM41.9778 23.9817L41.6342 23.7124C38.5958 26.5008 36.4549 28.7629 34.5576 31.8677C32.7704 34.7918 27.4844 42.4242 26.5958 43.6091C27.5133 42.4466 33.5344 35.3887 35.8989 32.9179C38.4101 30.2945 40.0538 27.6408 41.9778 23.9806V23.9817ZM26.5947 43.6091C26.5557 43.6573 26.5257 43.6977 26.5057 43.7247C26.5268 43.6988 26.5569 43.6585 26.5947 43.6091ZM46.1817 24.3363L45.7769 24.4967C46.601 28.5564 47.4351 31.5692 49.1122 34.8008C49.7384 36.0081 50.7148 38.0716 51.7002 40.2081C51.9771 40.1867 52.2518 40.1677 52.5232 40.1486C51.7747 37.8248 51.0618 35.5346 50.6937 34.1735C49.7406 30.6547 48.3193 27.8753 46.1829 24.3351L46.1817 24.3363Z" fill="#E47C29"/>
<path d="M181.164 33.737L177.149 41.1101H172.57L176.389 34.1645C176.389 34.1645 176.854 33.4239 176.266 33.4239H174.699C174.234 33.4239 173.941 33.9928 173.941 33.9928L170.244 40.8251H165.69L166.792 39.0029C166.792 39.0029 166.987 38.4048 166.131 38.4048H156.657C155.261 38.4048 156.363 36.7542 156.363 36.7542L157.49 34.7053H161.823C162.508 34.7053 163.243 33.4239 162.336 33.4239H159.569L160.16 32.5666H182.989L183 33.737H181.164ZM169.34 33.5372H167.65C167.259 33.5372 167.161 33.8222 167.161 33.8222L166.401 35.1598C166.401 35.1598 166.181 35.6434 165.741 35.6434H161.407L160.917 36.5545C160.917 36.5545 160.404 37.4376 161.309 37.4376H167.625L169.461 34.1925C169.461 34.1925 169.828 33.5372 169.338 33.5372H169.34ZM158.028 33.3925H156.712L155.753 35.1295C155.753 35.1295 155.575 35.5424 154.864 35.5424H148.925C148.32 35.5424 148.019 36.5758 148.836 36.5758H153.778C155.059 36.5758 154.472 37.6093 154.472 37.6093L153.299 39.7592C153.299 39.7592 152.908 40.5861 151.734 40.5861H142.738C141.316 40.5861 141.796 39.3462 141.796 39.3462L142.152 38.7257H146.828C146.828 38.7257 146.259 39.7176 146.899 39.7176H148.392C148.801 39.7176 149.085 39.2419 149.085 39.2419L149.601 38.1467C149.601 38.1467 149.797 37.5262 148.962 37.5262H144.091C142.971 37.5262 143.45 36.6162 143.45 36.6162L144.091 35.4998C144.091 35.4998 144.429 34.7143 145.654 34.7143H151.664L152.305 33.3914H142.917L138.757 40.5435H134.027L138.436 33.3499H137.37L137.903 32.4398H138.97L140.037 30.7859C140.037 30.7859 140.179 30.2069 141.388 30.2069H157.461C158.19 30.2069 158.527 30.6412 158.226 31.1786C157.923 31.7161 157.461 32.5633 157.461 32.5633H158.563L158.03 33.3902L158.028 33.3925ZM152.552 31.0776H144.604C144.088 31.0776 143.928 31.5949 143.928 31.5949L143.484 32.4634H152.73L153.068 31.6982C153.068 31.6982 153.335 31.0776 152.552 31.0776ZM132.075 31.2561L132.698 30.2507H137.202L136.759 31.2561H132.074H132.075ZM136.398 33.3835H135.433L134.527 34.9735C134.527 34.9735 134.246 35.4178 133.562 35.4178H127.368C127.007 35.4178 126.443 36.4703 127.288 36.4703H132.678C133.823 36.4703 133.12 37.3826 133.12 37.3826L131.512 40.0015C131.512 40.0015 131.11 40.6321 130.406 40.6321H124.192L123.709 41.6375H120.693L121.236 40.6086C121.236 40.6086 120.129 40.4919 120.492 39.4629C120.893 38.6909 121.015 38.434 121.015 38.434H125.318L125.196 38.995C125.196 38.995 124.955 39.6503 125.538 39.6503H126.926C127.328 39.6503 127.65 39.1824 127.65 39.1824L128.233 38.223C128.233 38.223 128.534 37.451 127.69 37.451H122.402C121.597 37.451 121.879 36.6555 121.879 36.6555L122.683 35.1586C122.683 35.1586 123.025 34.4809 123.99 34.4809H130.363L130.826 33.6393C130.826 33.6393 130.866 33.4284 130.445 33.4284H123.89L124.472 32.469H136.939L136.397 33.3813L136.398 33.3835ZM117.094 37.1481L117.778 35.9553H119.488L118.784 37.1481H117.094ZM115.526 33.3835L114.058 35.9318C114.058 35.9318 113.616 36.7273 113.053 36.7273H111.786C111.786 36.7273 112.148 37.3119 111.766 37.8258C111.385 38.3397 111.062 38.7369 111.062 38.7369C111.062 38.7369 110.459 39.5908 111.585 39.5908H113.606L113.053 40.3741H107.001C106.015 40.3741 106.217 39.0646 106.558 38.6438C106.899 38.223 106.847 38.2466 107.262 37.5677C107.805 36.6791 106.699 36.5859 106.699 36.5859L107.122 35.9318H109.635L111.224 33.4071H109.515L110.018 32.542H117.86L117.337 33.3835H115.526ZM105.854 33.4071L101.832 40.3045H97.207L99.379 36.6577H97.4884L97.9711 35.7691H99.8206L101.389 33.4778H99.6793L100.323 32.542H108.286L107.663 33.4071H105.854ZM97.207 35.465C97.207 35.465 96.9257 35.9789 96.5842 35.9789H96.0415L96.0015 36.1887C96.0015 36.1887 96.6042 36.5399 96.0815 37.405C95.5588 38.2702 94.7748 39.4394 94.7748 39.4394C94.7748 39.4394 94.232 40.2809 92.764 40.2809H84.1582C83.1929 40.2809 83.6555 39.1353 83.6555 39.1353L83.8368 38.5047H88.2609C88.2609 38.5047 87.8583 39.4641 88.8037 39.4641H89.8291C90.3918 39.4641 90.5731 39.1128 90.5731 39.1128L91.7475 37.2188C91.7475 37.2188 91.9799 36.6813 90.9746 36.6813H88.6824L89.1851 35.7253H92.6039L93.7294 34.1095C93.7294 34.1095 94.212 33.2679 93.1266 33.2679H92.0611C91.5985 33.2679 91.2871 33.8884 91.2871 33.8884L90.9356 34.4136H86.3314L87.1154 33.2219C87.1154 33.2219 87.3768 32.5206 88.222 32.5206H97.7931C99.0599 32.5206 98.4771 33.526 98.4771 33.526L97.2104 35.4672L97.207 35.465ZM83.7456 33.1916L81.4591 36.9809C81.4591 36.9809 80.9731 37.9055 79.5862 37.9055H75.1054L75.637 37.037H76.1719C76.8214 37.037 77.0261 36.6645 77.0261 36.6645L79.1591 33.3162H76.599L73.3982 38.278C73.3982 38.278 72.6097 39.2699 73.9777 39.2699H80.7584C81.944 39.2699 81.657 40.3426 81.657 40.3426L81.4802 41.1303H76.4911C76.4911 41.1303 76.8025 40.2619 75.8516 40.2619H69.8294C67.6662 40.2619 68.705 38.5249 68.705 38.5249L72.0803 33.1916H69.6737L70.2075 32.4309H86.4137L85.921 33.1916H83.7467H83.7456Z" fill="#CB1D24"/>
<path d="M69.9528 46.3312L63.3066 54.2531H69.8583L70.7958 53.1254H73.5384L73.1413 54.2531H79.1703L81.3734 46.3312H69.9528ZM74.0677 51.6207H72.0459L75.5536 47.3994L74.0677 51.6207ZM84.2984 46.3312L80.2057 54.2531H86.7573L90.7866 46.3312H84.2984ZM104.502 46.3301C102.314 46.3301 98.764 46.3312 98.764 46.3312H92.2758L88.1831 54.2531H94.7347L96.0649 51.6084C96.4875 51.6084 96.661 51.9843 96.661 51.9843L97.9277 54.2026H103.892L102.389 51.4569C104.029 51.4569 104.373 50.7892 104.373 50.7892L105.967 48.0222C106.374 47.2502 106.043 46.329 104.502 46.329V46.3301ZM99.5714 49.0758L99.2033 49.9286C99.0398 50.2529 98.8174 50.3797 98.2013 50.3797H96.7288L97.6908 48.2904L99.1144 48.2881C99.8295 48.2881 99.676 48.8133 99.5714 49.0758ZM115.089 46.3323L110.996 54.2542H117.548L121.577 46.3323H115.089ZM132.908 46.3323L131.677 48.7145L129.962 46.3323H123.365L119.272 54.2542H124.332L125.909 51.1539L127.911 54.2542H133.874L137.905 46.3323H132.908ZM152.316 46.3312C150.128 46.3312 146.578 46.3323 146.578 46.3323H140.09L135.998 54.2542H148.904C150.544 54.2542 150.887 53.5866 150.887 53.5866L153.782 48.0233C154.19 47.2513 153.857 46.3301 152.316 46.3301V46.3312ZM147.386 49.0769L145.83 51.798C145.666 52.1223 145.443 52.2491 144.828 52.2491H143.355L145.506 48.2915L146.93 48.2892C147.645 48.2892 147.493 48.8144 147.386 49.0769ZM156.393 46.3335L152.299 54.2553H158.851L162.88 46.3335H156.393ZM166.576 46.3335L159.929 54.2553H166.48L167.418 53.1276H170.16L169.763 54.2553H175.793L177.997 46.3335H166.576ZM170.691 51.6229H168.669L172.177 47.4017L170.691 51.6229Z" fill="#CB1D24"/>
</g>
<defs>
<clipPath id="clip0_713_245">
<rect width="183" height="54" fill="white" transform="translate(0 0.251953)"/>
</clipPath>
</defs>
</svg>
