<svg width="175" height="48" viewBox="0 0 175 48" fill="none" xmlns="http://www.w3.org/2000/svg">
<g id="Frame" clip-path="url(#clip0_899_10)">
<path id="Vector" fill-rule="evenodd" clip-rule="evenodd" d="M6.97171 7.09634C9.168 4.80399 11.868 3.12957 14.6688 1.87375C17.7315 0.61794 20.7741 0 24.0786 0C27.2622 0 30.3048 0.598007 33.3675 1.87375C36.3093 3.12957 38.8683 4.82392 41.1855 7.09634C43.3818 9.24917 44.9736 11.8206 46.2027 14.711C47.4318 17.6611 48.0363 20.7708 48.0363 24.0399C48.0363 27.2093 47.4318 30.3389 46.2027 33.3688C44.9736 36.2591 43.3818 38.7309 41.1855 40.9834C38.8683 43.2757 36.2892 44.9502 33.3675 46.1262C30.3048 47.3821 27.2622 48 24.0786 48C20.7741 48 17.7315 47.402 14.6688 46.1262C11.8479 44.9701 9.168 43.2757 6.97171 40.9834C4.65452 38.7508 3.06272 36.2591 1.8336 33.3688C0.604484 30.3389 0 27.2093 0 24.0399C0 20.7708 0.604484 17.6412 1.8336 14.711C3.06272 11.8206 4.65452 9.24917 6.97171 7.09634ZM29.7003 23.2425L32.1384 25.5748C32.7429 26.2326 33.8511 26.2326 34.8182 25.5748L40.319 21.9269L38.8481 20.6113H46.6661L35.06 28.8239C33.5891 29.6213 32.622 29.701 31.7555 29.0033C30.7682 28.3056 30.2846 27.887 30.2846 27.9668C29.5592 26.9302 28.451 26.7907 27.101 27.5083L19.8875 32.7907H7.05231L19.283 23.6811L1.43061 23.7807L3.86869 21.4485H26.4764C27.7458 21.3289 28.7331 21.9468 29.7003 23.2425Z" fill="#E1241A"/>
<path id="Vector_2" fill-rule="evenodd" clip-rule="evenodd" d="M29.7003 23.2426L32.1384 25.5748C32.7429 26.2326 33.8511 26.2326 34.8183 25.5748L40.3191 21.9269L38.8482 20.6113H46.6662L35.0601 28.824C33.5892 29.6213 32.622 29.701 31.7556 29.0034C30.7683 28.3057 30.2847 27.8871 30.2847 27.9668C29.5593 26.9303 28.4511 26.7907 27.1011 27.5083L19.8876 32.7907H7.05236L19.2831 23.6811L1.43066 23.7808L3.86875 21.4485H26.4764C27.7458 21.3289 28.7332 21.9469 29.7003 23.2426Z" fill="white"/>
<g id="Group">
<path id="Vector_3" d="M58.5141 10.6246H66.9567C68.3672 10.6246 69.3747 10.9635 69.9792 11.6612C70.5836 12.3589 70.7851 13.1961 70.5635 14.2127C70.3821 15.0698 69.959 15.7874 69.2941 16.4054C68.8508 16.804 68.2665 17.1429 67.5209 17.3622C68.5082 17.6213 69.1933 18.0399 69.556 18.6379C69.9187 19.2359 69.9993 20.0133 69.818 20.9303C69.6568 21.6878 69.3344 22.3456 68.8709 22.9436C68.3873 23.5416 67.803 24.02 67.1381 24.3589C66.7149 24.5781 66.1105 24.7376 65.3246 24.8373C64.2769 24.9768 63.5918 25.0366 63.2694 25.0366H55.4917L58.5141 10.6246ZM61.8589 16.2858H63.8134C64.5187 16.2858 65.0224 16.1662 65.3649 15.927C65.6873 15.6878 65.909 15.3489 65.9896 14.8904C66.0702 14.4718 66.0097 14.1329 65.7881 13.9137C65.5664 13.6745 65.103 13.5549 64.4179 13.5549H62.4231L61.8589 16.2858ZM60.6701 21.9469H62.9671C63.753 21.9469 64.3172 21.8074 64.7 21.5482C65.0828 21.2692 65.3045 20.9103 65.4052 20.4519C65.4858 20.0333 65.4052 19.6745 65.1433 19.4153C64.8813 19.1562 64.3575 19.0167 63.5716 19.0167H61.2746L60.6701 21.9469Z" fill="#3D7357"/>
<path id="Vector_4" d="M74.2307 10.6246H78.2807L77.6964 13.3555H73.6463L74.2307 10.6246ZM73.3844 14.5914H77.4344L75.218 25.0366H71.168L73.3844 14.5914Z" fill="#3D7357"/>
<path id="Vector_5" d="M80.0539 14.5914H83.842L83.5196 16.1263C84.2047 15.4884 84.8495 15.0299 85.454 14.7708C86.0585 14.5116 86.7637 14.3721 87.5495 14.3721C88.3958 14.3721 89.0204 14.5116 89.4637 14.8106C89.8869 15.1096 90.2093 15.5482 90.3906 16.1263C91.1764 15.4485 91.8414 14.9701 92.4257 14.7309C93.01 14.4917 93.675 14.3522 94.4407 14.3522C95.569 14.3522 96.3951 14.691 96.8787 15.3489C97.3825 16.0067 97.4631 17.0631 97.1608 18.4784L95.7705 25.0366H91.7205L92.9899 19.0764C93.0906 18.598 93.0705 18.2591 92.9294 18.0199C92.7279 17.6611 92.4458 17.4817 92.0429 17.4817C91.5593 17.4817 91.1563 17.6611 90.7936 18C90.4309 18.3389 90.169 18.897 90.0078 19.6346L88.8593 25.0366H84.8092L86.0383 19.2758C86.1391 18.8173 86.1794 18.4984 86.1592 18.3389C86.1189 18.0797 86.0182 17.8605 85.8368 17.701C85.6555 17.5415 85.4338 17.4618 85.1316 17.4618C84.6682 17.4618 84.245 17.6412 83.8823 17.9801C83.4995 18.3189 83.2376 18.897 83.0764 19.6944L81.948 25.0366H77.8979L80.0539 14.5914Z" fill="#3D7357"/>
<path id="Vector_6" d="M103.367 17.9802L99.5787 17.5815C99.8608 16.9038 100.183 16.3855 100.546 16.0067C100.909 15.628 101.372 15.2891 101.956 15.0101C102.379 14.8107 102.924 14.6513 103.588 14.5317C104.253 14.4121 104.979 14.3722 105.724 14.3722C106.933 14.3722 107.9 14.432 108.606 14.5715C109.311 14.7111 109.875 14.9901 110.258 15.4087C110.54 15.7077 110.721 16.1263 110.802 16.6646C110.883 17.2028 110.883 17.721 110.782 18.2194L109.794 22.844C109.694 23.3423 109.633 23.721 109.653 24.0001C109.653 24.2792 109.714 24.638 109.835 25.0765H106.027C105.926 24.8174 105.865 24.5981 105.865 24.4586C105.845 24.319 105.845 24.0998 105.865 23.8008C105.221 24.2991 104.616 24.6579 104.052 24.8772C103.266 25.1562 102.42 25.3157 101.473 25.3157C100.203 25.3157 99.3168 25.0366 98.7929 24.4586C98.269 23.8805 98.0877 23.1629 98.269 22.3257C98.4302 21.5283 98.813 20.8705 99.3974 20.3722C99.9817 19.8739 100.929 19.4752 102.238 19.236C103.83 18.937 104.858 18.7177 105.321 18.5981C105.805 18.4785 106.309 18.319 106.853 18.1197C106.953 17.6214 106.933 17.2825 106.772 17.0832C106.611 16.8838 106.268 16.7842 105.744 16.7842C105.08 16.7842 104.556 16.8838 104.193 17.1031C103.911 17.2227 103.629 17.5217 103.367 17.9802ZM106.43 20.0931C105.825 20.2925 105.221 20.4719 104.576 20.6114C103.709 20.8307 103.145 21.0499 102.883 21.2493C102.621 21.4685 102.44 21.7077 102.379 21.9868C102.319 22.3057 102.359 22.5649 102.541 22.7642C102.722 22.9636 103.024 23.0632 103.447 23.0632C103.891 23.0632 104.334 22.9636 104.777 22.7443C105.221 22.525 105.543 22.2659 105.765 21.9469C105.986 21.628 106.168 21.2293 106.268 20.731L106.43 20.0931Z" fill="#3D7357"/>
<path id="Vector_7" d="M113.986 14.5914H117.754L117.391 16.2857C118.096 15.5881 118.781 15.0897 119.426 14.7907C120.071 14.4917 120.796 14.3522 121.622 14.3522C122.751 14.3522 123.557 14.691 124.04 15.3489C124.524 16.0067 124.645 17.0233 124.342 18.3987L122.932 25.0366H118.862L120.071 19.2957C120.212 18.6379 120.192 18.1794 119.99 17.9003C119.809 17.6213 119.486 17.5017 119.043 17.5017C118.56 17.5017 118.116 17.6811 117.733 18.0598C117.351 18.4186 117.068 19.0964 116.867 20.0332L115.799 25.0565H111.749L113.986 14.5914Z" fill="#3D7357"/>
</g>
<g id="Group_2">
<path id="Vector_8" d="M57.1438 29.2823H60.005C60.5692 29.2823 60.9923 29.3023 61.2543 29.3621C61.5162 29.402 61.758 29.5016 61.9595 29.6611C62.161 29.8006 62.3021 30 62.4028 30.2591C62.5036 30.5182 62.5237 30.7774 62.4834 31.0963C62.423 31.4352 62.2819 31.7342 62.0603 32.0132C61.8386 32.2923 61.5565 32.4917 61.214 32.6312C61.6371 32.7508 61.9192 32.9701 62.1006 33.2691C62.2819 33.5681 62.3424 33.9269 62.2618 34.3455C62.2013 34.6644 62.0804 34.9833 61.8789 35.2823C61.6774 35.5814 61.4155 35.8206 61.1334 36.0199C60.8513 36.2192 60.4886 36.3189 60.1058 36.3588C59.864 36.3787 59.2796 36.3986 58.3528 36.3986H55.8945L57.1438 29.2823ZM58.3931 30.4584L58.111 32.093H59.058C59.6222 32.093 59.9647 32.093 60.1058 32.073C60.3677 32.0531 60.5692 31.9534 60.7304 31.8139C60.8916 31.6744 60.9923 31.495 61.0326 31.2558C61.0729 31.0365 61.0326 30.8571 60.952 30.7176C60.8513 30.578 60.6901 30.4983 60.4483 30.4784C60.3073 30.4584 59.9043 30.4584 59.2192 30.4584H58.3931ZM57.8893 33.289L57.5468 35.1827H58.8767C59.4005 35.1827 59.7229 35.1627 59.8841 35.1428C60.1058 35.1029 60.2871 35.0033 60.4685 34.8637C60.6297 34.7043 60.7304 34.5049 60.7707 34.2657C60.811 34.0465 60.7908 33.8671 60.7102 33.7275C60.6297 33.588 60.5088 33.4684 60.3073 33.4086C60.1259 33.3488 59.7028 33.3089 59.0378 33.3089H57.8893V33.289Z" fill="#3D7357"/>
<path id="Vector_9" d="M69.576 36.3588H68.0044L67.6618 34.7441H64.8006L63.9342 36.3588H62.4028L66.4327 29.2823H67.9641L69.576 36.3588ZM67.3999 33.5681L66.876 30.9368L65.4454 33.5681H67.3999Z" fill="#3D7357"/>
<path id="Vector_10" d="M70.3418 36.3588L71.5911 29.2823H73.0015L75.0971 34.0066L75.9232 29.2823H77.2732L76.0239 36.3588H74.5732L72.4978 31.7342L71.6918 36.3588H70.3418Z" fill="#3D7357"/>
<path id="Vector_11" d="M81.3433 33.7674L81.5448 32.5714H84.6679L84.1642 35.382C83.8015 35.681 83.3179 35.9202 82.7134 36.1395C82.109 36.3588 81.5045 36.4784 80.9201 36.4784C80.1746 36.4784 79.55 36.3189 79.0462 36.0199C78.5425 35.701 78.2 35.2624 78.0186 34.6844C77.8373 34.1063 77.8171 33.4684 77.938 32.7907C78.0589 32.0531 78.341 31.3953 78.744 30.8172C79.147 30.2392 79.691 29.8006 80.356 29.5016C80.8597 29.2624 81.444 29.1428 82.1291 29.1428C83.0157 29.1428 83.6806 29.3222 84.1037 29.701C84.547 30.0598 84.7687 30.578 84.7888 31.2358L83.2978 31.495C83.2575 31.1561 83.1164 30.877 82.8746 30.6777C82.6328 30.4784 82.3104 30.3787 81.8873 30.3787C81.2627 30.3787 80.7186 30.578 80.2754 30.9767C79.8321 31.3754 79.55 31.9535 79.4089 32.7309C79.2679 33.5681 79.3283 34.2059 79.6507 34.6245C79.953 35.0432 80.4164 35.2624 81.0209 35.2624C81.3231 35.2624 81.6455 35.2026 81.9679 35.083C82.2903 34.9634 82.5724 34.8239 82.8343 34.6644L82.9955 33.7674H81.3433Z" fill="#3D7357"/>
<path id="Vector_12" d="M85.373 36.3588L86.6022 29.3422H88.0529L87.0253 35.1628H90.6119L90.4104 36.3588H85.373Z" fill="#3D7357"/>
<path id="Vector_13" d="M97.8861 36.3588H96.3144L95.9719 34.7441H93.1107L92.2442 36.3588H90.7129L94.7428 29.2823H96.2741L97.8861 36.3588ZM95.7301 33.5681L95.2062 30.9368L93.7756 33.5681H95.7301Z" fill="#3D7357"/>
<path id="Vector_14" d="M99.9011 29.2823H102.541C103.145 29.2823 103.588 29.3222 103.871 29.4219C104.274 29.5415 104.596 29.7608 104.838 30.0797C105.08 30.3986 105.241 30.7774 105.321 31.2358C105.402 31.6943 105.382 32.2525 105.261 32.9103C105.16 33.4883 104.999 33.9867 104.777 34.4252C104.515 34.9435 104.173 35.3621 103.79 35.681C103.488 35.9202 103.125 36.1196 102.682 36.2392C102.339 36.3388 101.916 36.3986 101.372 36.3986H98.6519L99.9011 29.2823ZM101.13 30.4784L100.304 35.1627H101.392C101.795 35.1627 102.097 35.1428 102.279 35.1029C102.521 35.0431 102.742 34.9435 102.924 34.8039C103.105 34.6644 103.266 34.4451 103.427 34.1262C103.588 33.8073 103.709 33.3687 103.81 32.8305C103.911 32.2923 103.931 31.8538 103.891 31.5747C103.85 31.2757 103.75 31.0564 103.609 30.897C103.468 30.7375 103.266 30.6179 103.004 30.5581C102.803 30.5182 102.42 30.4983 101.835 30.4983H101.13V30.4784Z" fill="#3D7357"/>
<path id="Vector_15" d="M105.865 36.3588L107.114 29.2823H112.414L112.212 30.4784H108.344L108.062 32.0531H111.648L111.447 33.2491H107.86L107.517 35.1827H111.507L111.306 36.3787H105.865V36.3588Z" fill="#3D7357"/>
<path id="Vector_16" d="M112.575 34.0665L114.005 33.9269C114.005 34.3854 114.126 34.7442 114.348 34.9635C114.57 35.1827 114.892 35.2824 115.335 35.2824C115.799 35.2824 116.161 35.1827 116.443 34.9834C116.705 34.7841 116.867 34.5648 116.927 34.3057C116.947 34.1462 116.927 33.9867 116.846 33.8871C116.766 33.7675 116.605 33.6678 116.383 33.5881C116.222 33.5283 115.859 33.4286 115.275 33.2691C114.529 33.0698 114.026 32.8505 113.764 32.5714C113.401 32.1728 113.26 31.7143 113.361 31.1562C113.421 30.7974 113.582 30.4585 113.844 30.1396C114.106 29.8206 114.449 29.5814 114.872 29.4219C115.295 29.2625 115.779 29.1827 116.323 29.1827C117.229 29.1827 117.854 29.3821 118.257 29.7608C118.64 30.1595 118.781 30.6778 118.7 31.3156L117.249 31.3754C117.249 31.0166 117.169 30.7575 116.988 30.598C116.806 30.4386 116.524 30.3588 116.121 30.3588C115.698 30.3588 115.355 30.4386 115.093 30.618C114.912 30.7176 114.811 30.8771 114.791 31.0565C114.771 31.216 114.811 31.3754 114.932 31.495C115.093 31.6545 115.496 31.794 116.182 31.9734C116.846 32.1329 117.35 32.3123 117.652 32.4917C117.955 32.6711 118.176 32.9103 118.317 33.2093C118.458 33.5083 118.479 33.8871 118.398 34.3455C118.317 34.7442 118.136 35.1229 117.854 35.4817C117.572 35.8405 117.189 36.0997 116.746 36.2791C116.302 36.4585 115.758 36.5382 115.134 36.5382C114.227 36.5382 113.562 36.3389 113.159 35.9203C112.716 35.4618 112.535 34.8638 112.575 34.0665Z" fill="#3D7357"/>
<path id="Vector_17" d="M119.204 36.3588L120.453 29.2823H121.904L121.421 32.073H124.241L124.725 29.2823H126.176L124.927 36.3588H123.476L124.02 33.2691H121.199L120.655 36.3588H119.204Z" fill="#3D7357"/>
<path id="Vector_18" d="M135.284 36.3588H133.712L133.369 34.7441H130.508L129.642 36.3588H128.11L132.14 29.2823H133.672L135.284 36.3588ZM133.128 33.5681L132.604 30.9368L131.173 33.5681H133.128Z" fill="#3D7357"/>
<path id="Vector_19" d="M136.009 36.3588L137.258 29.2823H138.709L137.46 36.3588H136.009Z" fill="#3D7357"/>
<path id="Vector_20" d="M138.83 36.3588L140.079 29.2823H143.121C143.887 29.2823 144.431 29.3421 144.754 29.4817C145.076 29.6013 145.318 29.8405 145.459 30.1594C145.6 30.4784 145.64 30.8571 145.58 31.2757C145.479 31.8139 145.257 32.2524 144.874 32.5913C144.492 32.9302 143.988 33.1495 143.343 33.2491C143.625 33.4285 143.847 33.6279 144.008 33.8471C144.169 34.0664 144.371 34.4451 144.633 35.0033L145.257 36.3787H143.545L142.779 34.8438C142.497 34.2857 142.315 33.9468 142.195 33.8073C142.074 33.6677 141.953 33.5681 141.812 33.5083C141.671 33.4485 141.429 33.4285 141.106 33.4285H140.804L140.28 36.3787H138.83V36.3588ZM141.006 32.2923H142.074C142.759 32.2923 143.202 32.2724 143.383 32.2126C143.565 32.1528 143.726 32.0531 143.847 31.9136C143.968 31.774 144.048 31.5946 144.089 31.3754C144.129 31.1362 144.109 30.9368 143.988 30.7973C143.887 30.6578 143.726 30.5581 143.484 30.5182C143.363 30.4983 143.021 30.4983 142.436 30.4983H141.308L141.006 32.2923Z" fill="#3D7357"/>
<path id="Vector_21" d="M146.083 36.3588L147.313 29.3422H148.763L147.736 35.1628H151.322L151.121 36.3588H146.083Z" fill="#3D7357"/>
<path id="Vector_22" d="M152.108 36.3588L153.358 29.2823H154.808L153.559 36.3588H152.108Z" fill="#3D7357"/>
<path id="Vector_23" d="M154.949 36.3588L156.198 29.2823H157.609L159.704 34.0066L160.531 29.2823H161.881L160.631 36.3588H159.181L157.105 31.7342L156.299 36.3588H154.949Z" fill="#3D7357"/>
<path id="Vector_24" d="M162.143 36.3588L163.392 29.2823H168.691L168.49 30.4784H164.621L164.339 32.0531H167.925L167.724 33.2491H164.137L163.795 35.1827H167.784L167.583 36.3787H162.143V36.3588Z" fill="#3D7357"/>
<path id="Vector_25" d="M168.852 34.0665L170.283 33.9269C170.283 34.3854 170.404 34.7442 170.625 34.9635C170.847 35.1827 171.169 35.2824 171.613 35.2824C172.076 35.2824 172.439 35.1827 172.721 34.9834C172.983 34.7841 173.144 34.5648 173.204 34.3057C173.225 34.1462 173.204 33.9867 173.124 33.8871C173.043 33.7675 172.882 33.6678 172.66 33.5881C172.499 33.5283 172.137 33.4286 171.552 33.2691C170.807 33.0698 170.303 32.8505 170.041 32.5714C169.678 32.1728 169.537 31.7143 169.638 31.1562C169.698 30.7974 169.86 30.4585 170.122 30.1396C170.384 29.8206 170.726 29.5814 171.149 29.4219C171.572 29.2625 172.056 29.1827 172.6 29.1827C173.507 29.1827 174.131 29.3821 174.534 29.7608C174.917 30.1595 175.058 30.6778 174.978 31.3156L173.527 31.3754C173.527 31.0166 173.446 30.7575 173.265 30.598C173.084 30.4386 172.801 30.3588 172.398 30.3588C171.975 30.3588 171.633 30.4386 171.371 30.618C171.189 30.7176 171.089 30.8771 171.069 31.0565C171.048 31.216 171.089 31.3754 171.21 31.495C171.371 31.6545 171.774 31.794 172.459 31.9734C173.124 32.1329 173.628 32.3123 173.93 32.4917C174.232 32.6711 174.454 32.9103 174.595 33.2093C174.736 33.5083 174.756 33.8871 174.675 34.3455C174.595 34.7442 174.413 35.1229 174.131 35.4817C173.849 35.8405 173.466 36.0997 173.023 36.2791C172.58 36.4585 172.036 36.5382 171.411 36.5382C170.504 36.5382 169.839 36.3389 169.436 35.9203C168.993 35.4618 168.812 34.8638 168.852 34.0665Z" fill="#3D7357"/>
</g>
</g>
<defs>
<clipPath id="clip0_899_10">
<rect width="175" height="48" fill="white"/>
</clipPath>
</defs>
</svg>
