<svg width="178" height="35" viewBox="0 0 178 35" fill="none" xmlns="http://www.w3.org/2000/svg">
<g clip-path="url(#clip0_713_272)">
<path d="M46.8437 0.251953H33.4343L0 34.252H33.4343L46.8437 0.251953Z" fill="#008ACA"/>
<path fill-rule="evenodd" clip-rule="evenodd" d="M31.1499 13.3451C30.6456 13.1037 30.2896 12.5607 30.2896 11.9573C30.2896 11.1126 30.9719 10.3886 31.8322 10.3886C32.6926 10.3886 33.3749 11.0824 33.3749 11.9573C33.3749 12.5909 33.0189 13.1037 32.5146 13.3451V13.7976C32.9892 13.8579 33.5529 14.039 33.9089 14.22C34.0572 14.22 34.2649 14.1898 34.4726 14.1898C36.4009 14.1898 37.7656 15.4871 37.7656 17.267C37.7656 18.3832 36.7866 19.3788 35.6889 19.3788C34.5912 19.3788 33.5826 18.2927 33.7902 17.1765C33.7902 17.1765 33.6716 17.5687 33.6716 18.0212V23.6326C33.6122 24.2661 32.7816 27.7958 28.8656 27.7958C24.9496 27.7958 24.1189 24.2661 24.0596 23.6326V18.0212C24.0596 17.5687 23.9409 17.1765 23.9409 17.1765C24.1486 18.2324 23.1399 19.3788 22.0422 19.3788C20.9446 19.3788 19.9656 18.3832 19.9656 17.267C19.9656 15.4871 21.3302 14.1898 23.2586 14.1898C23.4662 14.1898 23.6739 14.1898 23.8222 14.22C24.1782 14.039 24.7716 13.8278 25.2166 13.7976V13.3451C24.7122 13.1037 24.3562 12.5607 24.3562 11.9573C24.3562 11.1126 25.0386 10.3886 25.8989 10.3886C26.7592 10.3886 27.4416 11.0824 27.4416 11.9573C27.4416 12.5909 27.0856 13.1037 26.5516 13.3753V13.9485C26.6702 13.9786 26.8186 14.039 26.9372 14.0993C27.1746 13.5864 27.6492 13.1641 28.1832 12.9831V12.5004C27.6492 12.259 27.2932 11.716 27.2932 11.0824C27.2932 10.2075 27.9756 9.51367 28.8359 9.51367C29.6962 9.51367 30.3786 10.2075 30.3786 11.0824C30.3786 11.716 30.0226 12.2288 29.5182 12.5004V12.9831C30.0522 13.1641 30.5269 13.5563 30.7642 14.0993C30.8829 14.039 31.0312 13.9786 31.1499 13.9485V13.3451Z" fill="white"/>
<path d="M37.113 17.2671C37.0833 18.142 36.4603 18.7453 35.6593 18.7453C34.8583 18.7453 34.176 18.0816 34.176 17.2671C34.176 16.8145 34.354 16.4827 34.621 16.2413C34.1167 16.2413 33.019 16.6939 33.019 18.2325V22.2449C32.574 22.2449 31.8027 22.6069 31.2093 22.9991V18.6548C31.2093 15.7586 32.7817 14.6424 34.1167 14.6424C36.1637 14.6424 37.1427 15.819 37.113 17.2671ZM20.6183 17.2671C20.648 18.142 21.271 18.7453 22.072 18.7453C22.873 18.7453 23.5553 18.0816 23.5553 17.2671C23.5553 16.8145 23.3773 16.4827 23.0807 16.2413C23.585 16.2413 24.6827 16.6939 24.6827 18.2325V22.2449C25.1277 22.2449 25.9287 22.6069 26.4923 22.9991V18.6548C26.4923 15.7586 24.92 14.6424 23.585 14.6424C21.5677 14.6424 20.5887 15.819 20.6183 17.2671ZM28.8657 27.1925C32.218 27.1925 32.9597 24.3265 33.0783 23.6025V22.6371C32.04 22.9086 31.1203 23.4516 30.4973 24.2964C30.26 23.331 29.6667 22.4862 28.8953 21.9432C28.0943 22.4862 27.501 23.331 27.2637 24.2964C26.6407 23.4516 25.721 22.9086 24.6827 22.6371V23.6025C24.7717 24.3567 25.5133 27.1925 28.8657 27.1925ZM29.103 12.1686C29.5777 12.0479 29.9337 11.6255 29.9337 11.1127C29.9337 10.5093 29.459 10.0266 28.8657 10.0266C28.2723 10.0266 27.7977 10.5093 27.7977 11.1127C27.7977 11.6255 28.1537 12.0781 28.6283 12.1686V13.3452C28.0647 13.4357 27.59 13.8279 27.3823 14.3106C28.0647 14.7631 28.5987 15.457 28.8657 16.2715C29.1327 15.4268 29.6667 14.7329 30.349 14.3106C30.171 13.8279 29.6667 13.4357 29.103 13.3452V12.1686ZM26.1363 12.9831C26.611 12.8625 26.967 12.4401 26.967 11.9272C26.967 11.3239 26.4923 10.8412 25.899 10.8412C25.3057 10.8412 24.831 11.3239 24.831 11.9272C24.831 12.4401 25.187 12.8926 25.6617 12.9831V14.22C25.0683 14.22 24.5937 14.4312 24.5937 14.4312C26.077 14.9441 26.9077 16.5129 26.9077 18.0816V23.3008C26.9967 23.3611 27.0263 23.4215 27.0857 23.4818C27.2933 22.7879 27.9757 21.9734 28.658 21.5812V17.5386C28.658 16.0905 27.6197 14.5217 26.166 14.22V12.9831M32.0697 12.9831C32.5443 12.8926 32.9003 12.4401 32.9003 11.9272C32.9003 11.3239 32.4257 10.8412 31.8323 10.8412C31.239 10.8412 30.7643 11.3239 30.7643 11.9272C30.7643 12.4401 31.1203 12.8926 31.595 12.9831V14.2502C30.1413 14.5519 29.103 16.1207 29.103 17.5688V21.6114C29.7853 22.0035 30.4677 22.8181 30.6753 23.512C30.7347 23.4516 30.794 23.3913 30.8533 23.331V18.1118C30.8533 16.5732 31.684 14.9743 33.1673 14.4614C33.1673 14.4614 32.6927 14.2502 32.0697 14.2502V12.9831Z" fill="#E30421"/>
<path d="M63.902 7.64321H68.1443V11.7461H63.902V7.64321ZM57.9093 14.2501V13.4054H61.944V18.9564H63.902V13.4054H68.1146V14.1898H70.1023V5.95376H63.8723V2.69556H61.9143V5.95376H55.981V14.2501H57.9093ZM61.944 11.7461H57.9093V7.64321H61.944V11.7461ZM126.469 2.69556V5.5314H119.883V7.28118H123.947C123.888 12.2288 123.947 15.306 119.646 17.267C120.269 17.7799 120.684 18.2625 121.129 18.8358C123.087 17.4782 125.253 16.2714 125.668 10.9919H131.216C131.216 12.983 131.067 14.5518 130.978 15.5474C130.889 16.6033 129.91 16.4524 128.041 16.5429C128.427 17.2368 128.724 17.9005 128.872 18.6547C130.415 18.3832 131.72 18.2927 132.195 17.9005C132.729 17.448 132.907 16.6938 132.996 15.0647C133.114 13.2847 133.233 11.1126 133.322 9.21197H125.816L125.876 7.28118H135.161V5.56157H128.486V2.75589L126.469 2.69556ZM171.711 8.75944L172.69 7.31135C174.588 8.33708 176.784 9.39298 178 10.2075C178 10.2075 177.229 11.1729 176.754 11.7763C175.36 10.6902 172.957 9.42315 171.711 8.75944ZM175.805 11.8366V13.5261H171.473V16.3619H177.703V18.1117H163.256V16.3619H169.308V13.5261H165.184V11.8366H175.805ZM164.146 11.9271C163.879 11.4746 163.404 10.8109 163.018 10.298C164.383 9.75501 166.875 8.48793 168.151 7.19068L169.426 8.54826C168.714 9.30248 165.777 11.1428 164.146 11.9271ZM169.426 2.78606H171.444V4.59618H177.407V8.30691H175.508V6.22528H165.659V8.33708L163.79 8.36725V4.59618H169.456L169.426 2.78606ZM87.131 10.8109H88.1693V9.36281H85.2916V7.61304H88.7033V6.19511H80.367V7.61304H83.571V9.36281H80.723V10.7807H83.571V13.2244H80.0703V14.7328H88.8813V13.2244H85.2916V10.8109H86.9826L85.8553 11.535C86.3003 11.9875 86.8343 12.7115 87.1606 13.1641L88.3176 12.4098C87.9616 11.8668 87.3683 11.1126 87.131 10.8109ZM79.3583 18.6849V17.3575H89.623V18.6547H91.492V3.44977H77.519V18.7151H79.3583V18.6849ZM89.5933 15.8491H79.3286V5.01854H89.5933V15.8491ZM107.838 9.12147C107.275 9.99636 106.948 10.5997 106.414 11.2936H104.872L105.584 10.9618C105.287 10.4489 104.545 9.45332 104.249 9.12147H107.838ZM108.076 9.0913H110.775V15.9999C110.746 16.6636 110.508 16.8748 109.648 16.8748H108.906C109.292 17.629 109.559 18.1419 109.767 18.8056C111.102 18.6246 111.636 18.4134 111.992 18.1419C112.377 17.8704 112.615 17.629 112.615 16.5731V7.5527H106.978V6.28562H113.831V4.62635H106.978V2.69556H105.05V4.65652H98.1373V6.31579H105.05L105.02 7.58287H99.4426V18.7754H101.252V9.12147H104.1L102.765 9.72484C103.121 10.2075 103.507 10.8411 103.804 11.3238H102.113V12.7115H105.079V13.9484H101.638V15.487H105.079V18.3531H106.8V15.487H110.241V13.9484H106.8V12.7115H109.945V11.3238H108.165C108.461 10.9919 109.173 10.117 109.381 9.84551L108.076 9.0913ZM145.782 7.03983L144.388 7.28118C144.625 8.21641 144.744 8.97062 144.862 9.60416L146.227 9.27231C146.138 8.75944 145.871 7.58287 145.782 7.03983ZM146.613 10.0265H144.002V6.5873H146.613V10.0265ZM147.918 17.81C148.482 18.0815 149.016 18.4737 149.49 18.7754C150.677 17.5083 151.567 15.6681 151.508 10.6299V10.1472H152.991L152.872 16.724C152.843 17.9005 153.021 18.3229 154.148 18.3531H155.602C156.136 18.3229 156.492 17.5687 156.907 15.9094C156.432 15.6681 155.839 15.306 155.453 14.9742C155.305 15.6982 155.216 16.3921 155.068 16.5429C154.949 16.6334 154.86 16.6033 154.771 16.6033C154.623 16.6033 154.623 16.5128 154.623 16.2413C154.623 14.4613 154.771 8.54826 154.771 8.54826H149.876V12.0478C149.876 14.7027 149.194 16.7843 147.918 17.81ZM145.752 12.1082L144.299 12.2892C144.506 13.1641 144.655 14.4915 144.744 15.0948L146.197 14.7328C146.108 14.0389 145.841 12.621 145.752 12.1082ZM141.243 9.99636V11.6556H142.489V12.1383C142.43 14.4311 142.044 16.2714 141.184 17.4782C141.629 17.81 142.163 18.3531 142.637 18.8358C143.616 17.3273 144.032 15.7586 144.032 11.6556H146.642V16.0301C146.642 16.5731 146.346 16.5731 144.833 16.5429C145.159 17.1463 145.307 17.6592 145.426 18.3832C147.532 18.172 148.215 17.6592 148.215 16.8748V5.13921H146.049C146.168 4.59618 146.405 3.60061 146.524 3.20842C146.168 3.11792 144.951 2.90674 144.773 2.8464C144.714 3.38943 144.595 4.29449 144.417 5.13921H142.489V10.0265H141.243V9.99636ZM153.317 5.41073V2.72573H151.419V5.41073H148.63V7.07H156.403V5.41073H153.317ZM63.9613 30.33H62.8933V22.9387H63.9613V26.1667H67.4026V22.9387H68.5003V30.33H67.4026V26.8304H63.9613V30.33ZM70.7253 22.9387H69.6276V30.33H70.7253V22.9387ZM72.5646 25.141L77.1926 30.2998H77.4596V22.9387H76.807V28.1578L72.1493 22.9387H71.8823V30.2998H72.5943V25.141H72.5646ZM62.122 29.2137C61.4693 29.5456 60.9946 29.7266 60.2826 29.7266C56.2183 29.7266 56.5446 23.4817 59.8673 23.4817C61.1726 23.4817 61.7363 23.7231 62.1516 23.8739V23.0594C61.5286 22.9387 60.876 22.818 59.808 22.818C54.6163 22.818 54.9426 30.3903 59.7783 30.3903C60.7276 30.3903 61.5583 30.2093 62.1516 30.0283V29.2137M82.236 30.33H83.5116L81.2866 22.8783H80.1296L77.9343 30.33H78.7946L79.4473 28.0372H81.613L82.236 30.33ZM80.545 24.1756L81.4646 27.3433H79.6253L80.545 24.1756ZM129.999 25.1712L134.657 30.33H134.924V22.9387H134.271V28.188L129.614 22.9387H129.347V30.33H130.029V25.1712H129.999ZM112.793 26.8304H116.234V30.33H117.302V22.9085H116.234V26.1366H112.793V22.9085H111.725V30.33H112.793V26.8304ZM104.605 22.8783V27.7958C104.605 28.8819 103.685 29.6361 102.854 29.6361C101.875 29.6361 100.896 28.9422 100.896 27.7958V22.8783H99.7986V27.7355C99.7986 29.0629 100.896 30.33 102.528 30.33C104.486 30.33 105.257 28.7914 105.257 27.7053V22.8783H104.605ZM109.055 23.6627H111.25V22.999H105.791V23.6627H107.987V30.33H109.084V23.6627H109.055ZM119.319 29.5758V26.7399H122.909V26.0762H119.319V23.6326H122.909V22.9387H118.251V30.2395H122.909V29.5456H119.319V29.5758ZM87.1903 30.1188C91.1656 31.5066 92.3523 28.188 90.5426 26.8003C89.8603 26.2572 89.3263 25.9254 88.7033 25.503C87.398 24.6583 88.0803 22.7577 90.9876 23.9644V23.0895C86.7453 21.8828 86.4486 25.4125 87.8133 26.3477C88.377 26.7399 89.2966 27.3433 89.8306 27.7053C91.1063 28.5802 89.6526 30.8127 87.1903 29.1232V30.1188ZM91.7886 26.5891C91.7886 28.6707 93.45 30.3903 95.4673 30.3903C97.4846 30.3903 99.146 28.7009 99.146 26.5891C99.146 24.4773 97.5143 22.818 95.4673 22.818C93.4203 22.818 91.7886 24.5074 91.7886 26.5891ZM92.9456 26.5891C92.9456 24.8695 94.073 23.4515 95.4673 23.4515C96.8616 23.4515 97.989 24.8695 97.989 26.5891C97.989 28.3087 96.8616 29.7266 95.4673 29.7266C94.073 29.7266 92.9456 28.3389 92.9456 26.5891ZM126.914 26.6796C127.715 26.4684 128.457 26.1667 128.457 24.8091C128.457 23.4515 127.27 22.9689 126.261 22.9689H123.74V30.3602H124.837V26.8003H125.787L127.596 30.3602H128.753L126.914 26.6796ZM124.837 26.1667V23.6326H126.024C126.706 23.6326 127.27 24.2058 127.27 24.8996C127.27 25.5935 126.706 26.1667 126.024 26.1667H124.837ZM168.566 29.5758V26.7399H172.156V26.0762H168.566V23.6627H172.156V22.999H167.498V30.2998H172.156V29.6059H168.566V29.5758ZM154.237 29.5758V22.9689H153.139V30.2696H157.797V29.5758H154.237ZM173.224 30.1188C177.199 31.5367 178.386 28.188 176.576 26.8003C175.894 26.2572 175.36 25.9254 174.737 25.503C173.431 24.6583 174.114 22.7577 177.021 23.9644V23.0895C172.779 21.8828 172.482 25.3823 173.847 26.3477C174.41 26.7399 175.36 27.3433 175.864 27.7053C177.14 28.55 175.686 30.8127 173.224 29.1232V30.1188ZM146.168 22.9085H145.1V30.2998H146.168V22.9085ZM159.903 22.9085H158.806V30.2998H159.903V22.9085ZM161.565 25.141L166.193 30.33H166.46V22.9387H165.807V28.1578L161.149 22.9387H160.853V30.33H161.535V25.141H161.565ZM142.815 30.33H144.091L141.866 22.8783H140.709L138.514 30.33H139.374L140.027 28.0372H142.192L142.815 30.33ZM141.124 24.1756L142.044 27.3433H140.205L141.124 24.1756ZM150.321 26.6796C151.122 26.4382 151.864 26.1667 151.864 24.8091C151.864 23.4515 150.677 22.9689 149.668 22.9689H147.147V30.3602H148.244V26.8003H149.194L151.003 30.3602H152.16L150.321 26.6796ZM148.244 23.6326H149.431C150.113 23.6326 150.677 24.2058 150.677 24.8996C150.677 25.5935 150.113 26.1667 149.431 26.1667H148.244V23.6326Z" fill="#00234E"/>
</g>
<defs>
<clipPath id="clip0_713_272">
<rect width="178" height="34" fill="white" transform="translate(0 0.251953)"/>
</clipPath>
</defs>
</svg>
