<svg width="82" height="82" viewBox="0 0 82 82" fill="none" xmlns="http://www.w3.org/2000/svg">
<path d="M82 0H0V82H82V0Z" fill="#D72027"/>
<path fill-rule="evenodd" clip-rule="evenodd" d="M44.9785 21.6642C44.7955 21.8473 44.1488 22.8641 44.1488 24.06C44.1488 24.3366 44.1488 31.154 44.1488 31.4306C44.1488 31.9838 43.8722 32.72 43.5956 32.9966C43.4125 33.1797 42.3061 34.1926 42.123 34.2861H42.7697C43.0463 34.103 45.259 32.1668 45.4421 31.8903C45.7187 31.5202 46.455 30.6904 46.455 29.4009C46.455 29.0309 46.455 22.5836 46.455 22.2135C46.455 21.2006 46.9147 20.554 47.1913 20.2774C47.4679 20.0008 48.2976 19.2645 48.4807 19.171L47.834 19.0775C47.6509 19.2684 45.2551 21.4772 44.9785 21.6642Z" fill="white"/>
<path fill-rule="evenodd" clip-rule="evenodd" d="M39.5396 48.5716L42.212 50.9674H44.0546C45.8972 50.9674 47.5568 50.1376 48.6631 49.0313C49.7695 47.9249 50.1357 46.4524 50.1357 45.0694C50.1357 44.0565 50.1357 41.3841 50.1357 41.1971C50.1357 39.9077 49.3994 39.1714 49.1228 38.9844C49.0293 38.8013 48.1995 38.0612 48.1995 38.0612V41.0102C48.1995 41.0102 49.1228 41.9334 49.2124 42.1165C50.0422 42.9463 50.0422 44.5123 47.5529 47.0016C47.0932 47.3717 45.8037 48.5677 44.0507 48.5677C43.8715 48.5716 39.5396 48.5716 39.5396 48.5716Z" fill="white"/>
<path fill-rule="evenodd" clip-rule="evenodd" d="M47.0072 32.8137C46.7306 33.0903 46.454 33.9201 46.454 34.5629C46.454 34.933 46.454 36.0354 46.454 36.0354C46.454 36.0354 47.6539 36.0354 47.9266 36.0354C48.4798 36.0354 49.216 35.4823 49.3991 35.2057V33.8266C49.3991 33.8266 49.7692 34.3798 50.2289 34.6564C50.3224 34.4733 51.7015 32.8137 52.8078 32.8137C54.7439 32.8137 54.2804 35.1161 53.5441 35.9458C53.2675 36.1289 52.1611 37.1418 51.7949 37.5119C50.9652 38.3417 49.3991 37.9716 49.3991 35.7627C49.3991 35.7627 47.7396 37.3288 47.5565 37.5119C47.2799 37.695 46.4501 38.6182 46.4501 38.6182C46.4501 38.6182 46.4501 42.0269 46.4501 42.397C46.4501 44.2396 45.8035 44.8863 45.3438 45.4395C45.1607 45.6226 43.0415 47.5587 42.7649 47.7418H42.1182C42.1182 47.7418 43.318 46.6355 43.5907 46.4524C43.8673 46.0823 44.1439 45.5291 44.1439 44.6097C44.1439 44.3331 44.1439 38.5286 44.1439 38.5286C44.1439 38.5286 35.1138 38.5286 34.7438 38.5286C31.4247 38.5286 30.7819 34.933 30.6884 33.9201C30.6884 33.6435 30.6884 30.788 30.6884 30.3244C30.6884 29.6778 30.3183 28.6649 29.7651 28.3883H30.6884C30.7819 28.3883 31.3351 28.6649 31.3351 30.8776C31.3351 30.8776 31.3351 33.4565 31.3351 33.6435C31.3351 34.7499 32.1648 36.0393 33.5478 36.0393C33.7309 36.0393 44.1439 36.0393 44.1439 36.0393C44.1439 35.7627 44.4205 34.6564 44.9737 34.1032C45.2503 33.7331 47.5526 31.7074 47.8292 31.4308H48.4759C48.3863 31.5243 47.2799 32.5372 47.0072 32.8137ZM50.5055 35.0265C50.5055 35.0265 51.1522 35.8562 51.4288 36.0393C52.6286 36.9626 53.1779 35.9458 52.352 34.933C52.0754 34.4733 50.8756 34.6564 50.5055 35.0265Z" fill="white"/>
<path fill-rule="evenodd" clip-rule="evenodd" d="M39.0798 41.8438C39.0798 42.397 37.4203 43.78 37.3307 43.8696C37.2372 43.3164 36.871 42.6697 35.5815 41.4737L37.4242 39.6311C38.6201 40.831 39.0798 41.1075 39.0798 41.8438Z" fill="white"/>
<path fill-rule="evenodd" clip-rule="evenodd" d="M42.2117 21.2005C42.5818 21.5706 43.4115 22.5835 42.8584 23.0432C42.4883 23.4132 41.8455 24.1495 41.8455 24.1495C41.8455 23.8729 41.1988 23.3197 41.1988 23.3197C41.1988 23.3197 41.1988 25.0689 41.1988 25.2559C41.1988 26.0856 40.9222 26.2687 40.9222 26.2687C40.9222 26.2687 42.3948 27.7413 42.3948 29.5878C42.3948 30.4176 42.3948 31.2474 42.3948 31.4305C42.3948 31.8005 42.2117 32.1667 42.0247 32.4433C41.8416 32.5368 40.5521 33.9159 40.2755 34.1029C39.9055 34.473 39.5393 34.4729 39.1692 34.4729C38.9861 34.4729 34.3776 34.4729 34.1945 34.4729C33.4582 34.4729 32.6284 33.9198 32.6284 33.2731C32.6284 33.09 32.6284 31.4305 32.6284 31.4305C32.905 31.7071 33.1816 32.0771 33.7348 32.0771C34.288 32.0771 34.7476 31.6174 34.9346 31.524C35.0281 31.3409 38.7134 27.5621 38.7134 27.5621C38.7134 27.5621 36.9643 25.9961 35.8579 25.2598C35.3047 24.8897 34.5684 25.3533 34.475 25.813C34.1984 27.379 34.475 29.5917 34.475 29.5917C34.475 29.5917 33.3686 28.4854 33.092 28.2088C32.5388 27.6556 32.5388 26.4596 33.2751 25.7195C33.3686 25.626 34.3815 24.5196 35.6709 24.5196C35.854 24.5196 37.42 24.5196 37.607 24.5196C38.99 24.5196 40.4625 25.8091 40.4625 25.8091C40.4625 25.8091 40.6456 25.626 40.6456 25.3494C40.6456 24.7027 40.6456 22.8601 40.6456 22.8601C39.6328 21.8472 39.4458 20.8343 39.999 20.2812C40.8287 19.4514 41.1988 19.0813 41.1988 19.0813C41.1988 19.0813 41.1988 20.1877 42.2117 21.2005ZM35.9475 31.2474C35.4878 31.8005 35.3943 31.894 34.9346 32.1706C34.9346 32.1706 40.3729 32.1706 40.556 32.1706C42.0286 32.1706 41.7559 31.2474 41.4793 30.7877C40.9261 29.7748 39.177 27.9322 39.177 27.9322C39.177 27.9322 36.041 31.1539 35.9475 31.2474Z" fill="white"/>
<path fill-rule="evenodd" clip-rule="evenodd" d="M29.591 36.4053H28.5781C28.5781 36.4053 29.591 36.9585 29.591 38.3414C29.591 38.7115 29.591 42.5799 29.591 42.8564C29.591 45.8054 31.9868 48.4778 34.9358 48.4778C35.489 48.4778 37.055 48.4778 37.4251 48.4778C38.8977 48.4778 39.3612 48.1078 40.2806 47.278C40.5572 47.0014 41.0169 46.5417 41.2039 46.3547C41.6636 45.8015 42.2167 45.3419 42.2167 43.8654C42.2167 43.4953 42.2167 42.576 42.2167 42.3929C42.2167 41.1034 41.4805 40.5502 41.1104 40.1801C40.9273 39.997 40.2806 39.3504 40.2806 39.3504V42.3929C40.2806 42.3929 40.9273 43.0395 41.2039 43.3161C42.4933 44.2394 41.4805 45.9885 40.2806 45.9885C40.004 45.9885 35.2124 45.9885 34.8423 45.9885C32.9062 46.082 30.2338 44.329 30.2338 41.38C30.2338 40.9203 30.2338 39.1673 30.2338 38.8907C30.2338 36.4053 29.591 36.4053 29.591 36.4053Z" fill="white"/>
<path fill-rule="evenodd" clip-rule="evenodd" d="M35.3943 41.8438C35.3943 42.397 33.7347 43.78 33.7347 43.8696C33.5516 43.3164 33.1815 42.6697 31.8921 41.4737L33.7347 39.6311C34.9346 40.831 35.3943 41.1075 35.3943 41.8438Z" fill="white"/>
<path fill-rule="evenodd" clip-rule="evenodd" d="M16.5941 61.8399C16.3176 61.8399 14.0152 61.8399 13.7387 61.8399C12.8154 61.8399 12.9089 61.1036 12.8154 60.4569V56.312C12.8154 56.312 13.4621 56.312 14.1983 56.312C14.9346 56.312 15.9475 56.2185 16.8707 56.7717C16.8707 56.7717 16.2241 55.0225 14.1983 55.0225H12.8154C12.8154 55.0225 12.8154 54.8394 12.8154 54.2863V53.7331C12.8154 53.7331 12.8154 52.6267 12.5388 52.2605C12.5388 52.2605 14.2879 52.2605 14.4749 52.2605C16.041 52.2605 17.3304 52.2605 18.7134 53.0903C18.7134 53.0903 18.4368 50.9711 15.2112 50.9711C13.3686 50.9711 9.31321 50.9711 9.03662 50.9711C9.03662 50.9711 10.143 51.8943 10.0495 53.737L10.143 61.2945C10.143 63.1371 10.8793 63.2306 10.8793 63.2306C10.9728 63.2306 11.3389 63.2306 12.9985 63.2306C13.2751 63.2306 13.6452 63.2306 13.9217 63.2306C14.845 63.2306 16.041 63.2306 16.9642 63.2306C18.3472 63.2306 18.9004 62.2178 18.9004 61.6646V60.9283C18.9004 60.9205 18.4368 61.8399 16.5941 61.8399Z" fill="white"/>
<path fill-rule="evenodd" clip-rule="evenodd" d="M32.9042 61.1973V55.946C32.9042 53.9202 31.2447 53.3671 29.9552 53.3671C28.3892 53.3671 27.836 54.75 27.6529 55.2097C27.2828 53.9202 25.9934 53.3671 24.9805 53.3671C22.9548 53.3671 22.4912 55.2097 22.4912 55.2097C22.4912 55.2097 22.3977 53.4606 20.8317 53.4606H19.2656C19.2656 53.4606 20.1889 53.8306 20.1889 55.3967V61.2012C20.1889 63.1373 20.9252 63.2269 20.9252 63.2269H23.5041C23.4106 63.1334 22.4912 62.4906 22.4912 61.2012V56.0395C22.5847 55.7629 22.9509 55.0266 24.0573 55.0266C24.7039 55.0266 25.3467 55.6733 25.3467 56.4096V61.2012C25.3467 63.1373 26.083 63.1373 26.083 63.1373H28.6619C28.6619 63.1373 27.7386 62.4906 27.7386 61.2012V56.0395C27.8321 55.7629 28.1087 55.0266 29.1216 55.0266C29.8579 55.0266 30.5045 55.6733 30.5045 56.4096C30.5045 56.4096 30.5045 60.8311 30.5045 61.2012C30.5045 63.2269 31.3343 63.1373 31.3343 63.1373C32.6238 63.1373 33.9132 63.1373 33.9132 63.1373C33.9132 63.1373 32.9042 62.4867 32.9042 61.1973Z" fill="white"/>
<path fill-rule="evenodd" clip-rule="evenodd" d="M37.4199 61.1972C37.4199 62.4866 38.4328 63.1333 38.4328 63.1333C38.4328 63.1333 37.1433 63.1333 35.8539 63.1333C35.8539 63.1333 35.0241 63.2268 35.0241 61.1972V55.3927C35.0241 53.8266 34.1943 53.4565 34.1943 53.4565H35.7604C36.3136 53.4565 37.4199 53.4565 37.4199 55.5758V61.1972Z" fill="white"/>
<path fill-rule="evenodd" clip-rule="evenodd" d="M45.3474 54.1929C45.3474 54.1929 45.1643 53.4567 44.058 53.4567C42.3984 53.4567 42.0322 55.3928 42.0322 55.3928C41.9387 53.8267 41.479 53.3671 40.3727 53.3671H38.8066C38.8066 53.3671 39.7299 53.7371 39.7299 55.3928V61.1973C39.7299 63.1334 40.4662 63.1334 40.4662 63.1334H43.0451C42.9516 63.1334 42.0322 62.4867 42.0322 61.1973V56.4057C42.1257 55.946 42.4023 55.6694 42.6789 55.3928C43.5087 54.8396 44.7046 55.0227 45.3513 55.7629C45.3474 55.759 45.3474 54.7461 45.3474 54.1929Z" fill="white"/>
<path fill-rule="evenodd" clip-rule="evenodd" d="M57.4208 54.469C58.2506 54.469 58.8933 54.9287 58.8933 54.9287V53.4561H56.7741V51.1538C56.7741 51.1538 56.2209 52.1667 55.025 53.0899C54.2887 53.7366 52.7227 54.4729 52.7227 54.4729H54.3822V61.2902C54.3822 63.1329 55.212 63.1329 55.212 63.1329C56.5949 63.1329 57.7909 63.1329 57.7909 63.1329C57.7909 63.1329 56.778 62.4862 56.778 61.2902V54.4729C57.4208 54.469 56.9572 54.469 57.4208 54.469Z" fill="white"/>
<path fill-rule="evenodd" clip-rule="evenodd" d="M65.2505 57.4185C63.7779 58.9846 62.6716 58.708 61.7483 59.8143C61.7483 59.8143 61.8418 61.3804 63.0378 61.8401C63.4079 62.0232 65.0635 62.6698 66.0803 60.8272V62.3932C66.0803 62.3932 65.4336 63.223 63.3144 63.223C60.7355 63.223 58.9824 61.1973 58.9824 58.5249C58.9824 55.8525 60.455 53.3632 63.1274 53.3632C65.7102 53.3632 67.0931 55.4824 65.2505 57.4185ZM63.6844 56.8653C64.0545 56.0356 64.4207 54.0098 62.9482 54.0994C61.2886 54.2825 61.5652 58.7976 61.5652 58.7976C62.1184 58.1548 63.0378 58.0613 63.6844 56.8653Z" fill="white"/>
<path fill-rule="evenodd" clip-rule="evenodd" d="M36.2243 52.627C36.8709 52.627 37.4241 52.0738 37.4241 51.4272C37.4241 50.7805 36.8709 50.2273 36.2243 50.2273C35.5776 50.2273 35.0244 50.7805 35.0244 51.4272C35.0244 52.0738 35.5776 52.627 36.2243 52.627Z" fill="white"/>
<path fill-rule="evenodd" clip-rule="evenodd" d="M48.0207 62.0271C47.4675 62.0271 47.0078 61.4739 47.0078 60.8272C47.0078 58.4314 49.0335 58.0613 49.5867 57.4185V61.4739C49.3101 61.7505 49.127 62.0271 48.0207 62.0271ZM49.5867 56.4953C48.94 57.5081 44.3354 57.6912 45.0717 61.3804C45.3483 62.7633 46.2715 63.223 47.4675 63.223C48.6673 63.223 49.3101 62.5763 49.5867 62.0232C49.7698 63.1295 50.323 63.1295 50.323 63.1295C51.7059 63.1295 52.9019 63.1295 52.9019 63.1295C52.9019 63.1295 51.889 62.4828 51.889 61.1934V55.759C51.889 54.4695 50.4165 53.3632 48.94 53.3632C47.4636 53.3632 46.4507 54.0994 46.4507 54.0994C46.4507 54.5591 46.4507 55.8486 46.4507 55.8486C46.4507 55.8486 47.0039 54.4656 48.3869 54.4656C49.6763 54.4656 49.7698 55.1123 49.7698 55.4785C49.7698 55.4824 49.8633 55.8525 49.5867 56.4953Z" fill="white"/>
<path fill-rule="evenodd" clip-rule="evenodd" d="M70.9645 60.5506C70.9645 61.1973 70.3179 62.1166 69.0284 62.1166C67.6455 62.1166 67.1858 60.7337 67.1858 60.7337V62.4828C67.1858 62.4828 68.109 63.2191 69.5816 63.2191C71.3307 63.2191 73.1773 61.8362 73.0838 59.9935C73.0838 59.3469 72.9007 58.7937 72.5306 58.2444C71.8839 57.5081 70.7814 56.9549 69.9517 56.4018C69.492 56.1252 69.2154 55.572 69.2154 55.3889C69.2154 55.0188 69.3985 54.376 70.688 54.376C71.9774 54.376 72.5306 55.759 72.5306 55.759V54.0994C72.5306 54.0994 71.5177 53.3632 70.0413 53.3632C68.4752 53.3632 67.0923 54.376 67.0923 55.6655C67.1858 56.8653 67.6455 57.6016 68.5648 58.2444C68.9349 58.521 69.3946 58.7976 69.9478 59.0742C70.688 59.5377 70.9645 59.9974 70.9645 60.5506Z" fill="white"/>
</svg>
