<svg width="108" height="37" viewBox="0 0 108 37" fill="none" xmlns="http://www.w3.org/2000/svg">
<g clip-path="url(#clip0_713_148)">
<path d="M60.5343 3.34177L60.4053 3.22865L59.0866 1.91833L57.6436 3.34649L59.0866 4.77464L60.5343 3.34177Z" fill="#C3922D"/>
<path d="M63.4294 3.34649L63.3004 3.22865L61.9817 1.91833L60.5435 3.34649L61.9817 4.77464L63.4294 3.34649Z" fill="#C3922D"/>
<path d="M43.7629 3.05896C43.8059 3.37004 44.0304 3.48788 44.2455 3.59628C44.5035 3.72826 44.8093 3.85552 44.8093 4.31743V15.1912H57.0556V15.4127C57.0413 15.4646 57.0413 15.5541 57.0413 15.7049C57.0413 16.5675 57.3519 17.1614 57.9013 17.3782C57.9013 17.3782 58.1833 17.5337 58.5751 17.5337C58.8761 17.5337 59.1723 17.4442 59.4495 17.2698L59.6597 17.1378L59.459 16.9823C59.1007 16.7183 58.9812 15.9312 58.986 15.3326V15.1865H63.5491V5.19883C63.5491 5.19883 62.9375 6.53272 60.7396 8.10227C60.7396 8.10227 60.8208 8.5359 61.203 8.74329C61.7716 9.05437 61.7286 9.3466 61.7286 9.3466V13.3577H59.0051C59.0051 13.2964 59.0051 13.2257 59.0051 13.1456V12.9618C58.9955 11.9484 58.6802 9.5917 55.9328 9.5917C55.8898 9.5917 55.8324 9.5917 55.7942 9.5917C54.9485 9.61526 54.2031 9.63412 53.5628 9.63412H53.4099C51.7806 9.63412 50.9253 9.45501 50.7198 9.07323L50.6243 8.90354L50.4714 9.00724C50.1703 9.19577 50.0031 9.55399 50.0031 9.99705C50.0079 10.6428 50.3662 11.3592 51.0208 11.4063C51.4318 11.4252 52.0195 11.4346 52.612 11.4346C53.6727 11.4346 54.7287 11.4158 54.7287 11.4158C57.0031 11.4299 57.0365 12.3773 57.0556 12.8345V13.353H46.6632V0.0706787C46.6632 0.0706787 45.4352 1.66851 43.7485 2.89399V2.95526C43.7533 2.97883 43.7581 3.00711 43.7581 3.05896" fill="#C3922D"/>
<path d="M36.7006 16.7042C36.7006 16.7042 36.5047 18.2973 39.8733 18.2973C42.6112 18.2973 42.7019 16.6193 42.7019 16.6005C42.7019 16.6005 42.7067 10.4165 42.7067 10.3553C42.7067 10.0018 42.6064 8.83756 41.4835 8.82342H31.9273V8.14469C31.9273 7.99387 32.0706 7.93259 32.1805 7.86189C32.7395 7.52253 32.8351 7.21616 32.6535 7.10775C31.5259 6.47145 30.4174 5.09985 30.4174 5.09985V10.5438H39.988C39.988 10.5438 40.031 10.5438 40.0835 10.5438C40.3845 10.5485 40.7811 10.6286 40.7859 11.2367V15.5965C40.7859 15.6342 40.7764 16.5392 39.8303 16.5392C38.3156 16.5392 38.416 15.7804 38.416 15.7804V13.3294H30.4126V15.1959H36.6911V16.7042H36.7006Z" fill="#C3922D"/>
<path d="M76.56 4.23266C76.5839 3.77075 76.8276 3.64349 77.0904 3.51151C77.3054 3.39839 77.53 3.28527 77.573 2.96476V2.81393C77.573 2.63482 77.444 2.57826 77.2767 2.50756C77.1143 2.43215 76.7941 2.2389 76.2112 1.74871C75.2317 0.914442 74.9928 0.527946 74.988 0.523232L74.6631 0.00476074V15.196H76.5648C76.5648 15.196 76.5313 4.58616 76.5648 4.23737" fill="#C3922D"/>
<path d="M70.0905 17.1567L68.7956 18.4435L67.4911 17.1567L68.7956 15.87L70.0905 17.1567ZM65.6611 17.1567L68.7956 20.2487L71.9157 17.1567L69.9758 15.2384L72.3123 12.8016V0.00476074C72.3123 0.00476074 71.4379 1.9561 69.9184 2.93177V3.03546C69.9519 3.3324 70.1335 3.45024 70.3055 3.55865C70.5157 3.69062 70.7116 3.82259 70.7307 4.29393C70.7546 4.64744 70.7307 12.0003 70.7307 12.0003L68.7956 13.9893L66.8509 12.0003C66.8509 11.8825 66.827 4.62858 66.8509 4.29393C66.87 3.81788 67.0659 3.69062 67.2761 3.55393C67.4481 3.44081 67.6249 3.32769 67.6584 3.02132V2.87521C66.2823 1.9231 65.2598 0.00476074 65.2598 0.00476074V12.976L67.5963 15.2431L65.6611 17.1567Z" fill="#C3922D"/>
<path d="M60.147 23.8733L60.6009 24.1608C60.73 24.2362 60.7443 24.2928 60.7443 24.3399V28.3086H51.8856L49.8836 30.8114V24.3587L49.8979 24.2315C49.8979 24.2315 49.9314 24.1985 50.0031 24.1608L50.4235 23.9015L50.4665 23.878V23.4821H46.0468V23.8733L46.4816 24.1514C46.5437 24.1938 46.5724 24.2173 46.5867 24.2173V36.0762L46.5628 36.2317C46.5437 36.26 46.5102 36.293 46.4816 36.3119L46.042 36.6041V36.9859H50.4618V36.5994L49.9983 36.3119C49.9266 36.2742 49.8932 36.2506 49.8836 36.2506V30.8114L50.3614 30.9575L50.973 30.6087C51.0829 30.5427 51.1833 30.4956 51.2502 30.4767C51.2884 30.4626 51.36 30.4484 51.4986 30.4484H60.73V34.6198L64.0316 31.1272V24.2221C64.0316 24.1702 64.0985 24.1184 64.0985 24.1184L64.5763 23.8827V23.4868H60.1518V23.878L60.147 23.8733Z" fill="#C3922D"/>
<path d="M107.751 28.7658C107.235 27.1491 106.046 25.8199 104.22 24.8207C102.577 23.911 100.245 23.4727 97.0914 23.4727H85.0601V23.8592C85.0601 23.8592 85.5665 24.1891 85.5809 24.1891V25.5937H97.0723C99.3944 25.5937 101.095 25.9 102.128 26.4939C103.766 27.4366 104.569 28.6668 104.574 30.2411C104.574 31.0329 104.359 31.7588 103.934 32.3951C103.513 33.0267 102.868 33.5687 102.018 34.0071C100.904 34.5774 99.2081 34.8649 96.9767 34.8649H90.9849V26.5646H87.7071V36.0904L87.688 36.2318C87.6689 36.2553 87.6307 36.293 87.602 36.3213L87.1959 36.5711L87.1624 36.5947V36.9812H96.9863C98.8784 36.9812 100.364 36.8775 101.406 36.6654C102.835 36.3732 104.096 35.8594 105.166 35.1477C106.261 34.4218 107.039 33.5828 107.489 32.6543C107.823 31.9756 107.99 31.2214 107.99 30.4202C107.99 29.8499 107.909 29.2937 107.742 28.7658" fill="#C3922D"/>
<path d="M70.7208 25.9565L60.0513 36.9576H64.9632V36.4957H64.7912C64.7099 36.4957 64.6335 36.4862 64.5618 36.4721C64.4663 36.4579 64.4137 36.4391 64.3803 36.4202L72.6273 27.9597L70.7208 25.9565Z" fill="#C3922D"/>
<path d="M81.6055 36.5334V37H86.5174L73.5018 23.4727L71.6049 25.4334L73.712 27.6393L75.8908 29.8027H72.2117L70.1953 31.886L70.6301 32.183L71.1079 31.9285C71.1509 31.9096 71.1987 31.8907 71.2417 31.886C71.2704 31.8813 71.3946 31.8766 71.5857 31.8766H77.8785L82.2219 36.458C82.2219 36.458 82.155 36.5381 81.7775 36.5381H81.6103L81.6055 36.5334Z" fill="#C3922D"/>
<path d="M44.04 24.1419L44.4414 23.8779V23.4867H40.0551V23.8779L40.4947 24.156C40.595 24.2267 40.6476 24.288 40.6476 24.3445V36.0714L40.6189 36.2222C40.5807 36.2552 40.5329 36.2977 40.4994 36.3165L40.0503 36.5993V36.9905H44.4366V36.5993L44.0305 36.3165C43.9731 36.2788 43.9397 36.2552 43.9301 36.2552V24.3587L43.9445 24.2314L44.0448 24.1419H44.04Z" fill="#C3922D"/>
<path d="M22.3282 34.3841H22.1514L21.664 34.3935L21.0859 34.7187C20.933 34.813 20.847 34.8413 20.8326 34.8507L11.0136 34.879C8.77264 34.879 7.06685 34.5915 5.94399 34.0259C4.25253 33.1586 3.4307 31.9237 3.42592 30.2504C3.42592 29.4963 3.64571 28.7846 4.08052 28.1294C4.92625 26.8992 6.14467 26.0602 7.89824 25.7397C8.36172 25.6596 8.80609 25.636 9.10233 25.636H14.1576C14.4586 25.6219 14.4108 25.6926 14.4252 25.7256L14.3678 26.0744H14.7883L16.9528 23.4915H10.9132C9.51803 23.4915 8.42862 23.5339 7.67367 23.6234C7.27231 23.6706 6.89484 23.7366 6.52214 23.8261C5.53307 24.0476 4.57267 24.42 3.65527 24.929C2.17883 25.7539 1.11808 26.805 0.51126 28.054C0.167234 28.7657 0 29.5576 0 30.4107C0 32.5883 1.18498 34.3275 3.53104 35.5766C4.587 36.1516 5.78153 36.5475 7.07163 36.7549C8.03681 36.9104 9.36513 36.9906 11.0184 36.9906H20.1494L22.3234 34.3794L22.3282 34.3841Z" fill="#C3922D"/>
<path d="M17.3064 31.146L19.4327 28.5254H5.12219L3.6792 30.6464H16.5849C16.8286 30.67 16.9098 30.7312 16.9194 30.769L16.8668 31.146H17.3112H17.3064Z" fill="#C3922D"/>
<path d="M18.4196 23.4867L16.4224 25.9565L16.8285 26.0979L16.8858 26.1121L17.507 25.801C17.679 25.6879 17.851 25.6313 18.0278 25.6313H25.9356V36.0856L25.9069 36.2317C25.8735 36.2741 25.8353 36.2977 25.8114 36.3071L25.3622 36.5993V36.9858H29.782V36.5946L29.3233 36.3165L29.2134 36.2175C29.2134 36.194 29.2086 36.1516 29.2134 36.1044V25.6266H36.2277C36.4953 25.6596 36.5335 25.7161 36.5287 25.7256V26.0932H36.9205L39.0946 23.4773H18.4196V23.4867Z" fill="#C3922D"/>
</g>
<defs>
<clipPath id="clip0_713_148">
<rect width="108" height="37" fill="white"/>
</clipPath>
</defs>
</svg>
