<svg width="149" height="54" viewBox="0 0 149 54" fill="none" xmlns="http://www.w3.org/2000/svg">
<g clip-path="url(#clip0_713_165)">
<path d="M69.0178 39.2646C69.0178 39.2646 49.6699 42.2087 24.5111 28.7962C24.5111 28.7962 2.47228 16.3656 0 13.9668C0 13.9668 6.61318 17.4026 9.35429 18.8195C9.35429 18.8195 13.8183 18.4918 15.8059 19.6375C17.7935 20.7832 22.8467 22.309 27.3623 19.9102C31.8778 17.5099 44.1877 12.9849 62.8378 23.6172C62.8378 23.6172 41.1054 15.0207 31.07 24.6174C31.07 24.6174 36.0884 33.413 69.0192 39.2646H69.0178Z" fill="url(#paint0_radial_713_165)"/>
<path fill-rule="evenodd" clip-rule="evenodd" d="M106.527 21.0234C104.482 21.0234 103.105 20.9655 101.017 20.6561C100.805 20.6222 100.741 20.5784 100.586 20.5487C100.246 20.4936 99.9289 20.4696 99.6322 20.4202L98.2937 20.1418C98.1168 20.091 98.0402 20.0331 97.8424 19.9893C96.7226 19.7463 95.6153 19.3747 94.6041 18.9001C94.4411 18.828 94.4063 18.7842 94.2503 18.7136C94.1013 18.6401 94.0289 18.6345 93.8812 18.5412L92.6096 17.6455C92.3421 17.4365 92.3198 17.1991 91.9173 17.1921C91.8602 17.4449 91.4855 17.9465 91.3295 18.1824C90.8003 19.0201 90.076 19.8381 89.1581 20.228C88.6414 20.4413 88.867 20.4131 88.204 20.4131C87.7987 20.4131 87.4602 20.0317 87.2346 19.759C86.8808 19.3507 86.5493 18.6698 85.7582 18.3971C84.8236 18.0807 83.9684 18.4974 83.2831 18.9989L82.3276 19.7378C82.1939 19.8664 82.2343 19.8734 82.0741 20.0246C81.2607 20.7705 80.4278 21.9953 80.1158 23.0733L79.9306 23.4943C79.8609 23.6666 79.8874 23.7245 79.8038 23.911C79.7342 24.0848 79.698 24.1342 79.6631 24.3136C79.6144 24.5637 79.6492 24.5284 79.5573 24.7572C79.457 25.0228 79.464 24.914 79.464 25.2658C79.8373 25.1641 79.9877 24.6343 80.1729 24.3475C80.4821 23.8531 80.7732 23.3516 81.1549 22.9136C81.5435 22.47 81.9321 22.0603 82.4767 21.7665C83.2204 21.3497 84.1815 21.1124 84.8682 21.7283C85.1635 21.9939 85.2986 22.374 85.5618 22.6706C86.5438 23.8022 88.3753 22.9419 89.2375 22.066C89.4283 21.8724 89.5411 21.8442 89.7055 21.6224L90.3281 20.8623C90.9507 20.0288 90.8295 19.9215 91.7488 20.4597C91.9814 20.5897 92.221 20.697 92.4967 20.7974L93.2614 21.1209C93.4592 21.1788 93.4662 21.207 93.6375 21.2777C93.7976 21.3511 93.9341 21.3794 94.0748 21.4444C94.859 21.7947 95.7156 22.018 96.529 22.2963L100.968 23.3798C101.337 23.4236 101.591 23.4166 101.946 23.4815C103.655 23.7966 106.915 23.7881 108.5 23.5098C108.938 23.4307 109.461 23.4095 109.893 23.3389C110.162 23.2866 110.282 23.2442 110.537 23.2018L113.775 22.5421C114.328 22.4276 117.034 21.6605 117.447 21.4656L118.295 21.1717C118.456 21.1209 118.479 21.1364 118.619 21.0785L122.543 19.5372C122.749 19.4581 122.869 19.3874 123.089 19.2928L124.685 18.5455C124.948 18.431 125.046 18.2883 125.33 18.2883C125.614 18.2883 125.62 19.3069 126.185 19.6008C127.6 20.3255 129.275 18.5045 129.904 17.4633L130.676 16.1212C130.958 15.5476 131.376 14.8596 131.424 14.1928C131.439 14.0191 131.432 13.8764 131.213 13.9258C131.023 13.9626 130.486 14.9599 130.344 15.1733C130.062 15.6324 129.787 15.9771 129.417 16.3571C128.617 17.1751 126.944 17.3531 126.944 15.7963C126.944 15.4586 127.932 12.0455 126.958 12.9496C126.294 13.5515 125.994 14.9797 125.762 15.8697C125.521 16.7584 125.62 16.5945 124.922 17.0169C124.518 17.2683 124.001 17.5184 123.557 17.7063C122.331 18.2219 121.093 18.667 119.807 18.9975C119.263 19.1402 118.761 19.3479 118.203 19.4411C117.863 19.4991 117.685 19.557 117.374 19.6347L113.938 20.2803C113.583 20.3312 113.413 20.3792 113.054 20.4103C112.75 20.4385 112.467 20.4894 112.162 20.5388C110.424 20.8397 108.332 21.0191 106.527 21.0191V21.0234Z" fill="#241F55"/>
<path fill-rule="evenodd" clip-rule="evenodd" d="M139.994 12.3958C139.994 11.8929 140.019 10.5805 140.199 10.2951C140.427 9.9278 141.402 8.82446 141.713 8.43737C141.83 8.29327 141.823 8.24382 141.929 8.10679L145.074 3.94771C145.429 3.48151 145.689 3.02378 145.808 2.44739C145.913 1.94022 145.863 0.891972 145.863 0.253418C145.459 0.253418 145.582 0.274609 145.412 0.526075L139.855 7.8864C139.742 8.06582 139.693 8.14493 139.591 8.35402L139.304 9.50822C139.033 11.0227 139.359 14.1137 139.168 15.8853C139.105 16.4956 139.417 16.6171 138.822 17.5269C138.533 17.9804 138.192 18.2728 137.796 18.6104C137.654 18.7319 137.569 18.7814 137.4 18.8746C137.038 19.0696 136.906 19.3267 136.462 19.3267C136.333 18.7602 136.136 18.1499 135.788 17.6992C135.71 17.606 135.693 17.606 135.626 17.5043C135.35 17.1186 135.087 16.788 134.613 16.6439C133.78 16.3868 133.123 16.9886 132.669 17.5396C132.195 18.1358 131.656 19.2546 131.452 20.0147C131.304 20.5727 131.232 20.933 131.503 21.4995C131.778 22.0872 132.52 22.4813 133.227 22.4813C133.659 22.4813 135.326 22.0504 134.889 22.761C134.721 23.0408 132.981 24.1328 132.583 24.3744L130.598 25.5794C130.399 25.7151 130.399 25.6939 130.158 25.8027C129.957 25.8888 129.486 26.1248 129.358 26.2816C129.252 26.4115 129.223 26.6136 129.46 26.6136C129.805 26.6136 132.747 25.9383 133 25.8309C133.899 25.4438 133.658 25.5865 134.357 25.02C134.735 24.7191 134.966 24.2826 135.2 23.8729C135.208 23.8587 135.215 23.846 135.222 23.839C135.229 23.8234 135.242 23.8093 135.248 23.8022L135.576 23.0351C135.616 22.8854 135.652 22.7978 135.723 22.641C135.79 22.4757 135.808 22.4107 135.871 22.2454C136.013 21.8781 136.315 21.5857 136.513 21.2621L137.221 20.4018C137.602 20.0076 138.485 18.8944 138.919 18.8944C139.215 18.8944 139.194 19.3041 139.238 19.6064C139.476 21.1632 140.455 21.5871 141.839 21.0771C141.952 21.0333 142.044 20.9909 142.165 20.9203C142.284 20.8553 142.32 20.8411 142.44 20.7677C143.114 20.3877 143.592 19.6361 143.94 18.9551C143.998 18.8252 144.009 18.8181 144.075 18.667C144.259 18.2078 144.463 17.808 144.562 17.3404C144.618 17.0621 144.727 16.8233 144.775 16.5888L145.154 14.2366C145.388 12.5428 145.128 9.34293 145.44 8.08984C145.503 7.82989 145.55 7.52192 145.645 7.26339C145.792 6.80566 146.497 5.40706 146.388 5.06377C146.267 4.69081 145.977 5.21352 145.893 5.33501L145.178 6.61212C144.888 7.34391 144.529 7.98953 144.273 8.72839L144.055 9.53788C143.813 10.3573 143.948 11.5468 143.948 12.4001C143.948 13.1531 143.885 13.6828 143.885 14.4076C143.885 15.4544 143.731 16.0859 143.431 16.983C143.214 17.6272 142.52 18.2078 141.898 18.4028C141.693 18.4678 141.332 18.424 141.084 18.3378C140.427 18.1004 140.332 16.8177 140.207 16.1918C140.03 15.3174 139.994 13.252 139.994 12.3987V12.3958Z" fill="#241F55"/>
<path fill-rule="evenodd" clip-rule="evenodd" d="M89.3421 22.9673C89.0092 22.9673 88.881 23.2103 88.7195 23.4264C88.3169 23.9576 87.5174 24.6103 87.3684 25.2701C87.6108 25.5568 87.7361 25.5215 88.1066 25.6783C88.3169 25.7716 88.5844 25.9581 88.7682 26.0937C89.4827 26.6404 89.5607 26.7902 89.7042 27.399C90.1053 27.3623 90.5998 26.7619 90.8547 26.5034C91.0747 26.2731 91.3213 26.0428 91.5051 25.7928C91.5901 25.6727 91.6764 25.5639 91.8673 25.5498C92.1932 25.5286 92.9467 26.0103 93.1891 26.2321C93.366 26.396 93.6557 26.6475 93.7768 26.8396C94.0095 27.2055 93.9328 27.4852 94.2309 27.3143C94.3493 27.2493 96.1112 25.684 96.1112 25.1471C96.1112 24.3659 94.795 23.6186 94.3145 23.2668C94.1863 23.175 94.1863 23.1453 94.0373 23.0591C93.3674 22.6876 93.1765 23.1891 92.8297 23.5833L92.1375 24.4012C91.7196 24.9536 91.4578 24.3165 91.2182 24.1003C90.8352 23.7641 89.8031 22.9673 89.3448 22.9673H89.3421Z" fill="#241F55"/>
<path fill-rule="evenodd" clip-rule="evenodd" d="M85.4532 10.3941C85.2986 10.3941 83.7568 8.72279 82.9921 8.70019C82.7288 8.69312 82.5199 8.96013 82.3988 9.11694L82.0157 9.58314C82.0157 9.58314 81.9934 9.60434 81.9879 9.60999C81.6898 9.90383 81.0825 10.5636 81.0825 11.0015C81.0825 11.2742 81.6995 11.3321 82.272 11.7347C82.6049 11.9707 83.0715 12.2942 83.2553 12.6799C83.3236 12.831 83.3459 12.9822 83.4183 13.1263C83.779 13.0401 84.2526 12.4948 84.5075 12.2292C84.6844 12.0554 84.8237 11.9212 84.988 11.7489C85.229 11.4903 85.1942 11.3053 85.6315 11.3053C86.0995 11.3053 87.0383 12.1006 87.3503 12.4736C87.5759 12.7392 87.5327 12.8466 87.6664 13.1277C88.0425 13.098 89.3713 11.6697 89.6262 11.2897C90.2014 10.4294 88.5035 9.32603 87.8531 8.93046C87.2709 8.57869 87.1734 8.52925 86.7625 8.98697L85.9212 9.96458C85.8293 10.0847 85.6315 10.3955 85.4546 10.3955L85.4532 10.3941Z" fill="#241F55"/>
<path fill-rule="evenodd" clip-rule="evenodd" d="M125.625 27.399C125.904 27.3722 126.481 26.7393 126.727 26.509L127.28 25.9213C128.073 24.9677 127.658 24.7162 126.925 24.0141C126.609 23.7061 126.389 23.5973 126.022 23.3529C125.688 23.1382 125.407 22.7723 124.921 23.0379C124.843 23.0888 124.27 23.7556 124.177 23.8629C123.879 24.25 123.746 24.4874 123.411 24.6668C122.996 24.4436 122.937 24.1299 122.324 23.7061C120.505 22.4587 120.932 22.8288 119.65 24.1935C119.362 24.5015 119.046 24.8815 119.046 25.27C119.046 25.5497 120.132 25.7433 120.755 26.3889C121.356 26.9992 121.228 27.0854 121.376 27.4004C121.751 27.1927 122.056 26.9413 122.362 26.6333C123.422 25.5582 123.202 25.2559 124.237 25.8379C124.504 25.9891 124.575 26.0527 124.801 26.2392C125.465 26.7845 125.423 26.9724 125.627 27.4004L125.625 27.399Z" fill="#241F55"/>
<path fill-rule="evenodd" clip-rule="evenodd" d="M120.358 10.394C120.132 10.394 120.096 10.2145 119.603 9.76247C119.282 9.46014 118.179 8.68597 117.848 8.69868C117.607 8.70716 117.404 8.97134 117.26 9.13098C116.863 9.56751 115.924 10.579 115.924 11.0014C115.924 11.3179 116.715 11.3603 117.31 11.842C117.877 12.2941 118.04 12.5879 118.323 13.1262C118.619 13.0527 118.685 12.91 118.873 12.7165C119.23 12.3591 119.149 12.5229 119.638 11.9706L119.75 11.842C120.274 11.2684 120.237 11.0382 121.122 11.5623C121.567 11.8208 121.9 12.1217 122.231 12.5032C122.418 12.7179 122.444 12.9397 122.572 13.1841C122.678 13.1177 122.772 13.04 122.884 12.9538C123.379 12.5809 123.893 11.9494 124.323 11.5058C124.517 11.3122 124.694 11.0184 124.624 10.7457C124.474 10.1933 123.703 9.60424 123.234 9.29768L122.5 8.82441C122.486 8.81735 122.444 8.79757 122.423 8.78062C121.877 8.48818 122.125 8.55882 121.191 9.48557L120.81 9.95177C120.589 10.2103 120.536 10.3968 120.356 10.3968L120.358 10.394Z" fill="#241F55"/>
<path fill-rule="evenodd" clip-rule="evenodd" d="M146.941 11.8505C146.941 14.6604 147.33 15.9884 146.941 18.8294C146.883 19.2447 146.798 19.5386 146.735 19.9624C146.571 21.0078 146.269 20.9654 146.64 21.3243C146.81 21.2805 146.834 21.2381 146.962 21.1039C147.179 20.8609 147.373 20.3071 147.535 19.9836C148.341 18.3632 148.561 15.5307 148.561 13.615C148.561 12.8196 148.44 12.2814 148.44 11.486C148.44 10.3445 148.418 10.7161 148.547 9.65511C148.596 9.26096 148.617 9.07448 148.617 8.63088C148.412 8.58709 148.377 8.55177 148.22 8.71564C148.022 8.93038 147.798 9.39093 147.67 9.66924C147.6 9.81899 147.604 9.79073 147.542 9.91364C147.465 10.0577 147.429 10.1778 147.358 10.329C147.252 10.5282 147.239 10.5155 147.167 10.8022C147.097 11.1102 146.943 11.4846 146.943 11.8491L146.941 11.8505Z" fill="#241F55"/>
<path d="M88.7419 46.8312L83.0327 40.0232V46.8312H81.1802V35.8769C81.1802 35.5505 81.1538 35.2751 81.1036 35.0547C81.0521 34.8329 80.9588 34.6605 80.8237 34.5362C80.6886 34.4133 80.5089 34.3215 80.2833 34.2621C80.059 34.2028 79.7651 34.1675 79.4058 34.1548V33.8397H83.0327V39.7887L88.6263 33.8397H89.937L84.7682 39.3578L88.9732 44.4041C89.2824 44.7827 89.5651 45.102 89.8214 45.3634C90.0791 45.6247 90.3298 45.8352 90.5735 45.9991C90.8187 46.163 91.0596 46.2859 91.2978 46.3721C91.5346 46.4568 91.7895 46.5049 92.0597 46.519V46.8312H88.7419Z" fill="#241F55"/>
<path d="M102.862 41.6677C102.862 43.5452 102.492 44.9155 101.754 45.7745C101.014 46.6348 99.8413 47.0657 98.2326 47.0657C96.6239 47.0657 95.4385 46.6405 94.6739 45.7858C93.9092 44.9325 93.5262 43.6102 93.5262 41.8231V35.8769C93.5262 35.5505 93.4997 35.2751 93.4482 35.0547C93.398 34.8329 93.3047 34.6563 93.1682 34.5263C93.0331 34.3963 92.8507 34.3003 92.6194 34.2409C92.3868 34.183 92.0985 34.1548 91.7517 34.1548V33.8397H95.3787V41.9008C95.3787 43.387 95.6349 44.4762 96.1503 45.1684C96.6642 45.8606 97.4735 46.2039 98.5808 46.2039C99.6881 46.2039 100.57 45.8324 101.117 45.0907C101.663 44.3462 101.936 43.2047 101.936 41.6662V33.8397H102.862V41.6662V41.6677Z" fill="#241F55"/>
<path d="M116.788 46.9895H116.094L112.892 37.6768L109.69 46.9895H108.917L105.736 36.0323C105.362 34.7807 104.745 34.1562 103.883 34.1562V33.8412H106.97L109.786 43.3884L112.331 36.0323C112.164 35.4475 111.893 34.9869 111.522 34.6549C111.148 34.3229 110.711 34.1562 110.211 34.1562V33.8412H113.529L116.768 43.4675L119.546 33.8412H120.549L116.788 46.9895Z" fill="#241F55"/>
<path d="M130.213 46.8312L128.516 42.5266H123.519L121.842 46.8312H120.877L125.178 35.9348C125.383 35.4403 125.486 35.0999 125.486 34.9176C125.486 34.4218 124.992 34.1675 124.001 34.1548V33.8397H127.049L131.255 44.5623C131.397 44.9268 131.534 45.2334 131.669 45.4806C131.805 45.7278 131.95 45.9285 132.105 46.0768C132.258 46.2265 132.425 46.3381 132.605 46.4088C132.785 46.4808 132.991 46.5176 133.222 46.5176V46.8298H130.213V46.8312ZM126.028 36.1891L123.848 41.7468H128.206L126.028 36.1891Z" fill="#241F55"/>
<path d="M134.726 46.8312V35.8769C134.726 35.5378 134.7 35.2595 134.65 35.0448C134.598 34.83 134.506 34.6605 134.378 34.5362C134.25 34.4133 134.07 34.3215 133.839 34.2621C133.608 34.2028 133.311 34.1675 132.952 34.1548V33.8397H136.579V46.8312H134.726Z" fill="#241F55"/>
<path d="M148.692 36.8163C148.589 36.3332 148.479 35.9489 148.365 35.6621C148.248 35.3753 148.082 35.155 147.862 34.9967C147.645 34.8399 147.348 34.7396 146.975 34.6944C146.602 34.6492 146.12 34.6266 145.529 34.6266H144.602V46.834H142.752V34.6266H141.824C141.502 34.6266 141.234 34.6294 141.016 34.6351C140.796 34.6421 140.608 34.6563 140.447 34.6746C140.288 34.6944 140.149 34.7212 140.033 34.7537C139.916 34.7862 139.806 34.8286 139.703 34.8795C139.42 35.0236 139.204 35.2355 139.058 35.5166C138.91 35.7963 138.777 36.2286 138.662 36.8177H138.353L138.508 33.8425H148.846L149 36.8177H148.692V36.8163Z" fill="#241F55"/>
<path d="M82.0477 53.1857L81.5616 51.9538H80.1325L79.652 53.1857H79.3762L80.6075 50.0649C80.666 49.9237 80.6952 49.8262 80.6952 49.7753C80.6952 49.6326 80.5532 49.5606 80.2704 49.5564V49.4659H81.1423L82.3457 52.5344C82.3861 52.6389 82.4251 52.7265 82.4641 52.7972C82.5017 52.8678 82.5435 52.9243 82.5881 52.9681C82.6327 53.0119 82.68 53.043 82.7316 53.0642C82.7831 53.0854 82.8416 53.0952 82.9084 53.0952V53.1857H82.0477ZM80.8498 50.1384L80.2258 51.7291H81.4738L80.8498 50.1384Z" fill="#241F55"/>
<path d="M91.1776 53.1857V50.0494C91.1776 49.9519 91.1707 49.8728 91.1568 49.8106C91.1414 49.7485 91.115 49.7019 91.0788 49.6666C91.0411 49.6312 90.9896 49.6044 90.9242 49.5874C90.8573 49.5719 90.7737 49.5606 90.6707 49.5564V49.4659H91.7083V53.1857H91.179H91.1776Z" fill="#241F55"/>
<path d="M102.905 52.6488C103 52.79 103.103 52.8988 103.212 52.9793C103.319 53.057 103.423 53.0966 103.522 53.0966V53.187H102.662L101.518 51.4621H101.181V53.187H100.652V50.0507C100.652 49.9575 100.643 49.8798 100.627 49.8191C100.61 49.7569 100.583 49.7074 100.543 49.6707C100.505 49.6326 100.454 49.6057 100.39 49.5888C100.324 49.5732 100.242 49.5619 100.143 49.5577V49.4673H101.645C102.113 49.4673 102.458 49.5492 102.68 49.7131C102.903 49.8784 103.014 50.1327 103.014 50.476C103.014 50.8489 102.87 51.1159 102.584 51.2756C102.517 51.3137 102.45 51.3434 102.379 51.3632C102.309 51.3829 102.216 51.4027 102.097 51.4211L102.904 52.6488H102.905ZM101.182 51.236H101.453C101.526 51.236 101.589 51.2332 101.641 51.2318C101.692 51.2275 101.737 51.2233 101.772 51.2205C101.806 51.2162 101.841 51.2106 101.873 51.2021C102.267 51.1244 102.464 50.88 102.464 50.4689C102.464 50.1934 102.386 49.9956 102.227 49.8742C102.068 49.7527 101.811 49.6919 101.454 49.6919C101.393 49.6919 101.343 49.6961 101.308 49.7004C101.273 49.7074 101.246 49.7202 101.228 49.7399C101.209 49.7611 101.198 49.7908 101.192 49.8346C101.187 49.8784 101.184 49.9349 101.184 50.0055V51.2374L101.182 51.236Z" fill="#241F55"/>
<path d="M114.686 53.2309H114.487L113.57 50.5651L112.652 53.2309H112.432L111.52 50.0946C111.413 49.7358 111.237 49.5578 110.991 49.5578V49.4674H111.874L112.68 52.1996L113.409 50.0946C113.36 49.9279 113.283 49.7951 113.176 49.699C113.069 49.6044 112.945 49.5564 112.801 49.5564V49.4659H113.751L114.679 52.2222L115.474 49.4659H115.761L114.685 53.2295L114.686 53.2309Z" fill="#241F55"/>
<path d="M126.369 53.1857L125.882 51.9538H124.454L123.974 53.1857H123.698L124.928 50.0649C124.986 49.9237 125.015 49.8262 125.015 49.7753C125.015 49.6326 124.873 49.5606 124.591 49.5564V49.4659H125.464L126.667 52.5344C126.708 52.6389 126.745 52.7265 126.786 52.7972C126.823 52.8678 126.864 52.9243 126.91 52.9681C126.953 53.0119 127.002 53.043 127.053 53.0642C127.105 53.0854 127.163 53.0952 127.229 53.0952V53.1857H126.369ZM125.17 50.1384L124.546 51.7291H125.794L125.17 50.1384Z" fill="#241F55"/>
<path d="M136.769 51.4607V52.5796C136.769 52.6813 136.778 52.7647 136.792 52.8282C136.807 52.8932 136.832 52.9455 136.87 52.9822C136.906 53.0204 136.957 53.0472 137.023 53.0642C137.09 53.0797 137.176 53.091 137.279 53.0952V53.1857H136.24V51.4819L135.445 50.2288C135.361 50.0974 135.286 49.9901 135.222 49.9039C135.156 49.8177 135.094 49.7485 135.034 49.699C134.973 49.6496 134.91 49.6143 134.847 49.5931C134.782 49.5733 134.708 49.5606 134.627 49.5564V49.4659H135.555L136.637 51.1683L137.697 49.4659H138.006L136.769 51.4593V51.4607Z" fill="#241F55"/>
<path d="M147.657 49.6016C147.024 49.6425 146.707 49.8389 146.707 50.1893C146.707 50.3348 146.769 50.469 146.89 50.5919C147.011 50.7162 147.22 50.8518 147.518 51.0016C147.709 51.1019 147.873 51.1979 148.005 51.2898C148.138 51.3816 148.244 51.4748 148.326 51.5695C148.409 51.6641 148.469 51.7644 148.505 51.8662C148.543 51.9679 148.561 52.0809 148.561 52.2038C148.561 52.3578 148.529 52.4977 148.467 52.6262C148.404 52.7562 148.319 52.8664 148.209 52.9596C148.096 53.0529 147.966 53.1249 147.813 53.1743C147.66 53.2238 147.493 53.2492 147.313 53.2492C147.262 53.2492 147.213 53.2492 147.163 53.245C147.111 53.2407 147.056 53.2337 146.994 53.2224C146.932 53.2111 146.858 53.197 146.771 53.18C146.688 53.163 146.585 53.1404 146.468 53.1108C146.445 53.1065 146.42 53.1023 146.395 53.0938C146.373 53.091 146.351 53.0853 146.323 53.0825C146.298 53.0797 146.269 53.074 146.239 53.0712L146.152 52.1982H146.239C146.324 52.4595 146.455 52.6587 146.631 52.7972C146.803 52.9356 147.017 53.0048 147.269 53.0048C147.379 53.0048 147.479 52.9893 147.574 52.9554C147.668 52.9215 147.746 52.8763 147.815 52.8183C147.88 52.759 147.933 52.6898 147.972 52.6078C148.011 52.5259 148.031 52.4355 148.031 52.3394C148.031 52.1741 147.968 52.0286 147.844 51.8958C147.723 51.7659 147.51 51.6218 147.206 51.4649C146.788 51.2488 146.521 51.051 146.406 50.8702C146.296 50.7105 146.241 50.5325 146.241 50.339C146.241 50.1737 146.277 50.0296 146.347 49.9011C146.416 49.7739 146.515 49.6736 146.645 49.5987C146.703 49.5662 146.766 49.538 146.831 49.5126C146.898 49.4885 146.971 49.4688 147.049 49.4518C147.129 49.4363 147.217 49.4221 147.313 49.4151C147.412 49.408 147.525 49.4009 147.654 49.3995V49.6001L147.657 49.6016Z" fill="#241F55"/>
</g>
<defs>
<radialGradient id="paint0_radial_713_165" cx="0" cy="0" r="1" gradientUnits="userSpaceOnUse" gradientTransform="translate(59.9476 28.5168) rotate(-171.624) scale(38.7337 11.3865)">
<stop offset="0.13" stop-color="#00AEEF"/>
<stop offset="0.28" stop-color="#00AEEF"/>
<stop offset="0.31" stop-color="#00AEEF"/>
<stop offset="1" stop-color="#241F55"/>
</radialGradient>
<clipPath id="clip0_713_165">
<rect width="149" height="53" fill="white" transform="translate(0 0.251953)"/>
</clipPath>
</defs>
</svg>
