<svg width="174" height="44" viewBox="0 0 174 44" fill="none" xmlns="http://www.w3.org/2000/svg">
<path d="M173.848 15.4611C173.79 15.4611 172.863 15.4031 172.863 15.4031C168.979 15.1423 169.037 11.5772 169.037 11.5772C169.095 7.25854 166.631 0.389248 156.921 0.0124512H140.197L139.965 0.824009H154.052C155.472 0.881978 156.458 1.92542 156.023 3.60651L153.501 12.7656C152.516 15.4901 150.023 15.3742 150.023 15.3742C147.472 15.1423 148.168 12.7076 148.168 12.7076L149.298 8.50486C149.675 7.08463 148.632 6.38901 147.762 6.38901H138.429L138.197 7.20057H142.168C143.647 7.25853 143.965 8.33096 143.704 9.31643C143.704 9.31643 143.212 11.0555 142.603 13.2293C142.052 15.3452 140.081 15.4031 139.763 15.4031H135.879L135.618 16.3886H139.27C139.705 16.3886 141.676 16.4466 141.067 18.5624C140.458 20.7363 139.965 22.4753 139.965 22.4753C139.705 23.4608 138.777 24.5332 137.299 24.5912H133.328L133.183 25.4897H142.516C143.386 25.4317 144.806 24.7941 145.241 23.3738L146.371 19.1711C146.371 19.1711 146.98 16.7074 149.704 16.5045C149.704 16.5045 152.313 16.3306 151.733 19.1131L149.211 28.2722C148.719 29.9533 147.183 30.9967 145.733 31.0547H131.676L131.444 31.9242H148.226C158.139 31.5474 164.37 24.6781 166.718 20.3595C166.718 20.3595 168.573 16.8813 172.602 16.5335L173.587 16.4756C173.587 16.4756 173.645 16.4756 173.703 16.4176C173.761 16.2437 173.935 15.606 173.935 15.5481C173.906 15.4611 173.906 15.4611 173.848 15.4611Z" fill="#0A468C"/>
<path d="M23.6515 16.8234C23.1008 16.1568 22.1153 15.3452 20.2313 15.3452H4.5218L0.000244141 31.8663H4.40587L7.97094 18.9972H11.8838L8.4057 31.8663H12.8113L16.2894 18.9972H17.9705C18.6662 18.9972 19.1589 19.1711 19.4487 19.5479C19.8255 20.0407 19.7096 20.8522 19.6226 21.229L16.7242 31.8663H21.1298L24.2312 20.4175C24.579 19.1132 24.3761 17.8089 23.6515 16.8234ZM41.9116 16.9683C41.158 15.9829 39.7378 15.3742 38.2016 15.3742H28.6658L27.7383 18.7943H36.0858C36.9553 18.7943 37.564 19.0262 37.8828 19.403C38.2016 19.7798 38.2596 20.4464 38.0567 21.2L37.8248 21.8667H30.8686C27.7093 21.8667 25.2456 23.7796 24.3761 26.823C23.9413 28.3592 24.1152 29.6635 24.8108 30.533C25.4775 31.4025 26.6658 31.8373 28.202 31.8373H39.5349L42.4333 21.258C42.8971 19.49 42.7522 18.0118 41.9116 16.9683ZM36.0858 28.4171H30.7526C30.2599 28.4171 29.5063 28.3592 29.2165 27.9824C29.0426 27.7505 28.9846 27.3737 29.1005 26.881C29.4773 25.4607 30.5787 25.2868 31.6511 25.2868H36.9553L36.0858 28.4171ZM67.3888 16.9683C66.6353 15.9829 65.215 15.3742 63.6789 15.3742H54.201L53.2735 18.7943H61.592C62.4615 18.7943 63.0702 19.0262 63.389 19.403C63.7078 19.7798 63.7658 20.4464 63.5629 21.2L63.389 21.8667H56.4038C53.2445 21.8667 50.7808 23.7796 49.9113 26.823C49.4765 28.3592 49.6504 29.6635 50.3461 30.533C51.0127 31.4025 52.201 31.8373 53.7372 31.8373H65.0701L67.9685 21.258C68.4323 19.49 68.2584 18.0118 67.3888 16.9683ZM61.563 28.4171H56.2299C55.7371 28.4171 54.9836 28.3592 54.6937 27.9824C54.5198 27.7505 54.4618 27.3737 54.5778 26.881C54.9546 25.4607 56.056 25.2868 57.1284 25.2868H62.4035L61.563 28.4171ZM82.9824 15.4032L79.4463 28.2722H75.0987C74.4031 28.2722 73.9103 28.0983 73.6205 27.7215C73.1857 27.2288 73.3596 26.4172 73.4466 25.9825L76.345 15.3452H71.9974L69.012 26.3593C68.5192 28.0403 68.6931 29.4026 69.4467 30.3301C70.4322 31.5185 72.1713 31.8083 73.4176 31.8083H78.4899L78.0551 33.4314C77.7942 34.4169 76.6349 35.4893 75.0117 35.4893H66.8961L65.9686 38.9095H75.3885C77.9971 38.9095 81.5912 36.6197 82.4897 33.3445L87.3881 15.3452L82.9824 15.4032ZM102.75 23.2C102.083 22.3304 100.895 21.8957 99.3586 21.8957H94.837C94.2863 21.8957 93.5327 21.8377 93.2429 21.4609C93.069 21.229 93.011 20.8522 93.1269 20.4175C93.5037 18.9972 94.6631 18.8233 95.7355 18.8233H104.518L105.445 15.4032H94.924C91.7647 15.4032 89.301 17.3161 88.4315 20.3595C87.9967 21.8957 88.1706 23.142 88.8663 24.0695C89.5329 24.939 90.7212 25.3738 92.2574 25.3738H96.779C97.3297 25.3738 98.0253 25.4318 98.3731 25.8086C98.547 26.0404 98.605 26.4172 98.4891 26.91C98.1123 28.3302 96.9529 28.5041 95.8805 28.5041H86.2287L85.3012 31.9242H96.692C99.8513 31.9242 102.315 30.0113 103.185 26.9679C103.648 25.3738 103.474 24.1275 102.75 23.2ZM108.373 15.4032L103.909 31.8663H108.315L112.778 15.4032H108.373ZM129.039 16.9683C128.285 15.9829 126.865 15.3742 125.329 15.3742H115.793L114.865 18.7943H123.213C124.082 18.7943 124.691 19.0262 125.01 19.403C125.329 19.7798 125.387 20.4464 125.184 21.2L125.01 21.8667H118.025C114.865 21.8667 112.402 23.7796 111.532 26.823C111.097 28.3592 111.271 29.6635 111.967 30.533C112.633 31.4025 113.822 31.8373 115.358 31.8373H126.691L129.589 21.258C130.082 19.49 129.85 18.0118 129.039 16.9683ZM123.213 28.4171H117.88C117.387 28.4171 116.633 28.3592 116.343 27.9824C116.17 27.7505 116.112 27.3737 116.227 26.881C116.604 25.4607 117.706 25.2868 118.778 25.2868H124.053L123.213 28.4171ZM47.8244 10.9396L42.0855 31.8663H46.4911L52.2011 10.9396H47.8244ZM90.5473 36.127C90.1705 35.6342 89.4459 35.5763 89.243 35.5763H84.4896L84.2288 36.6197H88.5764C88.9532 36.6197 89.243 36.7356 89.388 36.9385C89.5039 37.1124 89.5039 37.3733 89.4459 37.6052C89.388 37.837 89.1851 38.5327 89.1851 38.5327H85.8519C84.2577 38.5327 83.1853 39.3442 82.8085 40.8224C82.6346 41.5181 82.8085 42.0108 83.0694 42.4166C83.3882 42.7934 83.9389 43.0252 84.7505 43.0252H89.2141L90.6343 37.7501C90.9241 36.9965 90.8662 36.5038 90.5473 36.127ZM88.2576 41.9528H85.3591C84.8084 41.9528 84.4896 41.8369 84.3157 41.634C84.1418 41.4021 84.0838 41.1413 84.1998 40.7645C84.4316 39.9529 85.0113 39.5761 85.9968 39.5761H88.9532L88.2576 41.9528ZM91.8516 42.9963L93.8226 35.5763H92.5762L90.5473 42.9963H91.8516ZM99.0687 42.9963L101.619 33.5184H100.373L97.7644 42.9963H99.0687ZM101.619 42.9963L103.59 35.5763H102.344L100.315 42.9963H101.619ZM108.692 35.5763H104.808L102.779 42.9963H104.083L105.822 36.6197H108.228C108.778 36.6197 109.097 36.7357 109.271 36.9965C109.503 37.3153 109.387 37.7501 109.271 38.3588L108.025 42.9963H109.329L110.691 38.0399C110.923 37.2284 110.807 36.6197 110.518 36.2429C110.17 35.7792 109.59 35.5763 108.692 35.5763ZM112.952 38.6196C113.271 37.8081 114.141 36.5907 115.677 36.5907H118.285L118.546 35.5473H115.503C113.329 35.5473 111.793 37.4023 111.3 39.2573C110.981 40.4456 111.068 41.4891 111.561 42.1557C111.938 42.7064 112.604 42.9093 113.416 42.9093H116.459L116.72 41.8659C116.72 41.8659 114.691 41.8659 114.112 41.8659C113.445 41.8659 113.01 41.692 112.749 41.4311C112.431 41.0543 112.431 40.3877 112.575 39.75V39.6921H117.213L117.474 38.6486H112.894V38.6196H112.952ZM125.705 36.6487L125.966 35.6053H121.879C119.822 35.6053 119.155 36.9675 118.894 37.7211C118.72 38.3298 118.836 38.8225 119.068 39.0834C119.329 39.4602 119.822 39.6921 120.662 39.6921H122.691C123.879 39.6921 123.734 40.6196 123.618 40.8804C123.3 41.8079 122.314 41.9238 121.271 41.9238H117.793L117.532 42.9673H122.43C123.676 42.9673 124.72 42.2137 125.039 40.8514C125.213 40.1848 125.039 39.6631 124.778 39.2573C124.517 38.9385 124.024 38.6486 123.155 38.6486H121.416C121.242 38.6486 120.662 38.6486 120.488 38.3878C120.372 38.1559 120.372 37.953 120.43 37.6921C120.691 36.7646 121.532 36.6487 121.908 36.6487C121.85 36.6487 125.705 36.6487 125.705 36.6487ZM97.2137 35.5763C94.9819 35.5763 94.5472 37.6342 94.4892 37.8081C94.4312 37.982 93.069 43.0542 93.069 43.0542H94.3733C94.3733 43.0542 95.6776 38.1559 95.7355 37.982C95.7935 37.7501 96.1703 36.6197 97.4166 36.6197C98.2862 36.6197 98.518 36.6197 98.518 36.6197L98.7789 35.5183H97.1848V35.5763H97.2137Z" fill="#0A468C"/>
</svg>
