<svg width="120" height="35" viewBox="0 0 120 35" fill="none" xmlns="http://www.w3.org/2000/svg">
<path fill-rule="evenodd" clip-rule="evenodd" d="M92.2364 5.00475L101.232 4.46709C96.4809 4.30973 93.6615 4.30972 92.7741 4.40152L91.4453 4.68565C91.2879 4.84739 91.572 4.94356 92.2364 5.00475Z" fill="#808285"/>
<path fill-rule="evenodd" clip-rule="evenodd" d="M90.2421 7.25603L105.034 6.93693L90.7185 6.42986C88.817 6.3031 87.7723 6.42986 87.6149 6.77956C87.3264 7.25603 88.2444 7.41339 90.2421 7.25603Z" fill="#808285"/>
<path fill-rule="evenodd" clip-rule="evenodd" d="M85.0156 10.1059L107.344 9.31469L87.2318 9.06116C85.7106 9.06116 84.9194 9.21852 84.9194 9.53762L85.0156 10.1059Z" fill="#808285"/>
<path fill-rule="evenodd" clip-rule="evenodd" d="M86.5057 13.0828L108.93 12.0687L84.6348 11.6884C84.001 11.7539 83.6557 11.9113 83.5901 12.226C83.4939 12.9254 84.4469 13.1789 86.5057 13.0828Z" fill="#808285"/>
<path fill-rule="evenodd" clip-rule="evenodd" d="M83.2728 15.6488L109.815 14.9843L85.2705 14.2893C83.6837 14.2893 82.8619 14.5428 82.7352 15.1461C82.7046 15.3952 82.8925 15.6182 83.2728 15.6488Z" fill="#808285"/>
<path fill-rule="evenodd" clip-rule="evenodd" d="M83.0532 18.3413L91.446 18.2451L92.6175 16.9163H84.2247C82.957 16.9163 82.3888 17.2004 82.5461 17.773C82.5767 18.0878 82.7341 18.3107 83.0532 18.3413Z" fill="#808285"/>
<path fill-rule="evenodd" clip-rule="evenodd" d="M84.9199 21.1609L90.2397 20.7806L90.9347 19.5785L84.6969 19.6747C83.4948 19.6747 82.8916 19.9282 82.8916 20.4047C82.8916 20.785 83.049 21.0079 83.3331 21.0385L84.9199 21.1609Z" fill="#808285"/>
<path fill-rule="evenodd" clip-rule="evenodd" d="M85.7461 23.6961L99.2707 23.1584L98.3221 22.2098L85.274 22.306L83.9101 22.4634C83.7484 22.5901 83.6872 22.7825 83.7484 23.0666C83.8446 23.6305 84.5396 23.8534 85.7461 23.6961Z" fill="#808285"/>
<path fill-rule="evenodd" clip-rule="evenodd" d="M101.076 25.3747L87.6166 25.2786C85.9687 25.2786 85.2387 25.4709 85.2737 25.943C85.431 26.5462 86.349 26.7036 88.0931 26.5462L101.902 26.2315L101.076 25.3747Z" fill="#808285"/>
<path fill-rule="evenodd" clip-rule="evenodd" d="M102.756 28.1286L88.2826 28.0018C87.9679 28.0018 87.8062 28.1286 87.8062 28.3821C87.8062 28.8586 88.8203 29.0772 90.8136 28.9548L104.181 28.4783L102.756 28.1286Z" fill="#93989C"/>
<path fill-rule="evenodd" clip-rule="evenodd" d="M93.6302 30.9173L101.551 30.6638L93.2542 30.3447C92.1439 30.1873 91.5757 30.2791 91.5757 30.6638L93.6302 30.9173Z" fill="#93989C"/>
<path fill-rule="evenodd" clip-rule="evenodd" d="M116.149 1.23669C113.268 2.47375 107.66 5.73469 99.3631 11.1201C103.638 8.74648 107.568 6.90619 111.209 5.57733L117.705 3.42231L118.972 3.51848C119.226 3.67584 118.846 3.89877 117.958 4.15231C116.437 4.62877 113.618 5.80026 109.5 7.69738C104.748 9.8524 102.025 11.3736 101.234 12.3222L106.716 12.4489C105.924 13.4324 104.971 13.9701 103.865 14.0313L102.821 14.0619C104.027 16.0246 105.99 17.1349 108.678 17.2923L110.514 17.3884L110.61 18.8134L102.913 19.574L110.357 20.0505C110.453 21.1608 110.422 21.7291 110.265 21.7291H102.76L109.662 22.7432L109.251 24.5179L103.013 24.9944L108.556 25.5932L107.258 27.368L103.87 27.8138L106.501 28.3821L103.616 30.3754C101.557 28.3165 100.006 26.5768 99.0221 25.2741L96.9939 22.4547L94.205 23.0579C96.6442 21.3182 97.9425 19.9849 98.1654 19.1937C98.1042 17.6725 98.008 16.6584 97.8507 16.0902L96.8365 17.1349C96.6792 15.6137 96.4256 14.6651 96.1721 14.2848L95.7918 15.4563L94.1132 16.912L95.3153 16.8158C94.5897 20.8679 92.9418 23.4644 90.3409 24.5135L88.8197 22.9312L89.8644 21.9826L88.282 22.4591L87.9673 21.9826C89.5191 19.4167 90.7212 17.6114 91.6741 16.5666L96.2683 12.3834C98.8648 10.2283 101.243 8.42301 103.49 6.99798C109.347 3.44854 113.596 1.20172 116.157 0.253161C117.172 -0.127137 117.582 -0.0659393 117.329 0.349328L116.149 1.23669Z" fill="#7A003C"/>
<path fill-rule="evenodd" clip-rule="evenodd" d="M73.0077 32.0538V31.2233C73.0077 30.7949 73.5672 30.3447 74.6644 29.8988L75.272 29.5972V32.6877H76.579V29.3087L76.3866 29.23C76.356 29.1513 76.3866 29.0726 76.4653 28.9896C76.5921 28.8803 76.9461 28.6399 77.5319 28.2421V33.5663H62.5517C62.5517 34.0602 62.3593 34.458 61.9615 34.729L61.1179 35C60.8469 35 60.5759 34.8558 60.2874 34.6023C60.13 34.458 60.1606 34.3793 60.3354 34.3618C60.7332 34.4886 61.0523 34.4405 61.2927 34.2176C61.5332 34.0559 61.6424 33.8504 61.6424 33.5619L61.6905 30.9479L61.437 30.8517C61.3714 30.7862 61.4064 30.7075 61.5332 30.6288L62.5691 29.8638L62.5997 32.6833H63.7931V29.383C63.5046 29.2562 63.5046 29.0639 63.7931 28.8585L64.781 28.1591V30.808C65.0433 30.5545 65.4192 30.419 65.8957 30.419H69.5282C69.9259 30.419 70.2931 30.5458 70.6428 30.8168C70.9925 31.1053 71.1674 31.5031 71.1674 32.0101L71.1586 32.6789H74.3409V32.0407H73.0077V32.0538ZM56.4975 28.7229V32.692H59.4131V31.5774C59.094 31.4987 59.0634 31.3369 59.3344 31.1009L60.3398 30.4015V33.5706H53.5513L53.678 32.0713C53.678 31.7828 53.9665 31.4156 54.5523 31.0178C54.902 30.7774 55.2211 30.5895 55.5096 30.4583L55.5577 30.078C55.3173 29.9993 55.2386 29.9207 55.3173 29.8376L56.4975 28.7229ZM74.3496 30.8561C73.9212 30.9829 73.7114 31.1402 73.7114 31.3807H74.3496V30.8561ZM54.5217 32.692H55.5402V31.4331L54.7577 31.8309C54.5217 31.9883 54.443 32.2899 54.5217 32.692ZM54.2682 28.1503C54.6659 28.1503 54.8408 28.3077 54.8408 28.5962C54.8408 28.8366 54.6659 28.9634 54.2682 28.9634C53.9665 28.9634 53.8048 28.8366 53.8048 28.5962C53.8048 28.3077 53.9665 28.1503 54.2682 28.1503ZM55.5096 28.1503C55.9074 28.1503 56.0997 28.3077 56.0997 28.5962C56.0997 28.8366 55.9074 28.9634 55.5096 28.9634C55.2211 28.9634 55.0637 28.8366 55.0637 28.5962C55.0637 28.3077 55.2255 28.1503 55.5096 28.1503ZM57.4242 33.8854C57.7914 33.8854 57.9837 34.0427 57.9837 34.3312C57.9837 34.5717 57.7914 34.6984 57.4242 34.6984C57.1051 34.6984 56.9477 34.5717 56.9477 34.3312C56.9434 34.0471 57.1051 33.8854 57.4242 33.8854ZM58.7312 33.8854C59.0984 33.8854 59.2907 34.0427 59.2907 34.3312C59.2907 34.5717 59.0984 34.6984 58.7312 34.6984C58.4121 34.6984 58.2547 34.5717 58.2547 34.3312C58.2504 34.0471 58.4121 33.8854 58.7312 33.8854ZM73.3136 28.0673C73.7114 28.0673 73.8863 28.2246 73.8863 28.5131C73.8863 28.7535 73.7114 28.8803 73.3136 28.8803C73.0077 28.8803 72.8503 28.7535 72.8503 28.5131C72.8503 28.229 73.0077 28.0673 73.3136 28.0673ZM74.6032 28.0673C74.9835 28.0673 75.1627 28.2246 75.1627 28.5131C75.1627 28.7535 74.9878 28.8803 74.6032 28.8803C74.3147 28.8803 74.1573 28.7535 74.1573 28.5131C74.1573 28.229 74.3147 28.0673 74.6032 28.0673ZM70.2101 32.692H64.7854V31.761C64.9384 31.4943 65.1744 31.3501 65.5197 31.3501H69.5019C69.8866 31.3501 70.092 31.4287 70.1707 31.6211L70.2188 32.0669L70.2101 32.692ZM79.2542 28.2771V33.5663H78.2663V29.3131C78.1701 29.3437 78.1045 29.3131 78.0914 29.2344L78.1701 28.994L79.2542 28.2771Z" fill="#7A003C"/>
<path fill-rule="evenodd" clip-rule="evenodd" d="M32.4077 24.5006H36.0971L28.714 7.97729H27.3415L20.1333 24.5006H22.2796L24.3734 19.3687H30.3139L32.4077 24.5006ZM24.9941 17.8563L27.3458 12.0906L29.6976 17.8563H24.9941Z" fill="#7A003C"/>
<path fill-rule="evenodd" clip-rule="evenodd" d="M59.6226 24.5006H63.3163L55.9333 7.97729H54.5607L47.3525 24.5006H49.4988L51.5926 19.3687H57.5288L59.6226 24.5006ZM52.209 17.8563L54.5607 12.0906L56.9124 17.8563H52.209Z" fill="#7A003C"/>
<path fill-rule="evenodd" clip-rule="evenodd" d="M35.5454 7.97729H48.0515V9.97932H43.5885V24.5006H40.039V9.97932H35.5454V7.97729Z" fill="#7A003C"/>
<path fill-rule="evenodd" clip-rule="evenodd" d="M18.6333 16.4531C18.6333 11.5398 14.4719 7.55762 9.33571 7.55762C4.19951 7.55762 0.0380859 11.5398 0.0380859 16.4531C0.0380859 21.3664 4.19951 25.3486 9.33571 25.3486C9.79906 25.3486 10.2493 25.3049 10.6952 25.2437L15.639 29.7023L18.2749 27.591L13.0513 24.6011C16.3341 23.2329 18.6333 20.1031 18.6333 16.4531ZM9.33134 23.7618C5.92177 23.7618 3.15478 20.4877 3.15478 16.4531C3.15478 12.4184 5.9174 9.14438 9.33134 9.14438C12.7409 9.14438 15.5079 12.4184 15.5079 16.4531C15.5079 20.4921 12.7409 23.7618 9.33134 23.7618Z" fill="#7A003C"/>
<path fill-rule="evenodd" clip-rule="evenodd" d="M73.0503 16.8025C74.7726 16.4528 77.2511 14.8354 77.2511 11.5832C77.2511 8.33102 73.4087 7.98132 73.4087 7.98132H68.9676H67.6081H66.0869V24.5046H68.9719V17.1522H69.9555L74.7026 24.3254H78.781L73.0503 16.8025ZM68.9719 15.784V8.85557H72.7006C72.7006 8.85557 74.7026 9.97898 74.7026 12.0553C74.7026 14.1317 73.824 15.784 72.5563 15.784C71.2887 15.784 68.9719 15.784 68.9719 15.784Z" fill="#7A003C"/>
<path d="M21.252 27.7527H22.0432L24.1501 33.1468H23.3589L22.7688 31.5207H20.487L19.8838 33.1468H19.145L21.252 27.7527ZM20.7143 30.9218H22.5415L21.641 28.4084H21.6279L20.7143 30.9218Z" fill="#808285"/>
<path d="M24.71 27.7526H25.4268V33.1467H24.71V27.7526Z" fill="#808285"/>
<path d="M26.6367 27.7526H29.1764C30.1905 27.7526 30.8156 28.3033 30.8156 29.1645C30.8156 29.8158 30.5271 30.3491 29.8802 30.5327V30.5502C30.5053 30.6726 30.6364 31.1315 30.6889 31.6605C30.7326 32.1894 30.702 32.7795 31.008 33.1467H30.208C30.0026 32.9281 30.1162 32.3467 30.0113 31.8178C29.937 31.2889 29.8059 30.843 29.1108 30.843H27.358V33.1467H26.6411V27.7526H26.6367ZM28.8486 30.2398C29.5217 30.2398 30.0944 30.0649 30.0944 29.2825C30.0944 28.7536 29.8059 28.3602 29.1371 28.3602H27.3536V30.2398H28.8486Z" fill="#808285"/>
<path d="M36.5461 33.1467H35.7986L34.5659 28.6137H34.5528L33.307 33.1467H32.5595L31.1782 27.7526H31.9126L32.9704 32.2418H32.9835L34.1944 27.7526H34.9725L36.1658 32.2418H36.1789L37.2761 27.7526H37.993L36.5461 33.1467Z" fill="#808285"/>
<path d="M39.958 27.7526H40.7492L42.8561 33.1467H42.065L41.4748 31.5206H39.193L38.5898 33.1467H37.8511L39.958 27.7526ZM39.4204 30.9217H41.2475L40.3471 28.4082H40.3339L39.4204 30.9217Z" fill="#808285"/>
<path d="M45.052 30.9436V33.1511H44.3351V30.9436L42.25 27.757H43.1024L44.7197 30.3272L46.2978 27.757H47.1152L45.052 30.9436Z" fill="#808285"/>
<path d="M50.8401 29.3349C50.7571 28.5655 50.2413 28.2333 49.5025 28.2333C48.8993 28.2333 48.2917 28.4519 48.2917 29.1556C48.2917 29.8201 49.1528 29.9206 50.0227 30.1129C50.8838 30.3097 51.745 30.6113 51.745 31.6691C51.745 32.8187 50.6216 33.2777 49.638 33.2777C48.4316 33.2777 47.4087 32.6876 47.4087 31.3719H48.0906C48.0906 32.2767 48.8468 32.6701 49.6599 32.6701C50.3112 32.6701 51.0281 32.4647 51.0281 31.6866C51.0281 30.9479 50.1669 30.8167 49.3058 30.6288C48.4447 30.4408 47.5748 30.1916 47.5748 29.1994C47.5748 28.1022 48.5496 27.6213 49.5331 27.6213C50.6347 27.6213 51.4739 28.1415 51.522 29.3305H50.8401V29.3349Z" fill="#808285"/>
</svg>
