<svg width="153" height="42" viewBox="0 0 153 42" fill="none" xmlns="http://www.w3.org/2000/svg">
<path d="M45.1015 0.890753C45.3472 0.751533 45.6181 0.653706 45.9 0.625488C45.7448 0.870279 45.5251 1.06549 45.3771 1.31518C44.9882 1.93864 44.7811 2.65654 44.6365 3.37249C44.4958 4.0514 44.4423 4.74937 44.2279 5.41128C43.9435 6.34728 43.4856 7.23111 42.8761 7.99281C42.0983 8.95016 41.1229 9.72058 40.1075 10.4049C38.8753 11.2532 37.5736 12.0252 36.5072 13.0906C35.7472 13.8519 35.1362 14.7775 34.8032 15.8094C34.1546 17.7139 33.6052 19.6655 32.7007 21.4693C32.0539 22.7722 31.199 23.968 30.1754 24.9961C28.8488 26.3466 27.2589 27.3945 25.6383 28.348C22.0607 30.4146 18.1331 31.8031 14.1294 32.7498C9.655 33.7889 5.05996 34.2844 0.469821 34.2776C0.312901 34.2808 0.155944 34.2734 0 34.2557C4.05766 33.7023 8.08344 32.7493 11.866 31.1437C15.3289 29.6855 18.5795 27.6607 21.294 25.033C21.892 24.4534 22.4689 23.8498 23.0052 23.2112C24.2249 21.7277 25.0895 19.9936 25.9135 18.2657C26.3414 17.3756 26.7534 16.4748 27.2537 15.622C28.0117 14.3288 29.0458 13.2006 30.2752 12.3518C31.7619 11.3171 33.4698 10.6804 35.1593 10.0725C36.1457 9.7172 37.1351 9.36871 38.1023 8.96182C38.7432 8.68783 39.3876 8.41037 39.9764 8.03126C41.095 7.32448 42.0925 6.36526 42.664 5.14896C43.0568 4.32735 43.2447 3.42741 43.5801 2.58257C43.2129 2.74992 42.9532 3.09352 42.8317 3.47468C42.6718 3.97361 42.1711 4.26896 41.6814 4.34836C41.9016 4.15511 42.0968 3.92002 42.1793 3.63188C42.3807 2.97237 42.9706 2.41656 43.6707 2.37712C44.0027 1.7639 44.4914 1.22803 45.1015 0.890753ZM44.1994 2.02525C44.0389 2.12165 44.0215 2.38059 44.1704 2.49542C44.3315 2.63945 44.6336 2.51973 44.6369 2.29639C44.6645 2.07394 44.3825 1.89529 44.1994 2.02525Z" fill="#DC001C"/>
<path d="M28.0965 12.0948C29.3235 11.5925 30.5986 11.2216 31.8833 10.9033C31.6588 11.0294 31.4125 11.1073 31.1807 11.2158C29.7282 11.866 28.4507 12.8716 27.3819 14.0509C26.1824 15.3801 25.2287 16.919 24.4533 18.5339C23.3743 20.9529 21.6414 23.0472 19.549 24.6407C16.6224 26.8771 13.0886 28.2195 9.47669 28.7792C8.69647 28.8916 7.91145 28.989 7.12305 29.0094C8.14129 28.6853 9.16149 28.3607 10.148 27.945C12.8129 26.847 15.2951 25.2379 17.2667 23.1081C18.3727 21.8878 19.4107 20.5976 20.2829 19.195C20.7513 18.4546 21.1937 17.6944 21.7291 17.0003C22.3459 16.189 23.0606 15.4585 23.8119 14.7741C25.0639 13.6274 26.5279 12.7255 28.0965 12.0948Z" fill="#01742F"/>
<path d="M36.6389 14.0539C36.8909 13.608 37.1554 13.1597 37.5087 12.7875C37.328 13.6153 37.1333 14.4437 37.0605 15.2901C36.9266 16.6169 37.0085 17.9514 37.0552 19.2801C37.142 20.8591 37.0344 22.4881 36.4225 23.9613C35.8114 25.4185 34.9218 26.7725 33.7436 27.8243C32.1302 29.2572 30.0521 30.0711 27.9442 30.3863C27.0889 30.5086 26.2206 30.5835 25.3569 30.5246C25.8075 30.2321 26.2952 30.0004 26.7574 29.7254C28.1443 28.9306 29.4984 28.055 30.6786 26.9653C31.8655 25.8678 32.8573 24.5625 33.6457 23.1475C34.4211 21.7571 34.7835 20.1868 35.1372 18.6455C35.4957 17.0749 35.8547 15.4741 36.6389 14.0539Z" fill="#FF3C00"/>
<path d="M43.0768 12.8059C44.3168 11.9086 45.9031 11.6798 47.3976 11.679C48.5548 11.6914 49.7085 11.8801 50.8131 12.2237C51.6686 12.5121 52.5418 12.9439 53.0519 13.7227C53.4462 14.3289 53.4293 15.0856 53.3892 15.7799C53.1257 15.3161 52.9157 14.8034 52.4946 14.4535C51.3196 13.3854 49.655 13.0738 48.1124 13.0996C47.0914 13.1379 46.0384 13.2474 45.1037 13.6907C44.469 14.0049 43.8833 14.5568 43.7596 15.2823C43.6216 16.0202 43.8887 16.7733 44.3106 17.3741C45.1393 18.5821 46.3998 19.4099 47.6896 20.057C49.2082 20.7692 50.7731 21.4475 52.0745 22.529C52.8792 23.1957 53.5966 24.0378 53.8806 25.0623C54.2838 26.5311 53.869 28.1645 52.9032 29.327C52.1831 30.1869 51.2199 30.8189 50.1838 31.2337C48.4373 31.9209 46.5004 32.0865 44.6551 31.7687C43.3252 31.5213 42.0051 30.9738 41.0446 29.9991C40.4322 29.3858 40.1919 28.4948 40.2177 27.6464C40.2426 27.1951 40.2462 26.7198 40.4536 26.3059C40.515 27.3251 41.0856 28.2696 41.9179 28.849C43.3911 29.8959 45.2693 30.203 47.0416 30.0801C48.002 30.0045 48.9963 29.7454 49.7423 29.109C50.5265 28.4244 50.9716 27.3616 50.8861 26.3219C50.8007 25.438 50.2675 24.6698 49.6372 24.0752C48.3296 22.8833 46.73 22.0955 45.2239 21.1938C44.0881 20.495 42.9139 19.7909 42.055 18.7485C41.5974 18.1913 41.2422 17.521 41.1879 16.7911C41.0607 15.2556 41.8182 13.6889 43.0768 12.8059ZM67.0138 12.0234C67.9797 11.6398 69.1814 12.4472 69.1618 13.4922C69.2205 14.4722 68.2138 15.3241 67.2586 15.1247C66.364 15.0019 65.7676 13.9987 65.9955 13.145C66.1103 12.6261 66.5136 12.1944 67.0138 12.0234ZM60.9412 17.4222C61.6445 16.9673 62.5177 16.8231 63.3411 16.9202C64.0185 17.0109 64.6229 17.4249 65.0039 17.9857C64.3496 17.8103 63.6598 17.6029 62.985 17.8067C61.851 18.0969 61.0961 19.0823 60.5469 20.0526C59.687 21.5026 59.4235 23.1993 59.2144 24.8451C59.0613 26.1608 58.9705 27.4844 58.95 28.809C58.9633 29.733 59.0452 30.737 59.6568 31.4812C58.7283 31.4741 57.791 31.5328 56.8688 31.4625C56.5875 30.6703 56.5332 29.8211 56.4869 28.9888C56.3748 26.8649 56.835 24.7748 57.0593 22.6741C57.1964 21.2205 57.2774 19.7535 57.1759 18.2945C57.1252 17.8272 56.8813 17.4142 56.6463 17.019C57.4207 16.9905 58.1969 17.0065 58.9722 17.0003C59.1164 17.0056 59.2695 16.994 59.4057 17.0563C59.7529 17.4275 59.752 17.9723 59.7938 18.4476C60.1561 18.0854 60.506 17.6999 60.9412 17.4222ZM66.2163 17.0181C67.1696 17.1569 68.2129 17.4266 68.8315 18.226C69.3621 18.8998 69.3345 19.8176 69.2223 20.6232C68.9499 23.0506 68.6214 25.4763 68.5511 27.9197C68.536 29.1179 68.4416 30.4015 69.063 31.4812C68.196 31.4839 67.3254 31.5195 66.4602 31.4661C65.9875 30.7442 66.0035 29.8202 65.9617 28.9861C65.9866 25.7914 66.5073 22.6296 66.8732 19.4633C66.9604 18.5927 66.6079 17.772 66.2163 17.0181ZM122.358 33.4881C122.709 33.472 123.061 33.4685 123.413 33.4881C124.008 34.3755 124.243 35.4428 124.529 36.4585C124.941 37.97 125.196 39.5909 126.139 40.8861C125.783 40.8932 125.424 40.9279 125.07 40.8718C124.677 40.5122 124.527 39.9674 124.347 39.4823C123.979 38.3643 123.72 37.2142 123.425 36.0757C123.263 35.4882 123.114 34.8927 122.842 34.3444C122.801 34.7761 122.78 35.2141 122.671 35.6369C122.521 36.26 122.191 36.819 122.009 37.4314C122.61 37.3638 123.345 37.4172 123.696 37.9895C123.092 37.8738 122.378 37.7919 121.873 38.2228C121.118 38.8868 120.863 39.9247 120.77 40.8879C120.405 40.8994 120.041 40.9003 119.677 40.8879C119.82 39.6167 120.437 38.4747 121.005 37.3513C121.604 36.1273 122.307 34.8838 122.358 33.4881ZM126.985 33.5379C127.376 33.3287 127.908 33.6848 127.855 34.1263C127.849 34.5767 127.273 34.8624 126.91 34.5981C126.516 34.3729 126.57 33.7079 126.985 33.5379ZM132.68 33.4845C133.016 33.4774 133.352 33.4783 133.689 33.4881C133.932 35.0876 133.855 36.7184 133.672 38.3198C133.603 39.1743 133.45 40.0671 133.759 40.895C133.414 40.9021 133.068 40.903 132.724 40.8905C132.631 40.6351 132.584 40.3645 132.597 40.093C132.633 37.8925 133.101 35.6751 132.68 33.4845ZM135.17 33.5388C135.537 33.3492 136.084 33.5975 136.1 34.0337C136.198 34.5945 135.367 34.9283 135.013 34.5162C134.713 34.2465 134.815 33.7088 135.17 33.5388ZM139.349 35.5648C139.885 35.2781 140.516 35.2229 141.112 35.2942C141.891 35.3823 142.585 36.0802 142.588 36.8786C142.582 37.5089 142.462 38.1311 142.433 38.7604C142.4 39.4743 142.343 40.2247 142.642 40.8968C142.32 40.8968 141.999 40.895 141.679 40.8852C141.409 39.8384 141.541 38.7462 141.711 37.6949C141.752 37.2062 141.845 36.5715 141.382 36.2466C140.426 35.6182 138.917 36.0517 138.5 37.1368C138.243 37.7599 138.199 38.4408 138.174 39.1067C138.155 39.7066 138.054 40.3493 138.371 40.8959C138.015 40.8968 137.658 40.8968 137.303 40.8861C136.834 39.0755 137.862 37.2311 137.304 35.4295C137.656 35.4197 138.008 35.4295 138.36 35.4473C138.411 35.7286 138.455 36.0116 138.496 36.2965C138.758 36.0285 139.012 35.7401 139.349 35.5648ZM144.419 35.9315C144.921 35.4277 145.666 35.2755 146.353 35.271C146.985 35.2737 147.681 35.5416 147.988 36.1273C148.276 36.738 147.951 37.5195 147.335 37.7812C146.489 38.1765 145.533 38.4417 144.891 39.1663C144.71 39.3292 144.749 39.6096 144.866 39.7992C145.12 40.2674 145.667 40.4828 146.174 40.5202C146.792 40.5318 147.348 40.2203 147.861 39.9096C147.564 40.3253 147.21 40.7445 146.707 40.9066C146.042 41.1335 145.25 41.1327 144.658 40.7152C143.923 40.1971 143.56 39.274 143.577 38.3937C143.54 37.5097 143.784 36.5733 144.419 35.9315ZM145.033 36.6151C144.553 37.2089 144.45 38.0109 144.508 38.7506C144.932 38.4649 145.355 38.1702 145.828 37.9699C146.373 37.7074 147.003 37.3949 147.215 36.7861C147.376 36.2991 146.876 35.8977 146.437 35.8558C145.86 35.7918 145.375 36.1977 145.033 36.6151ZM149.134 35.9413C149.449 35.4962 150.008 35.3075 150.533 35.2853C151.129 35.2639 151.768 35.3396 152.264 35.701C152.491 35.8558 152.512 36.154 152.565 36.4006C152.343 36.227 152.157 36.009 151.917 35.8612C151.393 35.6146 150.766 35.6511 150.238 35.8656C150 35.9573 149.759 36.1638 149.78 36.4433C149.829 36.7157 150.008 36.9463 150.218 37.1199C150.822 37.6201 151.654 37.7652 152.207 38.3376C152.59 38.7017 152.762 39.2722 152.619 39.785C152.5 40.2487 152.12 40.5995 151.698 40.7988C151.077 41.0846 150.351 41.1318 149.694 40.9484C149.337 40.8451 148.994 40.6493 148.773 40.3449C148.591 40.0867 148.638 39.7565 148.63 39.4592C148.81 39.7529 148.979 40.0867 149.297 40.2541C149.873 40.5496 150.588 40.6582 151.196 40.3947C151.705 40.1775 151.936 39.4262 151.541 39.0052C150.865 38.2664 149.794 38.0572 149.133 37.3014C148.793 36.9267 148.847 36.3294 149.134 35.9413ZM130.189 35.944C130.446 35.6858 130.731 35.3948 131.12 35.3796C131.51 35.3093 131.906 35.4758 132.142 35.7909C131.759 35.7464 131.299 35.6333 130.981 35.9253C130.248 36.5537 130.003 37.5516 129.934 38.4756C129.861 39.2785 129.719 40.1295 130.056 40.8959C129.7 40.8976 129.345 40.8968 128.989 40.8852C128.876 40.1829 128.831 39.4618 128.948 38.7568C129.09 37.8711 129.196 36.9748 129.162 36.0757C129.159 35.8461 129.064 35.6342 128.985 35.4241C129.342 35.4241 129.7 35.4232 130.057 35.4241C130.101 35.5968 130.145 35.7686 130.189 35.944ZM126.739 35.409C127.102 35.5034 127.539 35.5594 127.763 35.9012C127.952 36.1612 127.922 36.4994 127.89 36.8021C127.764 37.8907 127.609 38.9821 127.624 40.0805C127.631 40.3609 127.715 40.6315 127.806 40.895C127.458 40.9039 127.11 40.9057 126.763 40.879C126.616 40.5452 126.595 40.1757 126.613 39.8179C126.666 38.7168 126.821 37.6237 126.945 36.5297C127.001 36.1425 126.868 35.7668 126.739 35.409ZM134.97 35.401C135.435 35.4971 136.04 35.6947 136.096 36.2511C136.136 37.0584 135.975 37.8614 135.934 38.6678C135.902 39.4067 135.706 40.1864 136.019 40.8941C135.679 40.903 135.334 40.9252 135.001 40.846C134.788 40.2932 134.861 39.6933 134.912 39.1191C134.984 38.2254 135.108 37.3379 135.205 36.4478C135.247 36.0811 135.095 35.7357 134.97 35.401Z" fill="#027499"/>
<path d="M72.1204 11.9282C73.0106 11.9273 73.9007 11.9255 74.7909 11.9415C75.2689 14.3253 75.2867 16.7715 75.1995 19.1927C75.1078 22.577 74.3342 25.9258 74.5372 29.3208C76.0041 29.3422 77.5121 29.2674 78.9229 29.7481C79.9075 30.0792 80.7958 30.7085 81.8515 30.8162C80.1149 30.1638 78.9826 28.1324 79.4846 26.321C79.7392 25.4059 80.4237 24.6297 81.2881 24.2416C83.4476 23.3087 85.8243 23.0087 87.9624 22.0198C88.5472 21.7358 89.1721 21.3753 89.4383 20.7487C89.6946 19.9404 89.3706 18.9844 88.6719 18.5019C87.8867 17.9376 86.8889 17.7862 85.9436 17.796C84.1365 17.7987 82.3865 18.4165 80.8296 19.3022C81.1581 18.6568 81.7331 18.1886 82.3224 17.7916C83.6496 16.9175 85.2679 16.6273 86.8328 16.5979C87.8556 16.5908 88.8997 16.6308 89.8789 16.9531C90.8581 17.2486 91.6699 18.0097 92.0464 18.9586C92.3028 19.6004 92.1924 20.3063 92.1497 20.9765C91.9975 22.6749 91.5969 24.3413 91.4678 26.0433C91.3975 26.8115 91.4331 27.5841 91.4242 28.3559C91.426 29.4187 91.4981 30.5269 92.0019 31.4865C91.1135 31.4963 90.2252 31.5159 89.3368 31.4767C88.687 28.5481 89.0733 25.535 89.3368 22.5859C87.463 23.9585 85.0151 24.0894 83.0648 25.3133C82.3652 25.7388 81.6904 26.2872 81.3477 27.0527C80.9534 27.9179 81.2356 28.9968 81.9183 29.6359C82.4684 30.1531 83.2526 30.3391 83.9906 30.3124C85.4504 30.2492 86.8364 29.6128 87.9615 28.7021C87.3776 29.7694 86.3076 30.4522 85.2216 30.9284C83.9416 31.4901 82.5289 31.7286 81.135 31.6441C79.9404 31.58 78.7681 31.3165 77.5788 31.2061C75.8332 31.0512 74.0814 31.2435 72.3545 31.4928C71.8267 30.0676 71.8676 28.5143 71.9905 27.0233C72.197 24.3805 72.5789 21.7501 72.634 19.0965C72.6492 16.7074 72.9759 14.2212 72.1204 11.9282ZM110.578 11.9273C111.487 11.9335 112.396 11.9157 113.305 11.9415C113.693 14.668 113.685 17.4293 113.603 20.1754C113.569 20.9748 113.464 21.7688 113.424 22.5672C114.719 21.645 115.634 20.3152 116.821 19.2728C117.919 18.2616 119.248 17.4889 120.696 17.1088C121.682 16.8436 122.701 16.7145 123.721 16.6673C122.927 17.0207 122.082 17.2646 121.339 17.7302C119.122 18.9942 117.685 21.1688 115.929 22.9509C117.149 24.1303 117.926 25.6578 118.814 27.0821C119.589 28.3701 120.432 29.6528 121.597 30.6258C121.988 30.9604 122.449 31.1954 122.881 31.4714C121.935 31.5061 120.983 31.5212 120.039 31.4785C119.561 31.2845 119.192 30.8972 118.803 30.5688C117.56 29.4169 116.7 27.9357 115.873 26.4759C115.183 25.2395 114.484 23.9585 113.382 23.0346C113.27 24.214 113.147 25.3926 113.056 26.5747C112.964 27.6874 112.908 28.8098 113.025 29.9234C113.086 30.4691 113.24 31.0041 113.502 31.4874C112.601 31.4954 111.699 31.5266 110.8 31.4652C110.401 30.7023 110.399 29.8175 110.387 28.9781C110.461 25.2332 111.08 21.5186 111.068 17.7702C111.08 16.4012 111.073 15.0303 110.971 13.664C110.92 13.0702 110.797 12.4818 110.578 11.9273ZM99.7346 17.4934C101.182 16.6744 102.919 16.4777 104.548 16.7101C105.878 16.905 107.122 17.707 107.776 18.8936C108.289 19.7891 108.473 20.8581 108.327 21.8765C108.013 24.0235 107.829 26.1955 107.889 28.3666C107.931 29.4338 108.022 30.5528 108.589 31.4883C107.805 31.4883 107.017 31.5293 106.235 31.4723C105.697 30.9142 105.653 30.0721 105.598 29.3395C105.575 28.0327 105.529 26.7162 105.719 25.4184C105.903 23.9114 106.268 22.4088 106.148 20.8804C106.102 20.2057 105.793 19.522 105.223 19.133C104.331 18.5153 103.207 18.3319 102.142 18.4031C100.626 18.485 99.1089 19.1713 98.1653 20.3819C97.6339 21.0442 97.4069 21.88 97.1746 22.6812C96.774 24.1223 96.6716 25.6231 96.6538 27.1132C96.6058 28.5766 96.385 30.2101 97.276 31.4865C96.3521 31.4776 95.4236 31.5462 94.5032 31.4625C94.2522 30.721 94.1801 29.9377 94.1338 29.1623C94.0047 27.4568 94.2923 25.7593 94.5388 24.0769C94.797 22.4017 95.0115 20.7024 94.8753 19.0049C94.8103 18.2981 94.6287 17.5922 94.254 16.9833C95.1041 16.9869 95.9542 16.9931 96.8043 16.9896C97.0562 16.9531 97.1755 17.221 97.2467 17.4159C97.4763 18.1289 97.4692 18.8891 97.4728 19.6306C98.0763 18.7805 98.8044 17.9883 99.7346 17.4934Z" fill="#0F1E7D"/>
<path d="M128.109 17.043C129.289 16.6647 130.545 16.573 131.778 16.6024C132.781 16.6522 133.827 16.7332 134.724 17.2281C135.385 17.5789 135.887 18.177 136.219 18.8402C136.452 19.3075 136.393 19.8443 136.384 20.349C136.282 22.2931 135.773 24.19 135.675 26.135C135.621 27.2628 135.583 28.396 135.67 29.5238C135.723 30.2021 135.873 30.8795 136.185 31.4874C135.43 31.4981 134.673 31.5026 133.917 31.4999C133.786 31.4821 133.56 31.5319 133.546 31.3459C133.276 30.3463 133.239 29.303 133.206 28.2731C133.195 26.3744 133.379 24.482 133.545 22.5931C132.289 23.4921 130.797 23.9532 129.337 24.4019C128.048 24.8425 126.688 25.3846 125.83 26.4982C124.975 27.6189 125.424 29.4624 126.696 30.0685C127.464 30.4121 128.345 30.3596 129.147 30.1682C130.238 29.9074 131.28 29.4223 132.155 28.7146C131.556 29.8451 130.487 30.6445 129.344 31.1705C128.329 31.6219 127.184 31.8435 126.081 31.6432C125.213 31.4946 124.402 31.0174 123.866 30.3178C123.026 29.2398 122.896 27.6883 123.49 26.4661C124.092 25.2083 125.247 24.2781 126.563 23.8491C128.305 23.1824 130.157 22.8557 131.885 22.1507C132.443 21.9192 132.992 21.6237 133.407 21.1768C133.801 20.7149 133.827 20.0392 133.634 19.4865C133.457 18.947 133.021 18.5304 132.528 18.2732C131.891 17.9358 131.164 17.8272 130.453 17.8005C129.32 17.756 128.192 17.9777 127.119 18.3328C126.367 18.5696 125.683 18.9693 124.974 19.3075C125.669 18.1726 126.863 17.4382 128.109 17.043ZM144.806 17.0759C145.928 16.6415 147.155 16.5561 148.344 16.6567C149.417 16.7662 150.479 17.205 151.239 17.9839C152.026 18.7726 152.485 19.8648 152.541 20.9739C152.577 21.5685 152.447 22.1542 152.376 22.7417C152.107 24.8078 151.942 26.8978 152.072 28.9817C152.121 29.8513 152.275 30.7468 152.762 31.4874C151.946 31.4821 151.128 31.5462 150.317 31.4536C149.811 30.7718 149.782 29.8896 149.757 29.076C149.755 28.0034 149.719 26.929 149.814 25.8599C149.943 24.5229 150.25 23.2064 150.309 21.8623C150.335 21.1021 150.309 20.2769 149.85 19.6333C149.36 18.9969 148.577 18.6568 147.811 18.493C146.358 18.226 144.789 18.4726 143.54 19.2808C142.767 19.7775 142.116 20.4932 141.778 21.3549C141.265 22.6509 140.938 24.0253 140.879 25.4211C140.837 26.4305 140.802 27.4408 140.767 28.452C140.738 29.4926 140.823 30.6106 141.446 31.4874C140.495 31.4928 139.542 31.5355 138.593 31.4545C138.17 29.449 138.152 27.3669 138.478 25.3463C138.799 23.2874 139.174 21.2071 139.026 19.1153C138.985 18.3729 138.784 17.6447 138.444 16.9842C139.361 16.986 140.277 16.9976 141.193 16.9842C141.692 17.7783 141.614 18.7467 141.649 19.6422C142.397 18.4841 143.502 17.5441 144.806 17.0759Z" fill="#0F1E7D"/>
</svg>
