<svg width="139" height="42" viewBox="0 0 139 42" fill="none" xmlns="http://www.w3.org/2000/svg">
<g clip-path="url(#clip0_718_344)">
<path fill-rule="evenodd" clip-rule="evenodd" d="M42.5355 25.8763C42.1411 25.017 41.6836 24.2133 41.1158 23.5289C40.5479 22.8446 39.9248 22.2717 39.2386 21.7545C38.8995 21.468 38.4972 21.2372 38.1029 21.0701C37.9293 20.9587 37.7085 20.8394 37.535 20.728C37.7085 20.6723 37.9293 20.5529 38.1029 20.4415C38.4972 20.2665 38.8995 20.0437 39.2386 19.7572C39.9169 19.24 40.5479 18.6671 41.1158 17.9827C41.6836 17.2984 42.1411 16.4947 42.5355 15.6353C42.9298 14.7759 43.2138 13.8609 43.3873 12.8821C43.4425 12.1978 43.4977 11.5055 43.4977 10.8769V9.9618C43.4425 9.15812 43.269 8.35444 42.985 7.55871C42.7011 6.81073 42.3619 6.015 41.9045 5.32272C41.447 4.57473 40.9423 3.94611 40.3113 3.31749C39.6882 2.74456 39.002 2.17164 38.2685 1.71012C37.4719 1.2486 36.6753 0.906435 35.7682 0.675674C34.8612 0.389212 33.9542 0.214153 32.9289 0.214153C31.9666 0.158452 31.0517 0.269853 30.1447 0.444913C29.2929 0.675674 28.441 1.01784 27.6997 1.4157C26.903 1.81356 26.2247 2.33079 25.6017 2.95941C25.0338 3.53233 24.5211 4.21666 24.1268 4.96464C23.7324 5.71262 23.4485 6.50835 23.3301 7.36774C23.2197 7.82926 23.2197 8.22712 23.2197 8.68864C23.2197 9.0865 23.2197 9.43662 23.2749 9.77879C22.4783 9.31727 21.6817 8.9194 20.893 8.68864C19.9308 8.34648 18.795 8.17142 17.6593 8.11572C16.5787 8.11572 15.5613 8.22712 14.5911 8.45788C13.6841 8.63294 12.7771 8.9751 11.9253 9.42867C11.1839 9.82653 10.3952 10.3438 9.65376 10.9724C9.1963 11.3702 8.74673 11.7761 8.28927 12.2296C8.28927 12.2296 7.61097 12.9139 7.26394 13.3755C6.86958 13.7733 6.46733 14.2906 6.07297 14.8078L5.16594 15.9536C4.93721 16.2958 4.70849 16.5823 4.42455 16.8687C4.0854 17.3302 3.68315 17.7281 3.28879 18.126C2.61049 18.8103 1.8691 19.4469 1.07249 19.9561C0.898971 20.0675 0.73334 20.1869 0.559821 20.2983C0.449401 20.354 0.331093 20.4097 0.220672 20.4734C0.110251 20.5291 -0.00805664 20.5848 -0.00805664 20.7041C-0.00805664 20.8792 0.102364 20.9349 0.220672 20.9906C0.331093 21.0463 0.449401 21.102 0.559821 21.1656C0.73334 21.277 0.898971 21.3964 1.07249 21.5078C1.8691 22.025 2.6026 22.6536 3.28879 23.338C3.68315 23.7358 4.0854 24.1417 4.42455 24.5952C4.70849 24.8817 4.93721 25.1681 5.16594 25.5103L6.07297 26.6561C6.46733 27.1734 6.86958 27.6906 7.26394 28.0885C7.60309 28.55 8.28927 29.1786 8.28927 29.1786C8.74673 29.6958 9.1963 30.0937 9.65376 30.4995C10.3952 31.1281 11.1839 31.6454 11.9253 32.0432C12.7771 32.5047 13.6841 32.8469 14.5911 33.014C15.5534 33.3005 16.5787 33.3562 17.6593 33.3562C18.795 33.3005 19.9308 33.1254 20.893 32.7832C21.6896 32.5525 22.4862 32.1546 23.2749 31.6931C23.2197 32.0353 23.2197 32.3774 23.2197 32.7832C23.2197 33.2448 23.2197 33.6426 23.3301 34.1042C23.4406 34.9635 23.7245 35.7672 24.1268 36.5072C24.5211 37.2552 25.0338 37.9396 25.6017 38.5125C26.2247 39.1411 26.9109 39.6583 27.6997 40.0562C28.441 40.454 29.2929 40.8042 30.1447 41.027C31.0517 41.202 31.9587 41.3134 32.9289 41.2577C33.9542 41.2577 34.8612 41.0827 35.7682 40.7962C36.6753 40.5655 37.4719 40.2233 38.2685 39.7618C39.0099 39.3002 39.6882 38.7273 40.3113 38.1544C40.9344 37.5258 41.447 36.8972 41.9045 36.1492C42.3619 35.4648 42.7011 34.6612 42.985 33.9132C43.269 33.1095 43.4425 32.3058 43.4977 31.4464V30.587C43.4977 29.9584 43.4425 29.2661 43.3873 28.5818C43.2138 27.611 42.9298 26.688 42.5355 25.8286V25.8763Z" fill="#FFCB05"/>
<path fill-rule="evenodd" clip-rule="evenodd" d="M40.1459 26.7306C39.8068 25.9826 39.4045 25.2983 38.8366 24.6696C38.324 24.041 37.7009 23.5238 37.0226 23.1259C36.2812 22.6644 35.5477 22.3222 34.7511 22.1551C33.9545 21.8687 33.1026 21.7573 32.2508 21.7573C31.3438 21.7573 30.492 21.8687 29.585 22.0994C28.8436 22.2745 28.1653 22.4973 27.487 22.8474C26.8639 23.1339 26.296 23.5317 25.7833 23.9376C25.2707 24.2797 24.758 24.6855 24.3084 25.0834C23.7958 25.4256 23.3462 25.7677 22.8335 26.1178C22.3761 26.4043 21.8713 26.6908 21.3034 26.9215C20.6803 27.0966 20.0572 27.208 19.4262 27.208C18.5744 27.208 17.7226 27.0329 16.926 26.6908C16.1294 26.3486 15.4511 25.8871 14.8832 25.2585C14.2601 24.6855 13.8027 23.9376 13.5187 23.1418C13.1796 22.3938 13.0613 21.5345 13.0613 20.6751C13.0613 19.8714 13.1717 19.012 13.5187 18.272C13.8027 17.4683 14.2601 16.784 14.8832 16.1553C15.4511 15.5267 16.1294 15.0652 16.926 14.723C17.7226 14.3809 18.5744 14.2058 19.4262 14.2058C20.0493 14.2058 20.6724 14.3172 21.3034 14.4923C21.8713 14.723 22.3839 15.0095 22.8335 15.296C23.3462 15.6381 23.7958 15.9803 24.3084 16.3861C24.7659 16.7283 25.2707 17.1341 25.7833 17.532C26.296 17.8741 26.8639 18.2799 27.487 18.5664C28.1653 18.9086 28.8514 19.1393 29.585 19.3144C30.492 19.5451 31.3438 19.6565 32.2508 19.6565C33.1026 19.6565 33.9545 19.5451 34.7511 19.3144C35.5477 19.0836 36.2812 18.7415 37.0226 18.2799C37.7009 17.8821 38.3319 17.3649 38.8366 16.7362C39.4045 16.1076 39.7989 15.4153 40.1459 14.6753C40.4851 13.8716 40.7138 13.0679 40.8242 12.2085C40.9346 11.2935 40.9346 10.3784 40.769 9.45533C40.5955 8.59595 40.3115 7.73656 39.9172 6.98858C39.5228 6.2406 39.0102 5.61197 38.4423 5.03905C37.8192 4.41042 37.1961 3.9489 36.4547 3.55104C35.7133 3.20888 34.9246 2.92242 34.128 2.74736C33.3314 2.5723 32.4243 2.5166 31.5725 2.63595C30.7759 2.74736 29.9241 2.97812 29.1906 3.38394C28.5123 3.7261 27.8261 4.24332 27.3134 4.81625C26.7456 5.38917 26.3512 6.07349 26.0042 6.82148C25.7202 7.56946 25.4915 8.36519 25.4363 9.16887C25.4363 9.97255 25.4915 10.8319 25.7754 11.6356C25.7754 11.747 25.8306 11.8664 25.8859 11.9778C25.8859 12.0335 25.8859 12.0892 25.9411 12.1528C25.9411 12.2085 25.9411 12.2642 25.9963 12.3279C25.9963 12.3279 26.0515 12.3836 26.1067 12.3836C26.1067 12.3836 26.1619 12.3279 26.1619 12.2722V11.93C26.2171 11.4685 26.3354 11.0707 26.5011 10.6728C26.8402 9.92481 27.3529 9.29619 27.976 8.84262C28.6543 8.44476 29.4509 8.214 30.2475 8.1583C31.0993 8.1026 31.9511 8.214 32.6925 8.61982C33.3708 8.96198 33.9387 9.5349 34.3409 10.2272C34.7353 10.9115 34.9088 11.7709 34.9088 12.5746C34.9088 13.3783 34.6801 14.2376 34.2305 14.922C33.8362 15.6063 33.2052 16.1792 32.4717 16.585C31.7303 16.9272 30.8785 17.1023 30.0897 16.9829C29.5219 16.9272 28.954 16.7521 28.4413 16.5214C27.9286 16.2906 27.416 15.9485 26.9664 15.6063C26.4537 15.2084 25.9411 14.8026 25.4915 14.4048C24.9788 13.9432 24.4662 13.4897 23.9614 13.0838C23.3935 12.6223 22.8256 12.2245 22.2025 11.938C21.5242 11.5401 20.8381 11.2537 20.1045 11.0229C19.3079 10.7922 18.4561 10.6808 17.6043 10.6808C16.7525 10.6808 15.9007 10.7365 15.0489 10.9672C14.3075 11.1423 13.6292 11.3651 12.9509 11.7152C12.383 12.0574 11.8151 12.4632 11.2472 12.9167C10.7346 13.3146 10.285 13.8318 9.82753 14.3491C9.37008 14.8663 8.97572 15.3835 8.58136 15.8928C8.1239 16.41 7.72954 16.9829 7.33518 17.5001C6.87772 18.0174 6.48336 18.4709 5.9707 18.9881C5.51324 19.4497 5.06367 19.8475 4.49579 20.2454C4.38537 20.3011 4.26706 20.3568 4.15664 20.4204C4.10143 20.4761 3.98312 20.5318 3.92791 20.5955C3.8727 20.5955 3.75439 20.6512 3.75439 20.7069C3.75439 20.8183 3.86482 20.882 3.92791 20.9377C3.98312 20.9377 4.10143 20.9934 4.15664 21.0491C4.26706 21.1048 4.38537 21.1605 4.49579 21.2798C5.06367 21.622 5.52113 22.0278 5.9707 22.4814C6.48336 22.9429 6.87772 23.4522 7.33518 23.9694C7.72954 24.4866 8.13179 25.0595 8.58136 25.5768C8.97572 26.094 9.37796 26.6112 9.82753 27.1205C10.2771 27.6297 10.7346 28.1549 11.2472 28.5528C11.8151 29.0143 12.383 29.4122 12.9509 29.7543C13.6292 30.0965 14.3153 30.3272 15.0489 30.5023C15.9007 30.7331 16.7525 30.7888 17.6043 30.7888C18.4561 30.7888 19.3079 30.6774 20.1045 30.4466C20.8459 30.2158 21.5242 29.9294 22.2025 29.5872C22.8256 29.2451 23.3935 28.8392 23.9614 28.3857C24.4741 27.9878 24.9867 27.5263 25.4915 27.1284C25.949 26.6669 26.4537 26.269 26.9664 25.8712C27.4239 25.529 27.9286 25.1868 28.4413 24.9561C28.954 24.7253 29.5219 24.5582 30.0897 24.4946C30.8863 24.3832 31.7382 24.5503 32.4717 24.8924C33.2131 25.2346 33.8362 25.8632 34.2305 26.5555C34.688 27.2398 34.9088 28.0992 34.9088 28.9029C34.9088 29.7623 34.7353 30.566 34.3409 31.2503C33.9466 31.9346 33.3787 32.5075 32.6925 32.8577C31.9511 33.2555 31.0993 33.3749 30.2475 33.3192C29.4509 33.3192 28.6543 33.0327 27.976 32.6348C27.3529 32.1733 26.8402 31.5447 26.5011 30.8047C26.3275 30.4068 26.2171 30.001 26.1619 29.5474V29.2053C26.1619 29.1496 26.1067 29.0939 26.1067 29.0939C26.0515 29.0939 25.9963 29.1496 25.9963 29.1496C25.9411 29.2053 25.9411 29.261 25.9411 29.3246C25.8859 29.3803 25.8859 29.436 25.8859 29.4997C25.8306 29.6111 25.7754 29.7304 25.7754 29.8419C25.4915 30.6455 25.4363 31.5049 25.4363 32.3086C25.4915 33.1123 25.7202 33.916 26.0042 34.656C26.3433 35.404 26.7456 36.0883 27.3134 36.6612C27.8261 37.2341 28.5044 37.7514 29.1906 38.0935C29.932 38.4914 30.7838 38.7222 31.5725 38.8415C32.4243 38.9529 33.3314 38.8972 34.128 38.7301C34.9246 38.5551 35.7212 38.2686 36.4547 37.9264C37.1961 37.5286 37.8192 37.0113 38.4423 36.4384C39.0102 35.8655 39.5228 35.2369 39.9172 34.4889C40.3115 33.7409 40.5955 32.8815 40.769 32.0221C40.9425 31.1071 40.9425 30.192 40.8242 29.2689C40.7138 28.4095 40.4851 27.6059 40.1459 26.8022V26.7306Z" fill="#3D1A6F"/>
<path fill-rule="evenodd" clip-rule="evenodd" d="M28.0547 20.7092L27.9995 20.6535C26.9742 20.4227 26.0672 19.8498 25.2706 19.2769C24.3635 18.5926 23.5117 17.9003 22.6599 17.2717C21.7529 16.643 20.7275 16.1258 19.647 16.0701C18.7952 16.0144 17.8882 16.1815 17.1468 16.643C16.4685 17.0409 15.9006 17.6138 15.4983 18.3061C15.0409 19.0541 14.8752 19.9135 14.8752 20.7092V20.7649C14.8752 21.5686 15.0488 22.428 15.4983 23.168C15.8927 23.8523 16.4606 24.4253 17.1468 24.8311C17.8882 25.2289 18.7952 25.4597 19.647 25.404C20.7275 25.3483 21.745 24.8311 22.6599 24.2025C23.5117 23.5738 24.3635 22.8815 25.2706 22.1972C26.0672 21.6243 26.9742 21.0514 27.9995 20.8206C27.9995 20.8206 28.0547 20.7649 28.0547 20.7092Z" fill="#C6168D"/>
<path fill-rule="evenodd" clip-rule="evenodd" d="M110.452 23.1113L114.254 14.0559L117.835 23.1113H110.452ZM119.712 34.2276H129.705C127.717 33.0261 127.094 31.8802 125.84 28.9599C118.97 12.8623 116.525 7.24451 116.525 7.24451C116.525 7.24451 114.995 9.82266 110.05 10.7934C110.389 11.0242 110.791 11.6528 110.791 12.3372C110.791 12.7987 110.681 13.3716 110.397 14.1116L103.866 28.9519C102.447 32.0473 101.65 33.4239 99.7177 34.0525C98.1876 33.1932 97.9037 32.3338 97.9037 29.2384V13.9445C97.9037 10.7377 98.1876 9.93406 99.836 9.01898H90.9235C92.5167 9.93406 92.8559 10.7377 92.8559 13.9445V19.1565H80.4177V13.9445C80.4177 10.7377 80.7569 9.93406 82.4053 9.01898H73.4297C75.1333 9.93406 75.4173 10.7377 75.4173 13.9445V29.2384C75.4173 32.4452 75.1333 33.2489 73.4297 34.2196H82.4053C80.7569 33.2489 80.4177 32.4452 80.4177 29.2384V22.7055H92.8559V29.2384C92.8559 32.4452 92.5167 33.2489 90.8683 34.2196H108.528C107.676 33.7024 106.998 32.9624 106.998 31.9836C106.998 31.2993 107.226 30.8378 107.794 29.5806L109.214 26.143H119.097L120.571 29.9784C121.029 30.9492 121.195 31.4107 121.195 32.0393C121.195 32.9544 120.398 33.7024 119.72 34.2196L119.712 34.2276Z" fill="#3D1A6F"/>
<path fill-rule="evenodd" clip-rule="evenodd" d="M136.74 28.355V13.0612C136.74 9.85439 137.024 9.05071 138.617 8.13562H129.76C131.353 9.05071 131.692 9.85439 131.692 13.0612V28.355C131.692 31.5618 131.353 32.3655 129.76 33.3363H138.617C137.024 32.3655 136.74 31.5618 136.74 28.355Z" fill="#3D1A6F"/>
<path fill-rule="evenodd" clip-rule="evenodd" d="M72.6331 7.4115C71.726 8.21518 70.2511 9.18597 66.3312 9.18597H55.1472C52.9309 9.18597 52.0238 7.86506 51.6295 7.06934C50.7777 9.01887 48.6166 11.7641 47.3152 12.8543H57.7657V29.0712C57.7657 32.3337 57.3083 33.3681 55.7781 34.4025H64.6907C63.0975 33.4318 62.8135 32.6281 62.8135 29.4213V12.8543H64.2884C66.5047 12.8543 67.6957 12.6235 68.6027 12.2813C70.9847 11.422 72.4674 9.64749 72.6331 7.4115Z" fill="#3D1A6F"/>
</g>
<defs>
<clipPath id="clip0_718_344">
<rect width="138.617" height="41.1072" fill="white" transform="translate(0 0.198242)"/>
</clipPath>
</defs>
</svg>
