<svg width="110" height="31" viewBox="0 0 110 31" fill="none" xmlns="http://www.w3.org/2000/svg">
<g clip-path="url(#clip0_713_222)">
<path d="M16.345 0.582217C23.7877 1.36784 29.5904 7.74421 29.5904 15.4909C29.5904 23.7765 22.9677 30.4909 14.7952 30.5C6.63172 30.5 0 23.7948 0 15.5091C0 7.22351 6.62271 0.5 14.7952 0.5C15.3178 0.5 15.8404 0.527406 16.345 0.582217ZM17.1109 29.4495C24.7158 28.1523 29.8427 20.8624 28.5632 13.1523C27.5 6.73934 22.346 2.06212 16.2639 1.42266C15.0385 1.29476 13.768 1.3313 12.4885 1.54141C10.9748 1.7972 9.56012 2.29963 8.27163 2.99391C14.9754 5.29598 18.5706 8.8039 18.8229 12.3849C18.949 14.6048 17.9309 16.2034 16.5973 17.5097L26.0673 16.8429C26.3376 16.8246 26.4187 17.1443 26.0944 17.2357L3.49607 23.8039C5.79374 27.0195 9.3709 29.1571 13.3355 29.5773C14.5609 29.7052 15.8314 29.6778 17.1109 29.4586V29.4495ZM10.8937 15.8289C12.1371 11.106 10.7225 6.16382 7.33454 3.54202C2.73018 6.49269 0.0720839 12.056 1.0272 17.8477C1.34256 19.7661 2.02736 21.5201 2.99148 23.0639C6.59567 22.0499 9.75836 20.1224 10.8847 15.8289H10.8937Z" fill="white"/>
<path d="M28.5544 13.1614C29.8339 20.8623 24.707 28.1614 17.1021 29.4586C15.8226 29.6778 14.5521 29.7143 13.3267 29.5773C9.3621 29.1571 5.78493 27.0195 3.48726 23.8039L26.0856 17.2357C26.4099 17.1443 26.3288 16.8246 26.0585 16.8428L16.5885 17.5097C17.9221 16.2034 18.9402 14.6047 18.8141 12.3849C18.5618 8.79473 14.9666 5.29595 8.26282 2.99388C9.55132 2.2996 10.966 1.8063 12.4797 1.54138C13.7592 1.32214 15.0297 1.28559 16.2551 1.42262C22.3372 2.07122 27.4912 6.73931 28.5544 13.1522V13.1614ZM1.0274 17.8477C1.34277 19.7661 2.02756 21.5201 2.99168 23.0639C6.59588 22.0499 9.75856 20.1224 10.8849 15.8288C12.1283 11.1059 10.7137 6.16379 7.32573 3.54199C2.73038 6.49266 0.0722872 12.056 1.0274 17.8477Z" fill="#CE181E"/>
<path d="M106.161 13.7187V8.78569H101.278V13.7187H98.6016V1.97083H101.278V6.64805H106.161V1.97083H108.855V13.7187H106.161Z" fill="#231F20"/>
<path d="M48.4585 1.97083V9.32466C48.4585 10.1377 48.5756 10.8411 48.8099 11.4166C49.0442 11.983 49.3776 12.458 49.8101 12.8143C50.2426 13.1797 50.7652 13.4538 51.3689 13.6182C51.9726 13.7918 52.6664 13.874 53.4053 13.874C54.1441 13.874 54.8289 13.7918 55.4236 13.6182C56.0093 13.4538 56.5049 13.1797 56.9103 12.8234C57.3068 12.458 57.6222 11.9921 57.8474 11.4166C58.0637 10.8502 58.1808 10.1468 58.1808 9.32466V1.97083H55.6759V9.25158C55.6759 9.99153 55.4957 10.5945 55.1353 11.0329C54.7658 11.4806 54.1892 11.709 53.4053 11.709C52.6213 11.709 52.0627 11.4806 51.6933 11.0329C51.3238 10.5945 51.1436 9.99153 51.1436 9.25158V1.97083H48.4675H48.4585Z" fill="#231F20"/>
<path d="M40.7365 13.7187V4.16327H37.5918V1.97083H46.5843V3.02137C46.5843 3.6517 46.0797 4.16327 45.4579 4.16327H43.4126V13.7187H40.7365Z" fill="#231F20"/>
<path d="M86.4466 1.97083H83.7705V13.7187H86.4466V1.97083Z" fill="#231F20"/>
<path d="M74.8502 8.23755L74.9403 8.35631L78.3643 12.8234C78.7968 13.3898 79.4546 13.7187 80.1664 13.7187H82.3019L77.4002 7.39711L77.3281 7.30576L77.4002 7.21441L81.4279 1.96167H78.6436L74.9493 7.02257L74.8592 7.14133V6.93122V1.96167H72.1831V13.7095H74.8592V8.23755H74.8502Z" fill="#231F20"/>
<path d="M68.678 13.7187C67.8851 13.7187 67.1372 13.2893 66.7227 12.6042L64.6413 9.11455H63.3167V13.7187H60.6406V1.97083H65.4162C66.6416 1.97083 67.6057 2.29969 68.2725 2.93916C68.9393 3.57862 69.2727 4.4556 69.2727 5.53355C69.2727 6.08167 69.1285 6.64805 68.8402 7.19616C68.5608 7.73514 68.0563 8.18276 67.3534 8.51163L67.2003 8.58471L70.453 13.7187H68.678ZM63.3257 7.35146H64.8846C65.4432 7.35146 65.8757 7.19616 66.155 6.88556C66.4344 6.5841 66.5785 6.18215 66.5785 5.70712C66.5785 5.23209 66.4434 4.82101 66.1641 4.51041C65.8847 4.19981 65.4522 4.04452 64.8846 4.04452H63.3257V7.34232V7.35146Z" fill="#231F20"/>
<path d="M88.645 13.2162V10.9598C89.501 11.3618 90.5913 11.7546 91.7356 11.7546C93.0421 11.7546 93.7089 11.2978 93.7089 10.43C93.7089 9.40682 92.8169 9.2972 91.0418 8.52071C89.8344 7.9726 88.6721 7.12302 88.6721 5.14982C88.6721 2.85688 90.3931 1.77893 92.7808 1.77893C94.0513 1.77893 95.1326 2.08039 95.7363 2.30877V4.50122C95.1326 4.21803 94.0513 3.88003 92.9701 3.88003C91.7987 3.88003 91.249 4.31852 91.249 5.07674C91.249 5.8715 91.9158 6.11815 93.1052 6.57491C94.637 7.3514 96.4211 7.68941 96.4211 10.3386C96.4211 12.6315 94.619 13.8739 92.2132 13.8739C90.7355 13.8739 89.5641 13.609 88.654 13.2071L88.645 13.2162Z" fill="#231F20"/>
<path d="M92.8262 29.0476V17.2997H100.08V18.3685C100.08 18.9897 99.584 19.5013 98.9713 19.5013H95.5023V22.0317H99.3948V23.9958H95.5023V26.8734H100.08V29.0658H92.8262V29.0476Z" fill="#231F20"/>
<path d="M66.3533 29.0476V17.2997H67.6508C68.4076 17.2997 69.0294 17.93 69.0294 18.6974V26.9373H73.3003V29.0567H66.3442L66.3533 29.0476Z" fill="#231F20"/>
<path d="M52.45 17.3088H49.7739V29.0476H52.45V17.3088Z" fill="#231F20"/>
<path d="M62.9382 29.0476C62.1453 29.0476 61.3974 28.6182 60.983 27.9331L58.9015 24.4434H57.577V29.0476H54.9009V17.2997H59.6764C60.9019 17.2997 61.866 17.6286 62.5328 18.268C63.1995 18.9075 63.5329 19.7845 63.5329 20.8624C63.5329 21.4105 63.3888 21.9769 63.1004 22.525C62.8211 23.064 62.3165 23.5116 61.6137 23.8405L61.4605 23.9136L64.7133 29.0476H62.9382ZM57.586 22.6803H59.1448C59.7035 22.6803 60.136 22.525 60.4153 22.2144C60.6946 21.913 60.8388 21.511 60.8388 21.036C60.8388 20.5609 60.7036 20.1499 60.4243 19.8393C60.145 19.5287 59.7125 19.3734 59.1448 19.3734H57.586V22.6712V22.6803Z" fill="#231F20"/>
<path d="M43.8811 17.2997H40.8086L36.4385 29.0476H38.3667C38.8533 29.0476 39.2858 28.7278 39.439 28.2619L39.8895 26.8825H44.593L45.2778 29.0476H48.1791L43.8811 17.2997ZM40.5743 24.7723L41.6285 21.8033C41.8628 21.1365 42.0971 20.4331 42.2502 19.9124H42.2863C42.4214 20.4513 42.6557 21.1182 42.89 21.8033L43.8992 24.7723H40.5653H40.5743Z" fill="#231F20"/>
<path d="M102.233 28.5542V26.2978C103.089 26.6906 104.179 27.0926 105.324 27.0926C106.63 27.0926 107.297 26.6358 107.297 25.768C107.297 24.7448 106.405 24.6352 104.63 23.8587C103.422 23.3106 102.26 22.461 102.26 20.4878C102.26 18.1949 103.981 17.1169 106.369 17.1169C107.639 17.1169 108.72 17.4184 109.324 17.6468V19.8392C108.72 19.556 107.639 19.218 106.558 19.218C105.387 19.218 104.837 19.6565 104.837 20.4147C104.837 21.2095 105.504 21.4562 106.693 21.9129C108.225 22.6894 110.009 23.0274 110.009 25.6766C110.009 27.9696 108.207 29.2119 105.801 29.2119C104.323 29.2119 103.152 28.947 102.242 28.5451L102.233 28.5542Z" fill="#231F20"/>
<path d="M80.1572 17.2997H81.8152C82.5991 17.2997 83.3379 17.7108 83.7524 18.3868L86.9872 23.6486C87.3566 24.2333 87.7801 25.0098 88.0234 25.5579H88.0774C88.0414 25.0281 88.0234 24.2972 88.0234 23.7674V17.2997H90.3661V29.0476H87.4287L83.5001 22.6895C83.1307 22.1048 82.7522 21.4105 82.4819 20.8807H82.4459C82.4639 21.3923 82.5 21.9952 82.5 22.5616V29.0476H80.1572V17.2997Z" fill="#231F20"/>
<path d="M77.7064 17.3088H75.0303V29.0476H77.7064V17.3088Z" fill="#231F20"/>
</g>
<defs>
<clipPath id="clip0_713_222">
<rect width="110" height="30" fill="white" transform="translate(0 0.5)"/>
</clipPath>
</defs>
</svg>
