<svg width="156" height="42" viewBox="0 0 156 42" fill="none" xmlns="http://www.w3.org/2000/svg">
<path d="M40.7808 20.3405C40.7029 20.2366 38.5743 17.4331 34.6027 14.8632C34.9401 13.3317 35.0959 11.9818 35.1738 10.8656C35.3555 8.21787 35.0959 6.5046 35.0959 6.42673L35.044 6.08927L34.7065 6.03735C34.6286 6.03735 32.9154 5.75181 30.2676 5.95948C29.1773 6.03735 27.8015 6.19311 26.296 6.50461C23.7261 2.53296 20.9225 0.456278 20.8187 0.352444L20.5332 0.144775L20.2476 0.352444C20.1178 0.456278 17.3403 2.53295 14.7444 6.53056C13.2129 6.1931 11.863 6.03735 10.7468 5.95948C8.09905 5.77777 6.38579 6.03735 6.30791 6.03735L5.94449 6.08927L5.89258 6.42673C5.86662 6.5046 5.63299 8.21787 5.8147 10.8656C5.89258 11.9818 6.04833 13.3317 6.38579 14.8632C2.36222 17.4331 0.285544 20.2107 0.207668 20.3405L0 20.626L0.207668 20.9116C0.285544 21.0414 2.38818 23.8189 6.38579 26.4148C6.07429 27.9204 5.89258 29.2962 5.8147 30.3864C5.63299 33.0342 5.86662 34.7474 5.89258 34.8253L5.94449 35.1887L6.30791 35.2407C6.35983 35.2407 7.29434 35.3704 8.79993 35.3704C9.37102 35.3704 10.02 35.3445 10.7468 35.2926C11.863 35.2147 13.2388 35.0589 14.7444 34.7215C17.3403 38.7191 20.1178 40.8217 20.2476 40.9256L20.5332 41.1592L20.8187 40.9256C20.9485 40.8477 23.7261 38.7191 26.296 34.7474C27.8015 35.0589 29.1514 35.2407 30.2676 35.3185C30.9944 35.3704 31.6434 35.3964 32.2145 35.3964C33.7201 35.3964 34.6546 35.2666 34.7065 35.2666L35.0699 35.2147L35.1218 34.8513C35.1218 34.7734 35.3814 33.0601 35.1997 30.4124C35.1218 29.2962 34.9661 27.9463 34.6286 26.4407C38.6262 23.8708 40.7548 21.0673 40.8327 20.9635L41.0663 20.6779L40.7808 20.3405ZM32.6298 20.626C33.0452 19.7434 33.4086 18.8608 33.6941 18.0042C35.2516 19.0945 36.29 20.1069 36.7572 20.6001C36.29 21.0933 35.2516 22.1316 33.6682 23.2219C33.4086 22.3912 33.0452 21.5086 32.6298 20.626ZM30.2676 6.89399C32.1366 6.76419 33.5384 6.86802 34.1614 6.91994C34.3171 8.39957 34.6546 14.2662 31.6694 20.4184C31.28 21.1971 30.8647 21.9759 30.4234 22.6767C30.0859 23.1959 29.7484 23.7151 29.385 24.1823L29.2812 24.3381L29.3071 24.5458C29.6706 26.8561 29.4888 28.777 29.385 29.5038C28.6582 29.6077 26.7632 29.7894 24.4269 29.426L24.2193 29.4L24.0635 29.5298C23.6741 29.8153 23.2329 30.1268 22.7916 30.4124C22.3762 30.2307 21.9349 30.049 21.5196 29.8153C22.3762 29.2962 23.2069 28.7251 23.9856 28.1021C26.2181 28.6472 27.8275 28.4914 27.9054 28.4914L28.2948 28.4655L28.3207 28.0761C28.3207 27.9982 28.4765 26.3888 27.9313 24.1823C28.762 23.144 29.4888 22.0278 30.1378 20.8856C30.5531 20.1328 30.9425 19.3281 31.28 18.5234C33.4865 13.1759 33.0452 8.763 33.0192 8.55533L32.9932 8.16595L32.6039 8.11403C32.4222 8.08807 28.139 7.67274 22.8954 9.77537C22.4801 9.51579 22.0388 9.2562 21.5975 9.02258C24.9461 7.54294 28.113 7.04974 30.2676 6.89399ZM30.2676 24.6236C30.4234 24.416 30.5791 24.2083 30.7089 24.0006C32.1107 27.8165 32.1366 31.1133 32.1107 32.2295C30.9944 32.2814 27.7237 32.2295 23.8818 30.8537C24.0895 30.7239 24.2712 30.5941 24.4529 30.4383C27.516 30.8796 29.7744 30.4383 29.8782 30.4383L30.1897 30.3864L30.2416 30.0749C30.2936 29.9451 30.7089 27.6608 30.2676 24.6236ZM13.9138 23.6891C13.135 22.7287 12.4341 21.6903 11.8111 20.626C12.4082 19.5617 13.109 18.5234 13.8878 17.5629L14.0435 17.3812L13.9916 17.1476C13.6023 15.616 13.5503 14.37 13.5763 13.747C14.1993 13.747 15.4453 13.773 16.9769 14.1624L17.2105 14.2143L17.3922 14.0585C18.3786 13.2798 19.417 12.5529 20.5072 11.9299C21.5975 12.5529 22.6358 13.2538 23.5963 14.0326L23.778 14.1883L24.0116 14.1364C25.5432 13.747 26.7892 13.6951 27.3862 13.6951C27.3862 14.3181 27.3603 15.5641 26.9709 17.0957L26.919 17.3293L27.0747 17.511C27.8535 18.4715 28.5543 19.5098 29.1773 20.6001C28.5543 21.6903 27.8535 22.7287 27.0747 23.7151L26.919 23.8968L26.9709 24.1304C27.3603 25.636 27.4122 26.908 27.4122 27.531C26.7892 27.531 25.5432 27.505 24.0376 27.0897L23.8039 27.0378L23.6222 27.1935C22.6618 27.9723 21.6234 28.6732 20.5591 29.2702C19.4689 28.6472 18.4305 27.9463 17.4701 27.1676L17.2884 27.0118L17.0547 27.0637C15.5232 27.4531 14.2772 27.505 13.6542 27.4791C13.6282 26.8561 13.6801 25.6101 14.0695 24.0785L14.1214 23.8449L13.9138 23.6891ZM30.2676 11.2031L30.2157 10.8916L29.9042 10.8397C29.8004 10.8137 27.542 10.3984 24.4789 10.8397C24.2971 10.7099 24.0895 10.5541 23.8818 10.4243C27.7237 9.02258 30.9685 9.02258 32.0847 9.04854C32.1366 10.1648 32.1107 13.4355 30.7089 17.2514C30.5791 17.0438 30.4234 16.8361 30.2676 16.6284C30.7089 13.5653 30.2936 11.3069 30.2676 11.2031ZM20.4553 8.4515C19.5727 8.03616 18.7161 7.67274 17.8594 7.3872C18.9497 5.82969 19.988 4.8173 20.4813 4.35005C20.9745 4.8173 21.9868 5.82969 23.0771 7.3872C22.2205 7.67274 21.3638 8.03616 20.4553 8.4515ZM20.4813 1.33887C21.234 1.93591 23.2848 3.77896 25.2576 6.71227C24.8682 6.81611 24.4529 6.91994 24.0376 7.04973C22.3762 4.63559 20.8447 3.36363 20.7928 3.31171L20.4813 3.05213L20.1697 3.31171C20.0919 3.36363 18.5603 4.63559 16.899 7.04973C16.4836 6.91994 16.0683 6.81611 15.6789 6.71227C17.6777 3.77896 19.7544 1.96187 20.4813 1.33887ZM6.77517 6.91994C8.2548 6.76419 14.0955 6.42673 20.2476 9.41196C21.0523 9.80133 21.8311 10.2167 22.5579 10.6839C23.0771 10.9954 23.5963 11.3588 24.0376 11.6963L24.1933 11.8261L24.375 11.8001C26.6853 11.4367 28.6063 11.6184 29.3331 11.7223C29.4369 12.4491 29.6186 14.3441 29.2552 16.6803L29.2293 16.888L29.3591 17.0438C29.6706 17.4591 29.9561 17.9263 30.2416 18.3676C30.0599 18.8089 29.8782 19.2243 29.6446 19.6396C29.1254 18.783 28.5543 17.9263 27.9313 17.1476C28.4505 14.9152 28.3207 13.3057 28.3207 13.2538L28.2948 12.8644L27.8794 12.8125C27.8015 12.8125 26.2181 12.6568 23.9856 13.2019C22.9473 12.3972 21.857 11.6444 20.7149 11.0214C19.9361 10.606 19.1314 10.2167 18.3007 9.87921C12.9533 7.67274 8.54034 8.11403 8.35863 8.13999L7.96926 8.16595L7.91734 8.55533C7.89138 8.73704 7.47605 13.0202 9.57868 18.2638C9.3191 18.7051 9.05951 19.1204 8.82589 19.5617C7.37221 16.1871 6.85304 13.0202 6.72325 10.8656C6.61942 8.97066 6.72325 7.54294 6.77517 6.91994ZM10.643 16.6284C10.5132 16.8101 10.3834 17.0178 10.2536 17.1995C8.85185 13.3576 8.85185 10.0869 8.8778 8.99662C9.99402 8.9447 13.2388 8.97066 17.0807 10.3724C16.873 10.5022 16.6654 10.658 16.4836 10.7878C13.4205 10.3465 11.1362 10.7878 11.0324 10.8137L10.7209 10.8656L10.643 11.1771C10.643 11.3069 10.2017 13.5653 10.643 16.6284ZM7.24242 23.2219C5.68491 22.1316 4.64657 21.1192 4.20528 20.626C4.67253 20.1328 5.68491 19.1204 7.24242 18.0302C7.52796 18.8868 7.89138 19.7434 8.30672 20.626C7.89138 21.5086 7.52796 22.3912 7.24242 23.2219ZM1.19409 20.626C1.79114 19.8732 3.63419 17.8225 6.5675 15.8497C6.67133 16.239 6.77517 16.6544 6.90496 17.0697C4.49082 18.7311 3.21885 20.2626 3.16694 20.3145L2.90735 20.626L3.16694 20.9375C3.21885 21.0154 4.49082 22.521 6.93092 24.2083C6.80113 24.6236 6.69729 25.039 6.59346 25.4283C3.66015 23.4555 1.81709 21.3788 1.19409 20.626ZM10.6689 34.3321C8.79993 34.4619 7.39817 34.384 6.77517 34.3061C6.72325 33.6831 6.61942 32.2814 6.74921 30.4124C6.90496 28.0761 7.47605 24.5198 9.24122 20.8337C9.6306 20.0549 10.0459 19.2502 10.5132 18.5234C10.8247 18.0042 11.1622 17.511 11.4996 17.0438L11.6294 16.888L11.6034 16.6803C11.24 14.3441 11.4477 12.4491 11.5515 11.6963C12.2784 11.5925 14.1733 11.4108 16.5096 11.7482L16.6913 11.7742L16.8471 11.6703C17.2624 11.3588 17.7037 11.0733 18.145 10.7878C18.5863 10.9695 19.0276 11.1771 19.4689 11.3848C18.5863 11.904 17.7297 12.501 16.9249 13.124C14.6925 12.6049 13.0831 12.7606 13.0052 12.7606L12.6158 12.8125L12.5639 13.2019C12.5639 13.2798 12.4082 14.8892 12.9273 17.1216C12.1226 18.134 11.3958 19.2243 10.7728 20.3664C10.3315 21.1452 9.9421 21.9499 9.60464 22.7806C7.42413 28.128 7.81351 32.541 7.83946 32.7227L7.89138 33.1121L8.28076 33.138C8.33268 33.138 8.72205 33.1899 9.37102 33.1899C11.0064 33.1899 14.2772 32.9563 18.0152 31.4767C18.4305 31.7363 18.8459 31.9699 19.2612 32.1776C16.0164 33.6831 12.8235 34.1764 10.6689 34.3321ZM10.2536 24.0266C10.3834 24.2083 10.5132 24.416 10.643 24.5977C10.2017 27.6608 10.643 29.9451 10.6689 30.049L10.7468 30.3605L11.0583 30.4124C11.1622 30.4383 13.4465 30.8796 16.5096 30.4383C16.7173 30.5681 16.899 30.7239 17.1066 30.8537C13.2648 32.2554 9.96806 32.2814 8.85185 32.2554C8.82589 31.1392 8.85185 27.8684 10.2536 24.0266ZM20.4553 32.7746C21.3379 33.1899 22.2205 33.5534 23.0771 33.8389C21.9868 35.3964 20.9745 36.4347 20.4813 36.902C19.988 36.4347 18.9757 35.3964 17.8594 33.8129C18.7161 33.5534 19.5987 33.1899 20.4553 32.7746ZM20.4813 39.9132C19.7285 39.2902 17.6518 37.4471 15.7049 34.4879C16.0943 34.384 16.5096 34.2802 16.9249 34.1504C18.5863 36.5905 20.1178 37.8884 20.1957 37.9403L20.5072 38.1999L20.8187 37.9403C20.8966 37.8884 22.4022 36.5905 24.0635 34.1504C24.4789 34.2802 24.8682 34.384 25.2836 34.4879C23.3107 37.4212 21.234 39.2902 20.4813 39.9132ZM34.1614 34.3061C33.5124 34.3581 32.1366 34.4619 30.2676 34.3321C27.9313 34.1764 24.3491 33.6053 20.6889 31.8141C19.9102 31.4507 19.1314 31.0094 18.4046 30.5681C17.8854 30.2566 17.3922 29.8932 16.899 29.5557L16.7432 29.426L16.5356 29.4519C14.1993 29.8153 12.3043 29.6077 11.5515 29.5038C11.4477 28.777 11.24 26.8561 11.6034 24.5198L11.6294 24.3121L11.4996 24.1564C11.2141 23.741 10.9285 23.3257 10.643 22.8844C10.8247 22.4431 11.0324 22.0018 11.24 21.5605C11.7592 22.4431 12.3303 23.2738 12.9792 24.0525C12.4601 26.285 12.6158 27.8944 12.6158 27.9723L12.6677 28.3617L13.0571 28.4136C13.135 28.4136 14.7444 28.5693 16.9769 28.0242C18.0152 28.8289 19.1055 29.5817 20.2476 30.2047C21.0004 30.62 21.8051 31.0094 22.6098 31.3209C26.4517 32.9044 29.8004 33.138 31.4617 33.138C32.1366 33.138 32.526 33.1121 32.5779 33.0861L32.9673 33.0342L33.0192 32.6448C33.0452 32.4631 33.4345 28.154 31.3319 22.9104C31.5915 22.495 31.8251 22.0797 32.0587 21.6644C33.5124 25.013 34.0056 28.2059 34.1614 30.3345C34.3171 32.2814 34.2133 33.6831 34.1614 34.3061ZM34.3431 25.4024C34.2393 25.013 34.1354 24.5977 34.0056 24.2083C36.4457 22.547 37.7437 21.0154 37.7956 20.9375L38.0552 20.626L37.7956 20.3145C37.7437 20.2366 36.4457 18.7311 34.0056 17.0697C34.1354 16.6544 34.2393 16.265 34.3431 15.8497C37.2764 17.7966 39.1454 19.8732 39.7684 20.626C39.1454 21.3788 37.3024 23.4555 34.3431 25.4024Z" fill="#BA9653"/>
<path d="M52.4361 33.3975H49.9182V35.3704H52.0727V35.9415H49.8663C49.8663 35.9415 49.9182 36.1232 49.9182 36.2789V38.6671H49.2952V32.8524H52.5919L52.4361 33.3975Z" fill="#501C4B"/>
<path d="M54.461 38.7191C53.812 38.7191 53.5005 38.3817 53.5005 37.6808V32.3853H54.1235V37.6808C54.1235 38.0442 54.2273 38.174 54.4869 38.174H54.7984V38.7451H54.461V38.7191Z" fill="#501C4B"/>
<path d="M56.9529 39.7834C56.7193 40.3804 56.3818 40.5881 55.655 40.5881H55.0839V40.017H55.655C56.1482 40.017 56.252 39.9132 56.4078 39.4979L56.6933 38.7451L55.032 34.3062H55.6809L56.875 37.4991C56.927 37.6288 56.9789 37.8625 57.0048 38.0442C57.0567 37.8365 57.1087 37.6288 57.1606 37.4991L58.3547 34.3062H59.0036L56.9529 39.7834Z" fill="#501C4B"/>
<path d="M63.2609 38.771C62.6119 38.771 62.1187 38.5374 62.1187 37.5769V35.1888C62.1187 35.033 62.1706 34.9551 62.1966 34.8772H61.3918V34.3321H62.1446V32.8525L62.7677 32.6708V34.3321H64.3252L64.1434 34.8772H62.7677V37.6029C62.7677 38.1221 63.0013 38.2778 63.4685 38.2778C63.6762 38.2778 63.9098 38.1999 64.1694 38.0442L64.5588 38.4595C64.2213 38.6931 63.7022 38.771 63.2609 38.771Z" fill="#501C4B"/>
<path d="M68.1932 38.6672V35.8897C68.1932 34.9551 67.8038 34.7215 67.2846 34.7215C66.9212 34.7215 66.6616 34.8254 66.2722 35.1109L65.8569 35.3964V38.6672H65.2339V32.3853H65.8569V34.6177L65.805 34.9032L66.1943 34.6177C66.6097 34.3321 66.9471 34.1764 67.3106 34.1764C68.1932 34.1764 68.8421 34.6436 68.8421 35.8377V38.6413H68.1932V38.6672Z" fill="#501C4B"/>
<path d="M70.3736 36.6684C70.3995 37.7327 70.711 38.2519 71.7234 38.2519C72.3464 38.2519 72.7358 38.0443 72.9435 37.6289L73.4886 37.8366C73.203 38.4336 72.7098 38.7711 71.7234 38.7711C70.3476 38.7711 69.7246 38.0702 69.7246 36.4867C69.7246 35.0331 70.2178 34.2024 71.7494 34.2024C73.3588 34.2024 73.5665 35.2667 73.5665 36.4867V36.6684H70.3736ZM71.7494 34.7216C70.8927 34.7216 70.4514 35.059 70.3995 36.1493H72.9175C72.9175 35.2667 72.7098 34.7216 71.7494 34.7216Z" fill="#501C4B"/>
<path d="M79.4849 38.6673V35.8897C79.4849 34.9552 79.0955 34.7216 78.5764 34.7216C78.2129 34.7216 77.9793 34.8254 77.564 35.1109L77.1486 35.3965V38.6673H76.5256V34.3322H77.0188L77.1486 34.8514L77.4601 34.6437C77.8755 34.3581 78.2129 34.2024 78.5764 34.2024C79.4589 34.2024 80.1079 34.6696 80.1079 35.8637V38.6673H79.4849Z" fill="#501C4B"/>
<path d="M81.6914 36.6684C81.7174 37.7327 82.0289 38.2519 83.0413 38.2519C83.6643 38.2519 84.0537 38.0443 84.2613 37.6289L84.8065 37.8366C84.5209 38.4336 84.0017 38.7711 83.0413 38.7711C81.6655 38.7711 81.0425 38.0702 81.0425 36.4867C81.0425 35.0331 81.5357 34.2024 83.0672 34.2024C84.6767 34.2024 84.9103 35.2667 84.9103 36.4867V36.6684H81.6914ZM83.0413 34.7216C82.2106 34.7216 81.7434 35.059 81.6914 36.1493H84.2094C84.2094 35.2667 84.0017 34.7216 83.0413 34.7216Z" fill="#501C4B"/>
<path d="M89.9462 38.6672H89.3232L88.4406 35.7858C88.3627 35.5003 88.2849 34.9811 88.2849 34.9811C88.2849 34.9811 88.233 35.5262 88.1551 35.7858L87.2465 38.6672H86.6235L85.2737 34.3322H85.8967L86.7793 37.2914C86.8572 37.525 86.935 38.0961 86.935 38.0961C86.935 38.0961 87.0129 37.551 87.0908 37.2914L87.9993 34.3322H88.5964L89.5049 37.2914C89.5828 37.551 89.6347 38.0961 89.6347 38.0961C89.6347 38.0961 89.7385 37.525 89.7905 37.2914L90.699 34.3322H91.322L89.9462 38.6672Z" fill="#501C4B"/>
<path d="M96.7734 33.0342C96.6176 33.0082 96.4878 32.9823 96.384 32.9563C96.2542 32.9303 96.1244 32.9044 95.9167 32.9044C95.4495 32.9044 95.0341 33.138 95.0341 33.8389V34.3061H96.5138L96.384 34.8513H95.0341V38.6412H94.4111V35.2147C94.4111 35.0849 94.4371 34.9811 94.489 34.8513H93.7362V34.3061H94.4111V33.8389C94.4111 32.8525 95.0341 32.3593 95.9167 32.3593C96.3321 32.3593 96.5138 32.4112 96.9031 32.4631L96.7734 33.0342Z" fill="#501C4B"/>
<path d="M97.552 36.6684C97.578 37.7327 97.8895 38.2519 98.9018 38.2519C99.5248 38.2519 99.9142 38.0443 100.122 37.6289L100.667 37.8366C100.381 38.4336 99.8623 38.7711 98.9018 38.7711C97.526 38.7711 96.8771 38.0702 96.8771 36.4867C96.8771 35.0331 97.3703 34.2024 98.9018 34.2024C100.511 34.2024 100.745 35.2667 100.745 36.4867V36.6684H97.552ZM98.9278 34.7216C98.0712 34.7216 97.6299 35.059 97.5779 36.1493H100.096C100.096 35.2667 99.8883 34.7216 98.9278 34.7216Z" fill="#501C4B"/>
<path d="M102.199 36.6684C102.225 37.7327 102.536 38.2519 103.548 38.2519C104.171 38.2519 104.561 38.0443 104.768 37.6289L105.314 37.8366C105.028 38.4336 104.535 38.7711 103.548 38.7711C102.147 38.7711 101.524 38.0702 101.524 36.4867C101.524 35.0331 102.017 34.2024 103.548 34.2024C105.158 34.2024 105.391 35.2667 105.391 36.4867V36.6684H102.199ZM103.548 34.7216C102.692 34.7216 102.251 35.059 102.199 36.1493H104.743C104.717 35.2667 104.509 34.7216 103.548 34.7216Z" fill="#501C4B"/>
<path d="M107.287 38.7191C106.664 38.7191 106.326 38.3817 106.326 37.6808V32.3853H106.949V37.6808C106.949 38.0442 107.053 38.174 107.312 38.174H107.624V38.7451H107.287V38.7191Z" fill="#501C4B"/>
<path d="M108.974 33.138H108.325L108.273 33.0601V32.4371L108.325 32.3593H108.974L109.026 32.4371V33.0601L108.974 33.138ZM108.325 34.3321H108.948V38.6672H108.325V34.3321Z" fill="#501C4B"/>
<path d="M113.049 38.6673V35.8897C113.049 34.9552 112.66 34.7216 112.141 34.7216C111.777 34.7216 111.518 34.8254 111.128 35.1109L110.713 35.3965V38.6673H110.09V34.3322H110.583L110.713 34.8514L111.024 34.6437C111.44 34.3581 111.777 34.2024 112.141 34.2024C113.023 34.2024 113.672 34.6696 113.672 35.8637V38.6673H113.049Z" fill="#501C4B"/>
<path d="M118.656 34.7994H118.345C118.267 34.7994 118.111 34.7994 117.955 34.7475C118.215 35.033 118.319 35.4224 118.319 35.7079C118.319 36.7203 117.748 37.1876 116.554 37.1876C116.346 37.1876 116.242 37.1616 116.06 37.1357L115.749 37.0837C115.489 37.0837 115.385 37.2395 115.385 37.4212C115.385 37.577 115.489 37.6808 115.697 37.7067L117.488 38.0183C118.423 38.174 118.63 38.6672 118.63 39.2123C118.63 40.2507 117.722 40.5622 116.554 40.5622C115.593 40.5622 114.477 40.3805 114.477 39.1085C114.477 38.5893 114.737 38.2259 115.1 37.9663C114.944 37.8365 114.84 37.6808 114.84 37.3953C114.84 37.1097 114.996 36.928 115.282 36.7722C114.944 36.4607 114.814 36.1233 114.814 35.682C114.814 34.5917 115.645 34.1764 116.58 34.1764C117.021 34.1764 117.384 34.2283 117.722 34.436L118.397 34.1764H118.838L118.656 34.7994ZM117.358 38.5634L115.515 38.2259C115.23 38.4076 115.1 38.7451 115.1 39.1345C115.1 39.8613 115.593 40.0949 116.528 40.0949C117.592 40.0949 117.955 39.7575 117.955 39.2383C117.929 38.8489 117.774 38.6413 117.358 38.5634ZM116.502 34.6956C115.801 34.6956 115.36 34.9811 115.36 35.7079C115.36 36.4867 115.853 36.6684 116.502 36.6684C117.203 36.6684 117.644 36.4607 117.644 35.7079C117.644 35.059 117.254 34.6956 116.502 34.6956Z" fill="#501C4B"/>
<path d="M46.2581 14.1104H48.802C49.1135 14.1104 49.2173 14.3181 49.2433 14.37C50.5931 16.888 55.1878 25.0649 55.1878 25.0649C55.1878 25.0649 59.8603 16.862 61.2361 14.3441C61.288 14.2662 61.3659 14.0845 61.6514 14.0845H62.9494C63.157 14.0845 63.2609 14.3181 63.157 14.4739C61.5736 17.2514 57.1866 24.8832 56.2521 26.5445C56.1482 26.7522 56.0184 26.8561 55.7848 26.8561H53.3707C53.1371 26.8561 52.9813 26.7003 52.8775 26.5186C51.943 24.8832 47.5819 17.2774 45.9985 14.5258C45.9985 14.4219 45.8946 14.1104 46.2581 14.1104Z" fill="#501C4B"/>
<path d="M84.6506 16.317C83.9757 15.9535 81.951 14.8892 78.8619 14.8892C75.5132 14.8892 74.8643 16.317 74.8643 17.3293C74.8643 18.6013 76.1882 18.9647 77.7197 19.0686C78.6542 19.1464 81.0164 19.2503 82.2884 19.4839C85.3256 20.029 86.1303 21.7423 86.1303 23.1181C86.1303 25.9995 82.7816 27.2195 78.7321 27.2195C75.3056 27.2195 72.8395 26.1293 71.8531 25.5841C71.6714 25.4803 71.6714 25.2467 71.7493 25.0909C72.0088 24.6237 71.931 24.7794 72.1386 24.3901C72.2425 24.1824 72.4242 24.1564 72.6059 24.2603C73.4106 24.7794 75.9805 26.0254 78.7581 26.0254C81.6135 26.0254 83.145 24.7794 83.145 23.5334C83.145 22.4951 82.7557 21.8461 80.6011 21.5346C79.4589 21.3789 76.915 21.3789 75.6171 21.0674C74.3192 20.7818 72.0608 20.1588 72.0608 17.6408C72.0608 16.2391 73.177 13.6692 79.0176 13.6692C82.2105 13.6692 84.3391 14.5258 85.4034 15.071C85.5851 15.1748 85.6371 15.3305 85.5332 15.5122C85.3515 15.7978 85.2996 15.9276 85.1179 16.2131C84.9881 16.3689 84.8064 16.3948 84.6506 16.317Z" fill="#501C4B"/>
<path d="M68.2191 14.1105H66.1424C65.9348 14.1105 65.7531 14.2922 65.7531 14.4999V26.4408C65.7531 26.6744 65.9348 26.8821 66.1424 26.8821H68.2191C68.4268 26.8821 68.6085 26.6744 68.6085 26.4408V14.4999C68.6085 14.2922 68.4268 14.1105 68.2191 14.1105Z" fill="#501C4B"/>
<path d="M98.4346 26.2071C98.2529 25.6879 98.3308 25.8956 98.175 25.4283C98.0971 25.1687 97.8635 25.2207 97.7597 25.2466C96.929 25.5841 95.7868 25.8696 94.9821 25.8696C92.9314 25.8696 91.7373 24.987 91.7373 23.144V15.7199H97.5001C97.7337 15.7199 97.9414 15.5381 97.9414 15.3305V14.7334C97.9414 14.4998 97.7337 14.3441 97.5001 14.3441H91.7373V11.255C91.7373 10.9694 91.4777 10.8656 91.296 10.9435C90.8028 11.0992 89.8683 11.4107 89.3491 11.5665C89.1674 11.6184 88.9857 11.7742 88.9857 12.0597V22.4691C88.9857 25.0649 90.4913 27.1675 94.5668 27.1675C95.9945 27.1675 97.3444 26.856 98.201 26.5965C98.3308 26.5705 98.5384 26.4667 98.4346 26.2071Z" fill="#501C4B"/>
<path d="M132.855 26.285C131.402 25.1687 128.131 22.7027 127.742 22.3912C130.052 22.3912 132.778 21.0673 132.778 18.16C132.778 14.9671 129.663 14.0845 128.209 14.0845H118.786C118.578 14.0845 118.397 14.2662 118.397 14.5258V26.4148C118.397 26.6484 118.578 26.8561 118.786 26.8561H120.785C120.992 26.8561 121.174 26.6484 121.174 26.4148V22.495H124.263C124.263 22.495 127.794 25.3505 129.014 26.3628C129.117 26.4667 129.559 26.8301 130.026 26.8301H132.778C132.985 26.882 133.193 26.5445 132.855 26.285ZM121.2 21.3009V15.3824H127.093C128.962 15.3824 129.792 16.888 129.792 18.2119C129.792 19.6915 129.066 21.3009 126.677 21.3009H121.2Z" fill="#501C4B"/>
<path d="M115.074 19.354V19.2502C115.074 18.4455 114.866 16.6024 113.309 15.3305C112.764 14.8892 111.102 13.8508 107.883 13.8508C105.21 13.8508 103.185 14.5258 101.212 15.5641C101.03 15.642 100.979 15.8237 101.056 15.9794C101.29 16.4986 101.238 16.4467 101.394 16.7582C101.472 16.9399 101.628 16.9918 101.835 16.862C102.822 16.2909 105.054 15.1228 107.572 15.1228C110.635 15.1228 112.296 16.5246 112.296 18.4455V19.9251C111.206 19.6396 109.181 19.1983 107.131 19.1983C101.913 19.1983 100.096 21.0932 100.096 23.2738C100.096 26.4407 103.237 27.2195 106.014 27.2195C108.403 27.2195 110.557 26.6743 112.245 25.4024H112.296C112.296 25.9994 112.296 26.4667 112.296 26.4667C112.296 26.7003 112.478 26.9079 112.686 26.9079H114.659C114.892 26.9079 115.048 26.7003 115.048 26.4667L115.074 19.354ZM106.56 25.9215C103.756 25.9215 103.029 24.4938 103.029 23.118C103.029 20.8077 105.807 20.3664 107.546 20.3664C109.519 20.3664 111.232 20.7298 112.296 20.9894V24.1564C111.18 24.9092 109.441 25.9215 106.56 25.9215Z" fill="#501C4B"/>
<path d="M150.04 19.354V19.2502C150.04 18.4455 149.858 16.6024 148.275 15.3305C147.73 14.8892 146.094 13.8508 142.876 13.8508C140.202 13.8508 138.177 14.5258 136.204 15.5641C136.022 15.642 135.997 15.8237 136.048 15.9794C136.282 16.4986 136.23 16.4467 136.386 16.7582C136.464 16.9399 136.62 16.9918 136.827 16.862C137.814 16.2909 140.046 15.1228 142.538 15.1228C145.601 15.1228 147.263 16.5246 147.263 18.4455V19.9251C146.172 19.6396 144.147 19.1983 142.123 19.1983C136.879 19.1983 135.062 21.0932 135.062 23.2738C135.062 26.4407 138.203 27.2195 141.006 27.2195C143.395 27.2195 145.523 26.6743 147.237 25.4024H147.288C147.288 25.9994 147.288 26.4667 147.288 26.4667C147.288 26.7003 147.47 26.9079 147.704 26.9079H149.677C149.884 26.9079 150.066 26.7003 150.066 26.4667V19.354H150.04ZM141.526 25.9215C138.722 25.9215 137.995 24.4938 137.995 23.118C137.995 20.8077 140.773 20.3664 142.512 20.3664C144.485 20.3664 146.172 20.7298 147.263 20.9894V24.1564C146.12 24.9092 144.381 25.9215 141.526 25.9215Z" fill="#501C4B"/>
<path d="M120.863 10.3724L120.551 9.48985H119.331L119.02 10.3724H118.345L119.617 6.86804H120.292L121.564 10.3724H120.863ZM120.006 7.90638L119.954 7.62084L119.876 7.90638L119.513 8.94472H120.37L120.006 7.90638Z" fill="#501C4B"/>
<path d="M124.134 7.41317V10.3724H123.485V7.41317H122.472V6.86804H125.12V7.41317H124.134Z" fill="#501C4B"/>
<path d="M127.534 10.3724L127.223 9.48985H126.003L125.691 10.3724H125.016L126.288 6.86804H126.963L128.235 10.3724H127.534ZM126.703 7.90638L126.626 7.62084L126.548 7.90638L126.184 8.94472H127.041L126.703 7.90638Z" fill="#501C4B"/>
<path d="M129.792 7.41317V10.3724H129.143V7.41317H128.131V6.86804H130.805V7.41317H129.792Z" fill="#501C4B"/>
<path d="M133.219 10.3724L132.907 9.48985H131.687L131.376 10.3724H130.701L131.973 6.86804H132.648L133.92 10.3724H133.219ZM132.388 7.90638L132.31 7.62084L132.232 7.90638L131.869 8.94472H132.726L132.388 7.90638Z" fill="#501C4B"/>
<path d="M136.594 10.4503C135.867 10.4503 135.529 10.1128 135.296 9.74939L135.841 9.46384C135.997 9.69747 136.23 9.87918 136.594 9.87918C137.139 9.87918 137.295 9.64555 137.295 9.33405C137.295 9.10042 137.191 8.94467 136.879 8.89275L136.152 8.76296C135.659 8.68508 135.322 8.4255 135.322 7.77654C135.322 7.28333 135.659 6.76416 136.594 6.76416C137.321 6.76416 137.632 7.02374 137.866 7.38716L137.321 7.67271C137.165 7.43908 136.957 7.33524 136.594 7.33524C136.126 7.33524 135.971 7.51695 135.971 7.77654C135.971 8.03612 136.049 8.114 136.308 8.13996L137.009 8.24379C137.528 8.32166 137.97 8.60721 137.97 9.30809C137.944 9.98301 137.554 10.4503 136.594 10.4503Z" fill="#501C4B"/>
<path d="M139.137 6.86804H138.489V10.3724H139.137V6.86804Z" fill="#501C4B"/>
<path d="M142.33 10.3724L142.019 9.48985H140.799L140.487 10.3724H139.812L141.084 6.86804H141.759L143.031 10.3724H142.33ZM141.474 7.90638L141.396 7.62084L141.318 7.90638L140.955 8.94472H141.811L141.474 7.90638Z" fill="#501C4B"/>
<path d="M145.212 10.4504C144.952 10.4504 144.641 10.3984 144.381 10.1648L144.667 9.74948C144.848 9.93119 145.03 9.93118 145.186 9.93118C145.471 9.93118 145.575 9.77544 145.575 9.3601V6.89404H146.224V9.3601C146.224 10.1389 145.835 10.4504 145.212 10.4504Z" fill="#501C4B"/>
<path d="M148.82 10.3724H148.171L146.899 6.86804H147.6L148.431 9.3341L148.509 9.61964L148.561 9.3341L149.417 6.86804H150.092L148.82 10.3724Z" fill="#501C4B"/>
<path d="M154.064 13.9028C154.349 13.9028 154.609 13.9807 154.894 14.1105C155.154 14.2403 155.361 14.448 155.517 14.7335C155.673 14.9931 155.751 15.2786 155.751 15.5642C155.751 15.8497 155.673 16.1353 155.543 16.3948C155.387 16.6544 155.18 16.8621 154.92 17.0179C154.661 17.1736 154.375 17.2515 154.09 17.2515C153.804 17.2515 153.518 17.1736 153.259 17.0179C152.999 16.8621 152.792 16.6544 152.636 16.3948C152.48 16.1353 152.402 15.8497 152.402 15.5642C152.402 15.2786 152.48 14.9931 152.636 14.7335C152.792 14.4739 152.999 14.2662 153.259 14.1105C153.518 13.9807 153.778 13.9028 154.064 13.9028ZM154.064 14.1884C153.83 14.1884 153.596 14.2403 153.389 14.3701C153.155 14.4999 152.999 14.6556 152.869 14.8893C152.74 15.1229 152.688 15.3565 152.688 15.5901C152.688 15.8238 152.74 16.0574 152.869 16.291C152.999 16.5246 153.155 16.6804 153.389 16.8102C153.596 16.94 153.83 16.9919 154.09 16.9919C154.323 16.9919 154.557 16.94 154.79 16.8102C154.998 16.6804 155.18 16.5246 155.31 16.291C155.439 16.0833 155.491 15.8497 155.491 15.5901C155.491 15.3565 155.439 15.1229 155.31 14.8893C155.18 14.6556 154.998 14.4999 154.79 14.3701C154.531 14.2403 154.297 14.1884 154.064 14.1884ZM153.337 16.4987V14.7075H153.96C154.167 14.7075 154.323 14.7335 154.427 14.7595L154.661 14.9412L154.738 15.2008C154.738 15.3305 154.687 15.4344 154.609 15.5382C154.505 15.642 154.401 15.694 154.245 15.694L154.401 15.7978C154.479 15.8757 154.557 15.9795 154.661 16.1612L154.868 16.5246H154.479L154.323 16.2391C154.193 16.0055 154.09 15.8757 154.012 15.8238L153.778 15.7718H153.596V16.5506H153.337V16.4987ZM153.622 15.4863H153.986C154.141 15.4863 154.271 15.4603 154.323 15.4084L154.401 15.2008L154.349 15.045L154.219 14.9412C154.167 14.9152 154.064 14.9152 153.934 14.9152H153.596L153.622 15.4863Z" fill="#501C4B"/>
</svg>
